<svg width="182" height="182" viewBox="0 0 182 182" fill="none" xmlns="http://www.w3.org/2000/svg">
<g clip-path="url(#clip0_114_4)">
<path d="M91 0C141.268 0 182 40.7407 182 91C182 141.259 141.268 182 91 182C40.7498 182 0 141.259 0 91C0 40.7407 40.7498 0 91 0ZM98.1071 49.7679L97.3427 49.1036C96.1823 48.2444 94.7793 47.7753 93.3354 47.7639C91.8916 47.7524 90.4813 48.1992 89.3074 49.0399L88.452 49.7679L87.7968 50.5323C86.9376 51.6927 86.4685 53.0957 86.4571 54.5396C86.4456 55.9834 86.8924 57.3937 87.7331 58.5676L88.4611 59.423L113.204 84.175H52.325L51.3968 84.2296C49.9199 84.4327 48.5501 85.1138 47.4968 86.1687C46.4434 87.2237 45.7645 88.5946 45.5637 90.0718L45.5 90.9909L45.5637 91.9191C45.7663 93.3947 46.4461 94.7635 47.4993 95.8167C48.5524 96.8698 49.9212 97.5496 51.3968 97.7522L52.325 97.8159H113.204L88.452 122.568L87.7877 123.341C86.802 124.656 86.3234 126.281 86.4399 127.92C86.5563 129.559 87.26 131.101 88.4217 132.262C89.5834 133.424 91.1251 134.128 92.7639 134.244C94.4026 134.361 96.0284 133.882 97.3427 132.896L98.098 132.232L134.516 95.8321L135.171 95.0586C136.03 93.9 136.499 92.4993 136.512 91.0573C136.525 89.6154 136.082 88.2064 135.244 87.0324L134.516 86.177L98.1071 49.7679Z" fill="#D9D9D9"/>
</g>
<defs>
<clipPath id="clip0_114_4">
<rect width="182" height="182" fill="white"/>
</clipPath>
</defs>
</svg>
