<svg width="1225" height="872" viewBox="0 0 1225 872" fill="none" xmlns="http://www.w3.org/2000/svg">
<path d="M145.771 30.1225C145.944 30.1935 146.158 30.3864 146.24 30.5488C146.321 30.701 146.81 32.315 147.329 34.132C147.849 35.949 148.449 37.8674 148.673 38.3953C150.242 42.2424 153.552 45.5414 157.421 47.1147C157.951 47.3279 159.947 47.9471 161.872 48.4952C165.579 49.5509 165.772 49.6422 165.915 50.2716C166.007 50.6878 165.721 51.2359 165.324 51.4186C165.141 51.4998 163.511 51.987 161.689 52.5047C159.866 53.0224 157.951 53.6213 157.421 53.8345C153.541 55.418 150.252 58.6966 148.673 62.5539C148.449 63.0817 147.849 65.0002 147.329 66.8172C146.81 68.6342 146.321 70.2583 146.24 70.441C146.056 70.8369 145.506 71.1211 145.089 71.0297C144.457 70.8876 144.366 70.6948 143.307 66.9999C142.247 63.2949 141.82 62.1073 141.046 60.7572C139.426 57.9353 136.758 55.4789 133.886 54.1491C132.807 53.6518 131.911 53.3574 128.357 52.3525C125.037 51.4085 124.813 51.3069 124.67 50.6776C124.599 50.3325 124.823 49.7742 125.118 49.5915C125.23 49.5204 126.778 49.0535 128.56 48.546C132.929 47.2974 133.764 46.9827 135.312 46.0387C138.327 44.1812 140.649 41.4912 141.922 38.3851C142.135 37.8573 142.736 35.949 143.256 34.132C143.775 32.315 144.264 30.701 144.345 30.5488C144.478 30.2747 145.017 29.96 145.313 29.9702C145.384 29.9803 145.588 30.0413 145.771 30.1225Z" fill="white"/>
<path d="M772.114 30.1525C772.287 30.2236 772.501 30.4164 772.583 30.5788C772.664 30.7311 773.153 32.3451 773.672 34.162C774.192 35.979 774.793 37.8975 775.017 38.4253C776.585 42.2724 779.895 45.5714 783.765 47.1448C784.294 47.3579 786.29 47.9771 788.215 48.5253C791.922 49.5809 792.116 49.6723 792.258 50.3016C792.35 50.7178 792.065 51.2659 791.667 51.4487C791.484 51.5299 789.855 52.0171 788.032 52.5348C786.209 53.0525 784.294 53.6514 783.765 53.8645C779.885 55.448 776.595 58.7267 775.017 62.584C774.793 63.1118 774.192 65.0303 773.672 66.8473C773.153 68.6642 772.664 70.2883 772.583 70.4711C772.399 70.8669 771.85 71.1511 771.432 71.0598C770.801 70.9177 770.709 70.7248 769.65 67.03C768.591 63.325 768.163 62.1373 767.389 60.7873C765.77 57.9654 763.102 55.5089 760.23 54.1792C759.15 53.6818 758.254 53.3874 754.7 52.3825C751.38 51.4385 751.156 51.337 751.013 50.7077C750.942 50.3625 751.166 49.8042 751.461 49.6215C751.573 49.5505 753.121 49.0835 754.903 48.576C759.272 47.3275 760.107 47.0128 761.655 46.0688C764.67 44.2112 766.992 41.5213 768.265 38.4152C768.479 37.8873 769.08 35.979 769.599 34.162C770.118 32.3451 770.607 30.7311 770.689 30.5788C770.821 30.3048 771.361 29.9901 771.656 30.0003C771.727 30.0104 771.931 30.0713 772.114 30.1525Z" fill="white"/>
<path d="M322.839 760.502C323.012 760.573 323.226 760.766 323.307 760.929C323.389 761.081 323.878 762.695 324.397 764.512C324.916 766.329 325.517 768.247 325.741 768.775C327.31 772.622 330.619 775.921 334.489 777.495C335.019 777.708 337.015 778.327 338.94 778.875C342.647 779.931 342.84 780.022 342.983 780.652C343.074 781.068 342.789 781.616 342.392 781.799C342.209 781.88 340.579 782.367 338.756 782.885C336.934 783.402 335.019 784.001 334.489 784.214C330.609 785.798 327.32 789.077 325.741 792.934C325.517 793.462 324.916 795.38 324.397 797.197C323.878 799.014 323.389 800.638 323.307 800.821C323.124 801.217 322.574 801.501 322.157 801.41C321.525 801.268 321.434 801.075 320.374 797.38C319.315 793.675 318.888 792.487 318.114 791.137C316.494 788.315 313.826 785.859 310.954 784.529C309.875 784.032 308.979 783.737 305.424 782.732C302.104 781.788 301.88 781.687 301.738 781.058C301.667 780.712 301.891 780.154 302.186 779.971C302.298 779.9 303.846 779.433 305.628 778.926C309.997 777.677 310.832 777.363 312.38 776.419C315.394 774.561 317.716 771.871 318.989 768.765C319.203 768.237 319.804 766.329 320.323 764.512C320.843 762.695 321.332 761.081 321.413 760.929C321.546 760.655 322.085 760.34 322.381 760.35C322.452 760.36 322.656 760.421 322.839 760.502Z" fill="white"/>
<path d="M227.569 424.091C227.672 424.133 227.799 424.248 227.848 424.345C227.896 424.435 228.187 425.396 228.497 426.478C228.806 427.559 229.163 428.701 229.297 429.016C230.23 431.306 232.201 433.27 234.504 434.206C234.82 434.333 236.008 434.702 237.154 435.028C239.36 435.656 239.476 435.711 239.561 436.085C239.615 436.333 239.445 436.659 239.209 436.768C239.1 436.817 238.13 437.107 237.045 437.415C235.959 437.723 234.82 438.079 234.504 438.206C232.195 439.149 230.237 441.101 229.297 443.397C229.163 443.711 228.806 444.853 228.497 445.935C228.187 447.016 227.896 447.983 227.848 448.092C227.739 448.328 227.411 448.497 227.163 448.443C226.787 448.358 226.732 448.243 226.102 446.044C225.471 443.838 225.217 443.131 224.756 442.327C223.792 440.648 222.204 439.185 220.494 438.394C219.852 438.098 219.318 437.922 217.202 437.324C215.226 436.762 215.093 436.702 215.008 436.327C214.965 436.122 215.099 435.789 215.275 435.681C215.341 435.638 216.263 435.36 217.324 435.058C219.924 434.315 220.421 434.128 221.343 433.566C223.137 432.46 224.52 430.859 225.277 429.009C225.405 428.695 225.762 427.559 226.072 426.478C226.381 425.396 226.672 424.435 226.72 424.345C226.799 424.181 227.12 423.994 227.296 424C227.339 424.006 227.46 424.042 227.569 424.091Z" fill="white"/>
<path d="M119.896 76.6518C119.966 76.6806 120.053 76.7588 120.086 76.8246C120.119 76.8863 120.317 77.5405 120.528 78.277C120.738 79.0135 120.982 79.7911 121.073 80.0051C121.708 81.5645 123.05 82.9016 124.618 83.5394C124.833 83.6258 125.642 83.8768 126.422 84.099C127.925 84.5269 128.003 84.5639 128.061 84.819C128.098 84.9877 127.983 85.2099 127.822 85.2839C127.747 85.3168 127.087 85.5143 126.348 85.7242C125.609 85.934 124.833 86.1767 124.618 86.2632C123.046 86.905 121.712 88.234 121.073 89.7975C120.982 90.0114 120.738 90.789 120.528 91.5255C120.317 92.262 120.119 92.9203 120.086 92.9944C120.012 93.1549 119.789 93.2701 119.62 93.233C119.364 93.1754 119.326 93.0973 118.897 91.5996C118.468 90.0978 118.294 89.6164 117.981 89.0692C117.324 87.9254 116.243 86.9297 115.079 86.3907C114.641 86.1891 114.278 86.0698 112.837 85.6624C111.492 85.2798 111.401 85.2387 111.343 84.9836C111.314 84.8437 111.405 84.6174 111.525 84.5433C111.57 84.5145 112.198 84.3252 112.92 84.1195C114.691 83.6134 115.029 83.4859 115.657 83.1033C116.879 82.3503 117.82 81.26 118.336 80.001C118.422 79.787 118.666 79.0135 118.876 78.277C119.087 77.5405 119.285 76.8863 119.318 76.8246C119.372 76.7135 119.591 76.586 119.71 76.5901C119.739 76.5942 119.822 76.6189 119.896 76.6518Z" fill="white"/>
<path d="M996.677 738.265C996.749 738.093 996.942 737.879 997.105 737.798C997.258 737.717 998.877 737.23 1000.7 736.712C1002.52 736.194 1004.45 735.596 1004.98 735.372C1008.84 733.809 1012.15 730.51 1013.73 726.653C1013.94 726.125 1014.56 724.135 1015.11 722.217C1016.17 718.522 1016.26 718.329 1016.89 718.187C1017.31 718.096 1017.86 718.38 1018.04 718.776C1018.12 718.959 1018.61 720.583 1019.13 722.4C1019.65 724.217 1020.25 726.125 1020.47 726.653C1022.06 730.52 1025.35 733.799 1029.22 735.372C1029.74 735.596 1031.67 736.194 1033.49 736.712C1035.32 737.23 1036.94 737.717 1037.13 737.798C1037.53 737.981 1037.81 738.529 1037.72 738.945C1037.58 739.575 1037.38 739.666 1033.68 740.722C1029.96 741.777 1028.77 742.204 1027.41 742.975C1024.58 744.589 1022.12 747.249 1020.78 750.111C1020.28 751.187 1019.99 752.08 1018.98 755.623C1018.03 758.932 1017.93 759.155 1017.3 759.297C1016.95 759.368 1016.39 759.145 1016.21 758.851C1016.14 758.739 1015.67 757.196 1015.16 755.42C1013.91 751.065 1013.59 750.233 1012.65 748.69C1010.78 745.685 1008.08 743.371 1004.97 742.102C1004.44 741.889 1002.52 741.29 1000.7 740.772C998.877 740.255 997.258 739.767 997.105 739.686C996.83 739.554 996.514 739.016 996.525 738.722C996.535 738.651 996.596 738.448 996.677 738.265Z" fill="white"/>
<path d="M1042.43 765.265C1042.45 765.195 1042.53 765.108 1042.6 765.075C1042.66 765.043 1043.32 764.845 1044.06 764.635C1044.8 764.425 1045.58 764.183 1045.79 764.092C1047.35 763.458 1048.7 762.121 1049.34 760.558C1049.42 760.344 1049.67 759.537 1049.9 758.76C1050.33 757.262 1050.36 757.184 1050.62 757.126C1050.79 757.089 1051.01 757.205 1051.09 757.365C1051.12 757.439 1051.32 758.097 1051.53 758.834C1051.74 759.57 1051.98 760.344 1052.07 760.558C1052.71 762.125 1054.05 763.454 1055.61 764.092C1055.83 764.183 1056.61 764.425 1057.35 764.635C1058.09 764.845 1058.75 765.043 1058.82 765.075C1058.98 765.15 1059.1 765.372 1059.06 765.54C1059 765.795 1058.93 765.833 1057.42 766.26C1055.92 766.688 1055.43 766.861 1054.88 767.174C1053.74 767.828 1052.74 768.906 1052.2 770.066C1051.99 770.502 1051.87 770.864 1051.47 772.3C1051.08 773.642 1051.04 773.732 1050.78 773.79C1050.64 773.819 1050.42 773.728 1050.34 773.609C1050.31 773.564 1050.12 772.938 1049.92 772.218C1049.41 770.453 1049.28 770.116 1048.9 769.49C1048.14 768.272 1047.05 767.334 1045.79 766.82C1045.57 766.734 1044.8 766.491 1044.06 766.281C1043.32 766.071 1042.66 765.874 1042.6 765.841C1042.49 765.787 1042.36 765.569 1042.36 765.45C1042.37 765.421 1042.39 765.339 1042.43 765.265Z" fill="white"/>
<path d="M101.461 56.6512C101.508 56.6704 101.566 56.7225 101.588 56.7664C101.61 56.8075 101.742 57.2437 101.882 57.7347C102.023 58.2257 102.185 58.7441 102.245 58.8867C102.669 59.9263 103.564 60.8178 104.609 61.2429C104.752 61.3005 105.292 61.4678 105.812 61.616C106.814 61.9012 106.866 61.9259 106.905 62.096C106.929 62.2084 106.852 62.3566 106.745 62.4059C106.695 62.4279 106.255 62.5595 105.762 62.6994C105.27 62.8393 104.752 63.0012 104.609 63.0588C103.561 63.4867 102.672 64.3726 102.245 65.415C102.185 65.5576 102.023 66.076 101.882 66.567C101.742 67.058 101.61 67.4969 101.588 67.5463C101.538 67.6532 101.39 67.73 101.277 67.7054C101.106 67.6669 101.081 67.6148 100.795 66.6164C100.509 65.6152 100.393 65.2943 100.184 64.9295C99.7467 64.1669 99.0257 63.5031 98.2496 63.1438C97.9579 63.0094 97.7158 62.9298 96.7553 62.6583C95.8582 62.4032 95.7976 62.3758 95.7591 62.2057C95.7399 62.1124 95.8004 61.9616 95.8802 61.9122C95.9105 61.893 96.3288 61.7668 96.8104 61.6297C97.991 61.2923 98.2166 61.2073 98.6349 60.9522C99.4495 60.4502 100.077 59.7233 100.421 58.884C100.479 58.7413 100.641 58.2257 100.781 57.7347C100.922 57.2437 101.054 56.8075 101.076 56.7664C101.112 56.6923 101.258 56.6073 101.337 56.6101C101.357 56.6128 101.412 56.6293 101.461 56.6512Z" fill="white"/>
<ellipse cx="2.78409" cy="2.775" rx="2.78409" ry="2.775" transform="matrix(-1 0 0 1 593.568 198.69)" fill="#D9D9D9"/>
<ellipse cx="2.78409" cy="2.775" rx="2.78409" ry="2.775" transform="matrix(-1 0 0 1 690.455 274.17)" fill="#D9D9D9"/>
<ellipse cx="2.78409" cy="2.775" rx="2.78409" ry="2.775" transform="matrix(-1 0 0 1 520.068 0)" fill="#D9D9D9"/>
<ellipse cx="2.78409" cy="2.775" rx="2.78409" ry="2.775" transform="matrix(-1 0 0 1 465.5 152.07)" fill="#D9D9D9"/>
<ellipse cx="2.78409" cy="2.775" rx="2.78409" ry="2.775" transform="matrix(-1 0 0 1 613.614 87.69)" fill="#D9D9D9"/>
<ellipse cx="1.67045" cy="1.665" rx="1.67045" ry="1.665" transform="matrix(-1 0 0 1 399.795 35.52)" fill="#D9D9D9"/>
<ellipse cx="1.67045" cy="1.665" rx="1.67045" ry="1.665" transform="matrix(-1 0 0 1 477.75 279.72)" fill="#D9D9D9"/>
<ellipse cx="2.78409" cy="2.775" rx="2.78409" ry="2.775" transform="matrix(-1 0 0 1 394.227 173.16)" fill="#D9D9D9"/>
<ellipse cx="1.67045" cy="1.665" rx="1.67045" ry="1.665" transform="matrix(-1 0 0 1 717.182 136.53)" fill="#D9D9D9"/>
<ellipse cx="1.67045" cy="1.665" rx="1.67045" ry="1.665" transform="matrix(-1 0 0 1 833 156.51)" fill="#D9D9D9"/>
<ellipse cx="1.67045" cy="1.665" rx="1.67045" ry="1.665" transform="matrix(-1 0 0 1 969.978 257.52)" fill="#D9D9D9"/>
<ellipse cx="2.78409" cy="2.775" rx="2.78409" ry="2.775" transform="matrix(-1 0 0 1 337.432 394.05)" fill="#D9D9D9"/>
<ellipse cx="1.67045" cy="1.665" rx="1.67045" ry="1.665" transform="matrix(-1 0 0 1 180.409 799.2)" fill="#D9D9D9"/>
<ellipse cx="1.67045" cy="1.665" rx="1.67045" ry="1.665" transform="matrix(-1 0 0 1 467.727 774.78)" fill="#D9D9D9"/>
<ellipse cx="1.67045" cy="1.665" rx="1.67045" ry="1.665" transform="matrix(-1 0 0 1 249.455 862.47)" fill="#D9D9D9"/>
<ellipse cx="1.67045" cy="1.665" rx="1.67045" ry="1.665" transform="matrix(-1 0 0 1 475.523 850.26)" fill="#D9D9D9"/>
<ellipse cx="1.67045" cy="1.665" rx="1.67045" ry="1.665" transform="matrix(-1 0 0 1 8.90894 723.72)" fill="#D9D9D9"/>
<ellipse cx="1.67045" cy="1.665" rx="1.67045" ry="1.665" transform="matrix(-1 0 0 1 134.75 835.83)" fill="#D9D9D9"/>
<ellipse cx="1.67045" cy="1.665" rx="1.67045" ry="1.665" transform="matrix(-1 0 0 1 180.409 682.65)" fill="#D9D9D9"/>
<ellipse cx="2.78409" cy="2.775" rx="2.78409" ry="2.775" transform="matrix(-1 0 0 1 61.25 463.98)" fill="#D9D9D9"/>
<ellipse cx="2.78409" cy="2.775" rx="2.78409" ry="2.775" transform="matrix(-1 0 0 1 34.5229 345.21)" fill="#D9D9D9"/>
<ellipse cx="2.78409" cy="2.775" rx="2.78409" ry="2.775" transform="matrix(-1 0 0 1 95.7727 238.65)" fill="#D9D9D9"/>
<ellipse cx="2.78409" cy="2.775" rx="2.78409" ry="2.775" transform="matrix(-1 0 0 1 42.3184 802.53)" fill="#D9D9D9"/>
<ellipse cx="2.78409" cy="2.775" rx="2.78409" ry="2.775" transform="matrix(-1 0 0 1 1190.48 819.18)" fill="#D9D9D9"/>
<ellipse cx="2.78409" cy="2.775" rx="2.78409" ry="2.775" transform="matrix(-1 0 0 1 684.886 773.67)" fill="#D9D9D9"/>
<ellipse cx="2.78409" cy="2.775" rx="2.78409" ry="2.775" transform="matrix(-1 0 0 1 1084.57 373)" fill="#D9D9D9"/>
<ellipse cx="2.78409" cy="2.775" rx="2.78409" ry="2.775" transform="matrix(-1 0 0 1 1018.57 71)" fill="#D9D9D9"/>
<ellipse cx="2.78409" cy="2.775" rx="2.78409" ry="2.775" transform="matrix(-1 0 0 1 1195.57 413)" fill="#D9D9D9"/>
<ellipse cx="2.78409" cy="2.775" rx="2.78409" ry="2.775" transform="matrix(-1 0 0 1 1201.57 71)" fill="#D9D9D9"/>
<ellipse cx="2.78409" cy="2.775" rx="2.78409" ry="2.775" transform="matrix(-1 0 0 1 877.545 677.1)" fill="#D9D9D9"/>
<ellipse cx="2.78409" cy="2.775" rx="2.78409" ry="2.775" transform="matrix(-1 0 0 1 1225 667.11)" fill="#D9D9D9"/>
<ellipse cx="2.78409" cy="2.775" rx="2.78409" ry="2.775" transform="matrix(-1 0 0 1 1115.86 703.74)" fill="#D9D9D9"/>
<ellipse cx="1.67045" cy="1.665" rx="1.67045" ry="1.665" transform="matrix(-1 0 0 1 559.045 808.08)" fill="#D9D9D9"/>
<ellipse cx="1.67045" cy="1.665" rx="1.67045" ry="1.665" transform="matrix(-1 0 0 1 616.955 703.74)" fill="#D9D9D9"/>
<ellipse cx="1.67045" cy="1.665" rx="1.67045" ry="1.665" transform="matrix(-1 0 0 1 986.682 644.91)" fill="#D9D9D9"/>
<ellipse cx="1.67045" cy="1.665" rx="1.67045" ry="1.665" transform="matrix(-1 0 0 1 645.909 846.93)" fill="#D9D9D9"/>
<ellipse cx="1.67045" cy="1.665" rx="1.67045" ry="1.665" transform="matrix(-1 0 0 1 1110.34 152)" fill="#D9D9D9"/>
<ellipse cx="1.67045" cy="1.665" rx="1.67045" ry="1.665" transform="matrix(-1 0 0 1 593.568 445.11)" fill="#D9D9D9"/>
<ellipse cx="2.78409" cy="2.775" rx="2.78409" ry="2.775" transform="matrix(-1 0 0 1 446.568 450.66)" fill="#D9D9D9"/>
<ellipse cx="2.78409" cy="2.775" rx="2.78409" ry="2.775" transform="matrix(-1 0 0 1 791.795 416.25)" fill="#D9D9D9"/>
<ellipse cx="2.78409" cy="2.775" rx="2.78409" ry="2.775" transform="matrix(-1 0 0 1 692.682 633.81)" fill="#D9D9D9"/>
<ellipse cx="2.78409" cy="2.775" rx="2.78409" ry="2.775" transform="matrix(-1 0 0 1 297.341 709.29)" fill="#D9D9D9"/>
<ellipse cx="2.78409" cy="2.775" rx="2.78409" ry="2.775" transform="matrix(-1 0 0 1 1037.57 428)" fill="#D9D9D9"/>
<ellipse cx="2.78409" cy="2.775" rx="2.78409" ry="2.775" transform="matrix(-1 0 0 1 5.56836 546.12)" fill="#D9D9D9"/>
<ellipse cx="2.78409" cy="2.775" rx="2.78409" ry="2.775" transform="matrix(-1 0 0 1 113.591 714.84)" fill="#D9D9D9"/>
<ellipse cx="2.78409" cy="2.775" rx="2.78409" ry="2.775" transform="matrix(-1 0 0 1 408.705 633.81)" fill="#D9D9D9"/>
<ellipse cx="2.78409" cy="2.775" rx="2.78409" ry="2.775" transform="matrix(-1 0 0 1 395.341 810.3)" fill="#D9D9D9"/>
<ellipse cx="2.78409" cy="2.775" rx="2.78409" ry="2.775" transform="matrix(-1 0 0 1 923.568 422)" fill="#D9D9D9"/>
<ellipse cx="2.78409" cy="2.775" rx="2.78409" ry="2.775" transform="matrix(-1 0 0 1 1078.57 283)" fill="#D9D9D9"/>
<ellipse cx="2.78409" cy="2.775" rx="2.78409" ry="2.775" transform="matrix(-1 0 0 1 38.9775 644.91)" fill="#D9D9D9"/>
<ellipse cx="2.78409" cy="2.775" rx="2.78409" ry="2.775" transform="matrix(-1 0 0 1 315.159 865.8)" fill="#D9D9D9"/>
<ellipse cx="2.78409" cy="2.775" rx="2.78409" ry="2.775" transform="matrix(-1 0 0 1 838.568 274.17)" fill="#D9D9D9"/>
<ellipse cx="2.78409" cy="2.775" rx="2.78409" ry="2.775" transform="matrix(-1 0 0 1 917.636 115.44)" fill="#D9D9D9"/>
<ellipse cx="2.78409" cy="2.775" rx="2.78409" ry="2.775" transform="matrix(-1 0 0 1 716.568 400)" fill="#D9D9D9"/>
<ellipse cx="2.78409" cy="2.775" rx="2.78409" ry="2.775" transform="matrix(-1 0 0 1 763.955 714.84)" fill="#D9D9D9"/>
<ellipse cx="1.67045" cy="1.665" rx="1.67045" ry="1.665" transform="matrix(-1 0 0 1 1059.07 835.83)" fill="#D9D9D9"/>
<ellipse cx="1.67045" cy="1.665" rx="1.67045" ry="1.665" transform="matrix(-1 0 0 1 778.432 865.8)" fill="#D9D9D9"/>
<ellipse cx="2.78409" cy="2.775" rx="2.78409" ry="2.775" transform="matrix(-1 0 0 1 923.205 793.65)" fill="#D9D9D9"/>
<ellipse cx="2.78409" cy="2.775" rx="2.78409" ry="2.775" transform="matrix(-1 0 0 1 371.955 277.5)" fill="#D9D9D9"/>
<ellipse cx="2.78409" cy="2.775" rx="2.78409" ry="2.775" transform="matrix(-1 0 0 1 591.341 349.65)" fill="#D9D9D9"/>
<ellipse cx="2.78409" cy="2.775" rx="2.78409" ry="2.775" transform="matrix(-1 0 0 1 229.409 193.14)" fill="#D9D9D9"/>
<ellipse cx="1.67045" cy="1.665" rx="1.67045" ry="1.665" transform="matrix(-1 0 0 1 183.75 344.1)" fill="#D9D9D9"/>
<ellipse cx="2.78409" cy="2.775" rx="2.78409" ry="2.775" transform="matrix(-1 0 0 1 520.068 0)" fill="#D9D9D9"/>
</svg>
