<svg width="952" height="678" viewBox="0 0 952 678" fill="none" xmlns="http://www.w3.org/2000/svg">
<path d="M113.285 23.4094C113.419 23.4647 113.586 23.6146 113.649 23.7408C113.712 23.8591 114.092 25.1134 114.496 26.5254C114.899 27.9375 115.366 29.4284 115.54 29.8386C116.759 32.8284 119.331 35.3921 122.339 36.6149C122.75 36.7805 124.302 37.2617 125.797 37.6877C128.678 38.5081 128.829 38.5791 128.939 39.0682C129.011 39.3916 128.789 39.8176 128.48 39.9596C128.338 40.0227 127.072 40.4014 125.655 40.8037C124.238 41.206 122.75 41.6714 122.339 41.8371C119.324 43.0677 116.767 45.6157 115.54 48.6133C115.366 49.0235 114.899 50.5145 114.496 51.9265C114.092 53.3386 113.712 54.6007 113.649 54.7427C113.506 55.0504 113.079 55.2712 112.755 55.2002C112.264 55.0898 112.193 54.9399 111.37 52.0685C110.546 49.1892 110.214 48.2662 109.613 47.217C108.354 45.024 106.281 43.115 104.049 42.0816C103.21 41.6951 102.513 41.4663 99.7513 40.6853C97.1712 39.9517 96.9971 39.8728 96.8863 39.3837C96.8309 39.1155 97.005 38.6817 97.2345 38.5397C97.3215 38.4844 98.5245 38.1216 99.9096 37.7271C103.305 36.7569 103.954 36.5123 105.157 35.7787C107.499 34.3351 109.304 32.2446 110.293 29.8307C110.459 29.4205 110.926 27.9375 111.33 26.5254C111.734 25.1134 112.114 23.8591 112.177 23.7408C112.28 23.5278 112.699 23.2832 112.929 23.2911C112.984 23.299 113.142 23.3463 113.285 23.4094Z" fill="white"/>
<path d="M600.043 23.4328C600.178 23.488 600.344 23.6379 600.407 23.7641C600.471 23.8825 600.85 25.1367 601.254 26.5488C601.658 27.9608 602.125 29.4518 602.299 29.862C603.518 32.8517 606.09 35.4155 609.097 36.6382C609.509 36.8039 611.06 37.2851 612.556 37.7111C615.437 38.5315 615.587 38.6025 615.698 39.0916C615.769 39.415 615.547 39.841 615.239 39.983C615.096 40.0461 613.83 40.4247 612.413 40.827C610.997 41.2294 609.509 41.6948 609.097 41.8604C606.082 43.0911 603.525 45.6391 602.299 48.6367C602.125 49.0469 601.658 50.5378 601.254 51.9499C600.85 53.3619 600.471 54.6241 600.407 54.7661C600.265 55.0737 599.837 55.2946 599.513 55.2236C599.022 55.1132 598.951 54.9633 598.128 52.0919C597.305 49.2126 596.972 48.2896 596.371 47.2404C595.112 45.0474 593.039 43.1384 590.807 42.105C589.968 41.7185 589.272 41.4897 586.51 40.7087C583.929 39.9751 583.755 39.8962 583.645 39.4071C583.589 39.1389 583.763 38.705 583.993 38.563C584.08 38.5078 585.283 38.1449 586.668 37.7505C590.063 36.7802 590.712 36.5357 591.915 35.802C594.258 34.3584 596.062 32.268 597.052 29.8541C597.218 29.4439 597.685 27.9608 598.088 26.5488C598.492 25.1367 598.872 23.8825 598.935 23.7641C599.038 23.5512 599.457 23.3066 599.687 23.3145C599.742 23.3224 599.901 23.3697 600.043 23.4328Z" fill="white"/>
<path d="M250.892 591.019C251.027 591.074 251.193 591.224 251.256 591.35C251.319 591.469 251.699 592.723 252.103 594.135C252.507 595.547 252.974 597.038 253.148 597.448C254.366 600.438 256.939 603.002 259.946 604.224C260.358 604.39 261.909 604.871 263.405 605.297C266.285 606.118 266.436 606.189 266.547 606.678C266.618 607.001 266.396 607.427 266.088 607.569C265.945 607.632 264.679 608.011 263.262 608.413C261.846 608.816 260.358 609.281 259.946 609.447C256.931 610.677 254.374 613.225 253.148 616.223C252.974 616.633 252.507 618.124 252.103 619.536C251.699 620.948 251.319 622.21 251.256 622.352C251.114 622.66 250.686 622.881 250.362 622.81C249.871 622.699 249.8 622.55 248.977 619.678C248.154 616.799 247.821 615.876 247.22 614.827C245.961 612.634 243.888 610.725 241.656 609.691C240.817 609.305 240.121 609.076 237.358 608.295C234.778 607.561 234.604 607.482 234.493 606.993C234.438 606.725 234.612 606.291 234.842 606.149C234.929 606.094 236.132 605.731 237.517 605.337C240.912 604.366 241.561 604.122 242.764 603.388C245.107 601.945 246.911 599.854 247.9 597.44C248.067 597.03 248.534 595.547 248.937 594.135C249.341 592.723 249.721 591.469 249.784 591.35C249.887 591.137 250.306 590.893 250.536 590.901C250.591 590.909 250.75 590.956 250.892 591.019Z" fill="white"/>
<path d="M176.854 329.579C176.934 329.612 177.033 329.701 177.07 329.776C177.108 329.847 177.334 330.593 177.574 331.434C177.815 332.275 178.093 333.162 178.196 333.406C178.922 335.186 180.453 336.712 182.243 337.44C182.488 337.539 183.412 337.825 184.302 338.079C186.017 338.567 186.107 338.609 186.173 338.901C186.215 339.093 186.083 339.347 185.899 339.431C185.815 339.469 185.061 339.694 184.217 339.934C183.374 340.173 182.488 340.45 182.243 340.549C180.448 341.282 178.927 342.798 178.196 344.583C178.093 344.827 177.815 345.715 177.574 346.555C177.334 347.396 177.108 348.147 177.07 348.232C176.986 348.415 176.731 348.546 176.538 348.504C176.246 348.438 176.203 348.349 175.713 346.64C175.223 344.926 175.026 344.376 174.668 343.752C173.918 342.446 172.684 341.31 171.355 340.695C170.856 340.464 170.441 340.328 168.797 339.863C167.261 339.427 167.158 339.38 167.092 339.088C167.059 338.929 167.162 338.671 167.299 338.586C167.351 338.553 168.067 338.337 168.891 338.102C170.913 337.525 171.299 337.379 172.015 336.942C173.41 336.083 174.484 334.839 175.073 333.402C175.172 333.157 175.45 332.275 175.69 331.434C175.93 330.593 176.156 329.847 176.194 329.776C176.255 329.65 176.505 329.504 176.642 329.509C176.675 329.513 176.769 329.542 176.854 329.579Z" fill="white"/>
<path d="M93.1765 59.5694C93.231 59.5918 93.2984 59.6525 93.3241 59.7037C93.3497 59.7517 93.5037 60.2601 93.6673 60.8324C93.8309 61.4048 94.0202 62.0091 94.0908 62.1754C94.5848 63.3872 95.6274 64.4264 96.8465 64.922C97.0133 64.9892 97.642 65.1842 98.2483 65.3569C99.4161 65.6894 99.477 65.7182 99.5219 65.9165C99.5508 66.0476 99.461 66.2202 99.3359 66.2778C99.2781 66.3034 98.7648 66.4568 98.1906 66.6199C97.6164 66.783 97.0133 66.9716 96.8465 67.0388C95.6242 67.5376 94.588 68.5704 94.0908 69.7855C94.0202 69.9517 93.8309 70.5561 93.6673 71.1284C93.5037 71.7008 93.3497 72.2124 93.3241 72.2699C93.2663 72.3946 93.0931 72.4842 92.9616 72.4554C92.7627 72.4106 92.7338 72.3499 92.4002 71.186C92.0665 70.0189 91.9318 69.6448 91.688 69.2195C91.1779 68.3306 90.3374 67.5568 89.4328 67.1379C89.0927 66.9812 88.8104 66.8885 87.6909 66.5719C86.645 66.2746 86.5745 66.2426 86.5296 66.0444C86.5071 65.9356 86.5777 65.7598 86.6707 65.7022C86.706 65.6798 87.1936 65.5328 87.755 65.3729C89.1312 64.9796 89.3943 64.8805 89.8819 64.5831C90.8315 63.9979 91.5629 63.1506 91.9639 62.1722C92.0313 62.0059 92.2205 61.4048 92.3841 60.8324C92.5477 60.2601 92.7017 59.7517 92.7274 59.7037C92.7691 59.6174 92.9391 59.5182 93.0322 59.5214C93.0546 59.5246 93.1188 59.5438 93.1765 59.5694Z" fill="white"/>
<path d="M774.561 573.737C774.616 573.603 774.767 573.438 774.893 573.375C775.012 573.311 776.27 572.933 777.687 572.531C779.104 572.128 780.6 571.663 781.011 571.489C784.011 570.274 786.583 567.711 787.81 564.713C787.976 564.303 788.459 562.757 788.886 561.266C789.709 558.394 789.78 558.244 790.271 558.134C790.595 558.063 791.023 558.284 791.165 558.591C791.229 558.733 791.608 559.996 792.012 561.408C792.416 562.82 792.883 564.303 793.049 564.713C794.284 567.719 796.84 570.267 799.847 571.489C800.259 571.663 801.755 572.128 803.171 572.531C804.588 572.933 805.854 573.311 805.997 573.375C806.305 573.517 806.527 573.943 806.456 574.266C806.345 574.755 806.195 574.826 803.314 575.646C800.425 576.467 799.499 576.798 798.446 577.398C796.246 578.652 794.331 580.719 793.294 582.943C792.906 583.78 792.677 584.474 791.893 587.227C791.157 589.799 791.078 589.972 790.588 590.083C790.318 590.138 789.883 589.964 789.741 589.735C789.685 589.649 789.321 588.45 788.926 587.069C787.952 583.685 787.707 583.038 786.971 581.839C785.522 579.504 783.425 577.705 781.003 576.719C780.592 576.554 779.104 576.088 777.687 575.686C776.27 575.284 775.012 574.905 774.893 574.842C774.68 574.739 774.434 574.321 774.442 574.092C774.45 574.037 774.498 573.879 774.561 573.737Z" fill="white"/>
<path d="M810.114 594.72C810.136 594.666 810.197 594.598 810.248 594.573C810.297 594.547 810.807 594.394 811.381 594.231C811.955 594.068 812.561 593.879 812.728 593.809C813.944 593.316 814.987 592.277 815.484 591.062C815.551 590.896 815.747 590.269 815.92 589.665C816.254 588.501 816.283 588.44 816.482 588.395C816.613 588.367 816.786 588.456 816.844 588.581C816.87 588.638 817.024 589.15 817.187 589.722C817.351 590.295 817.54 590.896 817.608 591.062C818.108 592.28 819.144 593.313 820.363 593.809C820.53 593.879 821.136 594.068 821.711 594.231C822.285 594.394 822.798 594.547 822.856 594.573C822.981 594.63 823.071 594.803 823.042 594.934C822.997 595.132 822.936 595.161 821.768 595.494C820.597 595.826 820.222 595.961 819.795 596.204C818.904 596.712 818.127 597.55 817.707 598.451C817.55 598.79 817.457 599.072 817.139 600.188C816.841 601.23 816.809 601.3 816.61 601.345C816.501 601.368 816.324 601.297 816.267 601.205C816.244 601.169 816.097 600.683 815.936 600.124C815.542 598.752 815.442 598.49 815.144 598.004C814.557 597.057 813.707 596.328 812.725 595.929C812.558 595.861 811.955 595.673 811.381 595.51C810.807 595.347 810.297 595.193 810.248 595.168C810.162 595.126 810.062 594.957 810.066 594.864C810.069 594.841 810.088 594.778 810.114 594.72Z" fill="white"/>
<path d="M78.8499 44.0261C78.8862 44.041 78.9311 44.0815 78.9482 44.1156C78.9653 44.1476 79.068 44.4865 79.1771 44.8681C79.2861 45.2496 79.4123 45.6525 79.4594 45.7634C79.7887 46.5713 80.4838 47.2641 81.2965 47.5945C81.4077 47.6393 81.8269 47.7693 82.2311 47.8844C83.0095 48.1061 83.0502 48.1253 83.0801 48.2574C83.0994 48.3448 83.0395 48.46 82.9561 48.4983C82.9176 48.5154 82.5754 48.6177 82.1926 48.7264C81.8098 48.8351 81.4077 48.9609 81.2965 49.0057C80.4816 49.3382 79.7909 50.0267 79.4594 50.8368C79.4123 50.9476 79.2861 51.3505 79.1771 51.7321C79.068 52.1136 78.9653 52.4547 78.9482 52.4931C78.9097 52.5762 78.7942 52.6359 78.7066 52.6167C78.574 52.5869 78.5547 52.5464 78.3323 51.7704C78.1099 50.9924 78.0201 50.743 77.8575 50.4595C77.5175 49.8669 76.9571 49.351 76.354 49.0717C76.1273 48.9673 75.9391 48.9055 75.1927 48.6944C74.4955 48.4962 74.4485 48.4749 74.4185 48.3427C74.4036 48.2702 74.4506 48.153 74.5126 48.1146C74.5362 48.0997 74.8613 48.0016 75.2355 47.8951C76.153 47.6329 76.3284 47.5668 76.6534 47.3685C77.2865 46.9784 77.7741 46.4135 78.0414 45.7613C78.0864 45.6504 78.2125 45.2496 78.3216 44.8681C78.4307 44.4865 78.5333 44.1476 78.5504 44.1156C78.5782 44.058 78.6916 43.992 78.7536 43.9941C78.7686 43.9962 78.8114 44.009 78.8499 44.0261Z" fill="white"/>
<ellipse cx="2.16364" cy="2.15657" rx="2.16364" ry="2.15657" transform="matrix(-1 0 0 1 461.287 154.411)" fill="#D9D9D9"/>
<ellipse cx="2.16364" cy="2.15657" rx="2.16364" ry="2.15657" transform="matrix(-1 0 0 1 536.582 213.069)" fill="#D9D9D9"/>
<ellipse cx="2.16364" cy="2.15657" rx="2.16364" ry="2.15657" transform="matrix(-1 0 0 1 404.167 0)" fill="#D9D9D9"/>
<ellipse cx="2.16364" cy="2.15657" rx="2.16364" ry="2.15657" transform="matrix(-1 0 0 1 361.76 118.18)" fill="#D9D9D9"/>
<ellipse cx="2.16364" cy="2.15657" rx="2.16364" ry="2.15657" transform="matrix(-1 0 0 1 476.865 68.1476)" fill="#D9D9D9"/>
<ellipse cx="1.29818" cy="1.29394" rx="1.29818" ry="1.29394" transform="matrix(-1 0 0 1 310.698 27.6041)" fill="#D9D9D9"/>
<ellipse cx="1.29818" cy="1.29394" rx="1.29818" ry="1.29394" transform="matrix(-1 0 0 1 371.28 217.382)" fill="#D9D9D9"/>
<ellipse cx="2.16364" cy="2.15657" rx="2.16364" ry="2.15657" transform="matrix(-1 0 0 1 306.371 134.57)" fill="#D9D9D9"/>
<ellipse cx="1.29818" cy="1.29394" rx="1.29818" ry="1.29394" transform="matrix(-1 0 0 1 557.353 106.103)" fill="#D9D9D9"/>
<ellipse cx="1.29818" cy="1.29394" rx="1.29818" ry="1.29394" transform="matrix(-1 0 0 1 647.36 121.631)" fill="#D9D9D9"/>
<ellipse cx="1.29818" cy="1.29394" rx="1.29818" ry="1.29394" transform="matrix(-1 0 0 1 753.811 200.13)" fill="#D9D9D9"/>
<ellipse cx="2.16364" cy="2.15657" rx="2.16364" ry="2.15657" transform="matrix(-1 0 0 1 262.233 306.233)" fill="#D9D9D9"/>
<ellipse cx="1.29818" cy="1.29394" rx="1.29818" ry="1.29394" transform="matrix(-1 0 0 1 140.204 621.093)" fill="#D9D9D9"/>
<ellipse cx="1.29818" cy="1.29394" rx="1.29818" ry="1.29394" transform="matrix(-1 0 0 1 363.491 602.115)" fill="#D9D9D9"/>
<ellipse cx="1.29818" cy="1.29394" rx="1.29818" ry="1.29394" transform="matrix(-1 0 0 1 193.862 670.262)" fill="#D9D9D9"/>
<ellipse cx="1.29818" cy="1.29394" rx="1.29818" ry="1.29394" transform="matrix(-1 0 0 1 369.549 660.773)" fill="#D9D9D9"/>
<ellipse cx="1.29818" cy="1.29394" rx="1.29818" ry="1.29394" transform="matrix(-1 0 0 1 6.92358 562.434)" fill="#D9D9D9"/>
<ellipse cx="1.29818" cy="1.29394" rx="1.29818" ry="1.29394" transform="matrix(-1 0 0 1 104.72 649.559)" fill="#D9D9D9"/>
<ellipse cx="1.29818" cy="1.29394" rx="1.29818" ry="1.29394" transform="matrix(-1 0 0 1 140.204 530.516)" fill="#D9D9D9"/>
<ellipse cx="2.16364" cy="2.15657" rx="2.16364" ry="2.15657" transform="matrix(-1 0 0 1 47.6001 360.579)" fill="#D9D9D9"/>
<ellipse cx="2.16364" cy="2.15657" rx="2.16364" ry="2.15657" transform="matrix(-1 0 0 1 26.8293 268.277)" fill="#D9D9D9"/>
<ellipse cx="2.16364" cy="2.15657" rx="2.16364" ry="2.15657" transform="matrix(-1 0 0 1 74.4292 185.465)" fill="#D9D9D9"/>
<ellipse cx="2.16364" cy="2.15657" rx="2.16364" ry="2.15657" transform="matrix(-1 0 0 1 32.8875 623.68)" fill="#D9D9D9"/>
<ellipse cx="2.16364" cy="2.15657" rx="2.16364" ry="2.15657" transform="matrix(-1 0 0 1 925.171 636.62)" fill="#D9D9D9"/>
<ellipse cx="2.16364" cy="2.15657" rx="2.16364" ry="2.15657" transform="matrix(-1 0 0 1 532.254 601.252)" fill="#D9D9D9"/>
<ellipse cx="2.16364" cy="2.15657" rx="2.16364" ry="2.15657" transform="matrix(-1 0 0 1 842.865 289.874)" fill="#D9D9D9"/>
<ellipse cx="2.16364" cy="2.15657" rx="2.16364" ry="2.15657" transform="matrix(-1 0 0 1 791.573 55.1772)" fill="#D9D9D9"/>
<ellipse cx="2.16364" cy="2.15657" rx="2.16364" ry="2.15657" transform="matrix(-1 0 0 1 929.127 320.96)" fill="#D9D9D9"/>
<ellipse cx="2.16364" cy="2.15657" rx="2.16364" ry="2.15657" transform="matrix(-1 0 0 1 933.79 55.1772)" fill="#D9D9D9"/>
<ellipse cx="2.16364" cy="2.15657" rx="2.16364" ry="2.15657" transform="matrix(-1 0 0 1 681.978 526.203)" fill="#D9D9D9"/>
<ellipse cx="2.16364" cy="2.15657" rx="2.16364" ry="2.15657" transform="matrix(-1 0 0 1 952 518.44)" fill="#D9D9D9"/>
<ellipse cx="2.16364" cy="2.15657" rx="2.16364" ry="2.15657" transform="matrix(-1 0 0 1 867.186 546.906)" fill="#D9D9D9"/>
<ellipse cx="1.29818" cy="1.29394" rx="1.29818" ry="1.29394" transform="matrix(-1 0 0 1 434.458 627.994)" fill="#D9D9D9"/>
<ellipse cx="1.29818" cy="1.29394" rx="1.29818" ry="1.29394" transform="matrix(-1 0 0 1 479.462 546.906)" fill="#D9D9D9"/>
<ellipse cx="1.29818" cy="1.29394" rx="1.29818" ry="1.29394" transform="matrix(-1 0 0 1 766.792 501.187)" fill="#D9D9D9"/>
<ellipse cx="1.29818" cy="1.29394" rx="1.29818" ry="1.29394" transform="matrix(-1 0 0 1 501.964 658.186)" fill="#D9D9D9"/>
<ellipse cx="1.29818" cy="1.29394" rx="1.29818" ry="1.29394" transform="matrix(-1 0 0 1 862.894 118.126)" fill="#D9D9D9"/>
<ellipse cx="1.29818" cy="1.29394" rx="1.29818" ry="1.29394" transform="matrix(-1 0 0 1 461.287 345.914)" fill="#D9D9D9"/>
<ellipse cx="2.16364" cy="2.15657" rx="2.16364" ry="2.15657" transform="matrix(-1 0 0 1 347.047 350.227)" fill="#D9D9D9"/>
<ellipse cx="2.16364" cy="2.15657" rx="2.16364" ry="2.15657" transform="matrix(-1 0 0 1 615.338 323.486)" fill="#D9D9D9"/>
<ellipse cx="2.16364" cy="2.15657" rx="2.16364" ry="2.15657" transform="matrix(-1 0 0 1 538.312 492.561)" fill="#D9D9D9"/>
<ellipse cx="2.16364" cy="2.15657" rx="2.16364" ry="2.15657" transform="matrix(-1 0 0 1 231.076 551.22)" fill="#D9D9D9"/>
<ellipse cx="2.16364" cy="2.15657" rx="2.16364" ry="2.15657" transform="matrix(-1 0 0 1 806.339 332.617)" fill="#D9D9D9"/>
<ellipse cx="2.16364" cy="2.15657" rx="2.16364" ry="2.15657" transform="matrix(-1 0 0 1 4.32739 424.413)" fill="#D9D9D9"/>
<ellipse cx="2.16364" cy="2.15657" rx="2.16364" ry="2.15657" transform="matrix(-1 0 0 1 88.2764 555.533)" fill="#D9D9D9"/>
<ellipse cx="2.16364" cy="2.15657" rx="2.16364" ry="2.15657" transform="matrix(-1 0 0 1 317.622 492.561)" fill="#D9D9D9"/>
<ellipse cx="2.16364" cy="2.15657" rx="2.16364" ry="2.15657" transform="matrix(-1 0 0 1 307.236 629.719)" fill="#D9D9D9"/>
<ellipse cx="2.16364" cy="2.15657" rx="2.16364" ry="2.15657" transform="matrix(-1 0 0 1 717.745 327.954)" fill="#D9D9D9"/>
<ellipse cx="2.16364" cy="2.15657" rx="2.16364" ry="2.15657" transform="matrix(-1 0 0 1 838.202 219.931)" fill="#D9D9D9"/>
<ellipse cx="2.16364" cy="2.15657" rx="2.16364" ry="2.15657" transform="matrix(-1 0 0 1 30.291 501.187)" fill="#D9D9D9"/>
<ellipse cx="2.16364" cy="2.15657" rx="2.16364" ry="2.15657" transform="matrix(-1 0 0 1 244.924 672.85)" fill="#D9D9D9"/>
<ellipse cx="2.16364" cy="2.15657" rx="2.16364" ry="2.15657" transform="matrix(-1 0 0 1 651.688 213.069)" fill="#D9D9D9"/>
<ellipse cx="2.16364" cy="2.15657" rx="2.16364" ry="2.15657" transform="matrix(-1 0 0 1 713.134 89.7134)" fill="#D9D9D9"/>
<ellipse cx="2.16364" cy="2.15657" rx="2.16364" ry="2.15657" transform="matrix(-1 0 0 1 556.876 310.857)" fill="#D9D9D9"/>
<ellipse cx="2.16364" cy="2.15657" rx="2.16364" ry="2.15657" transform="matrix(-1 0 0 1 593.702 555.533)" fill="#D9D9D9"/>
<ellipse cx="1.29818" cy="1.29394" rx="1.29818" ry="1.29394" transform="matrix(-1 0 0 1 823.047 649.559)" fill="#D9D9D9"/>
<ellipse cx="1.29818" cy="1.29394" rx="1.29818" ry="1.29394" transform="matrix(-1 0 0 1 604.953 672.85)" fill="#D9D9D9"/>
<ellipse cx="2.16364" cy="2.15657" rx="2.16364" ry="2.15657" transform="matrix(-1 0 0 1 717.462 616.779)" fill="#D9D9D9"/>
<ellipse cx="2.16364" cy="2.15657" rx="2.16364" ry="2.15657" transform="matrix(-1 0 0 1 289.062 215.657)" fill="#D9D9D9"/>
<ellipse cx="2.16364" cy="2.15657" rx="2.16364" ry="2.15657" transform="matrix(-1 0 0 1 459.556 271.728)" fill="#D9D9D9"/>
<ellipse cx="2.16364" cy="2.15657" rx="2.16364" ry="2.15657" transform="matrix(-1 0 0 1 178.283 150.097)" fill="#D9D9D9"/>
<ellipse cx="1.29818" cy="1.29394" rx="1.29818" ry="1.29394" transform="matrix(-1 0 0 1 142.8 267.415)" fill="#D9D9D9"/>
<ellipse cx="2.16364" cy="2.15657" rx="2.16364" ry="2.15657" transform="matrix(-1 0 0 1 404.167 0)" fill="#D9D9D9"/>
</svg>
