<svg width="547" height="101" viewBox="0 0 547 101" fill="none" xmlns="http://www.w3.org/2000/svg">
<path d="M102.899 99V91.686C98.7595 91.686 95.5395 90.122 93.2395 86.994C92.4115 85.798 90.9855 82.992 88.9615 78.576L54.8755 0.881997H50.1835L17.7535 73.746L13.8895 82.44C10.5775 88.696 6.25348 91.824 0.917484 91.824V99H36.2455V91.824C31.6455 91.824 28.5175 91.502 26.8615 90.858C25.0215 90.03 24.1015 88.558 24.1015 86.442C24.1015 85.614 24.2855 84.786 24.6535 83.958C24.8375 83.498 24.9295 83.084 24.9295 82.716C25.0215 82.348 25.1135 82.072 25.2055 81.888L26.4475 78.714L28.9315 72.918H57.9115L63.2935 85.062L63.7075 86.166L64.2595 87.27L64.5355 88.512V89.616C64.5355 90.812 64.1215 91.502 63.2935 91.686C62.3735 91.87 61.3155 91.962 60.1195 91.962L57.0835 91.824L53.7715 91.686V99H102.899ZM100.415 96.516H56.1175V94.032C59.3375 94.032 61.6375 93.848 63.0175 93.48C65.5935 92.836 66.8815 91.548 66.8815 89.616L66.6055 86.994L65.5015 84.234L59.4295 70.434H27.4135L24.2395 77.748L22.7215 81.474C21.9855 83.682 21.6175 85.338 21.6175 86.442C21.6175 89.57 22.7675 91.686 25.0675 92.79C26.9995 93.618 29.8975 94.032 33.7615 94.032V96.516H3.26348V94.032C7.12748 94.032 10.6695 91.732 13.8895 87.132C14.9015 85.384 16.9255 81.244 19.9615 74.712L51.8395 3.228H53.2195L86.7535 79.542C89.1455 84.326 90.8015 87.5 91.7215 89.064C94.2055 92.376 97.1035 94.032 100.415 94.032V96.516ZM57.3595 65.466L43.6975 34.14L29.7595 65.466H57.3595ZM53.7715 63.12H33.4855L43.6975 40.074L53.7715 63.12ZM175.167 62.43C175.167 51.85 172.315 43.432 166.611 37.176C161.551 31.932 155.387 29.31 148.119 29.31C142.599 29.31 137.723 31.012 133.491 34.416V2.814H102.165V10.128C105.569 10.128 107.731 10.864 108.651 12.336C109.387 13.348 109.755 15.188 109.755 17.856V19.926V100.932H115.413L124.797 94.722C129.673 98.862 135.423 100.932 142.047 100.932C147.291 100.932 151.937 99.92 155.985 97.896C160.125 95.78 163.621 92.882 166.473 89.202C168.313 86.902 169.647 84.924 170.475 83.268C171.763 80.508 172.637 78.392 173.097 76.92C174.477 72.504 175.167 67.674 175.167 62.43ZM172.683 62.43C172.683 72.274 170.061 80.6 164.817 87.408C159.113 94.768 151.523 98.448 142.047 98.448C135.515 98.448 129.811 96.148 124.935 91.548L114.585 98.448H112.101V19.926C112.101 14.314 111.503 10.91 110.307 9.714C108.927 8.33399 106.995 7.64399 104.511 7.64399V5.16H131.007V39.936C133.123 37.452 135.653 35.428 138.597 33.864C141.449 32.392 144.623 31.656 148.119 31.656C154.927 31.656 160.585 34.14 165.093 39.108C170.153 44.72 172.683 52.494 172.683 62.43ZM152.949 63.81C152.949 56.634 152.489 51.528 151.569 48.492C149.821 42.328 146.601 39.246 141.909 39.246C141.081 39.246 140.529 39.292 140.253 39.384C139.885 39.476 139.333 39.614 138.597 39.798C138.413 39.89 138.137 40.028 137.769 40.212C137.493 40.304 137.263 40.396 137.079 40.488C136.527 40.672 136.067 40.948 135.699 41.316C134.135 42.328 132.571 43.846 131.007 45.87V77.748C131.007 82.532 131.559 86.12 132.663 88.512C134.319 92.008 137.171 93.756 141.219 93.756C145.819 93.756 148.993 90.95 150.741 85.338C152.213 81.014 152.949 73.838 152.949 63.81ZM150.603 63.81C150.603 72.182 150.097 78.76 149.085 83.544C147.613 88.788 144.991 91.41 141.219 91.41C137.815 91.41 135.561 89.846 134.457 86.718C133.813 85.338 133.491 82.348 133.491 77.748V46.698C134.503 45.41 135.745 44.26 137.217 43.248C138.781 42.236 140.345 41.73 141.909 41.73C145.681 41.73 148.165 43.8 149.361 47.94C150.189 50.7 150.603 54.656 150.603 59.808V63.81ZM229.769 76.92C229.769 71.952 227.193 67.03 222.041 62.154C220.845 61.142 216.107 57.692 207.827 51.804C202.767 48.124 200.237 45.088 200.237 42.696C200.237 41.684 200.651 40.902 201.479 40.35C202.215 39.706 203.227 39.384 204.515 39.384C208.103 39.384 211.185 41.04 213.761 44.352C215.693 46.652 217.763 50.47 219.971 55.806H226.457L225.215 29.31H219.143L218.453 30.414L217.901 31.518C217.349 32.346 216.797 32.76 216.245 32.76C215.601 32.668 215.095 32.484 214.727 32.208L212.243 30.966L208.517 29.724C207.045 29.448 205.435 29.31 203.687 29.31C197.431 29.31 192.141 31.334 187.817 35.382C183.677 39.338 181.607 44.536 181.607 50.976C181.607 56.312 184.137 61.326 189.197 66.018L195.959 70.986L203.273 76.368C208.057 79.956 210.449 83.314 210.449 86.442C210.449 87.914 209.943 89.018 208.931 89.754C207.919 90.49 206.815 90.858 205.619 90.858C201.847 90.858 198.489 89.11 195.545 85.614C192.601 82.21 190.485 78.07 189.197 73.194H182.297L183.677 100.932H190.301C190.853 98.54 191.405 97.344 191.957 97.344L194.165 97.758L195.407 98.31L196.925 98.862C200.145 99.874 202.261 100.426 203.273 100.518C204.561 100.794 205.757 100.932 206.861 100.932C213.301 100.932 218.729 98.586 223.145 93.894C227.561 89.294 229.769 83.636 229.769 76.92ZM227.285 76.92C227.285 82.992 225.307 88.098 221.351 92.238C217.395 96.378 212.565 98.448 206.861 98.448C205.389 98.448 204.009 98.31 202.721 98.034L198.305 96.792L194.303 95.412L192.923 94.998C192.831 94.906 192.509 94.86 191.957 94.86C191.129 94.86 190.347 95.228 189.611 95.964C188.967 96.608 188.553 97.436 188.369 98.448H185.885L184.781 75.54H187.265C188.829 80.324 191.037 84.28 193.889 87.408C197.661 91.272 201.571 93.204 205.619 93.204C207.827 93.204 209.529 92.606 210.725 91.41C212.105 90.122 212.795 88.466 212.795 86.442C212.795 82.302 210.265 78.3 205.205 74.436L191.405 64.638C186.437 60.314 183.953 55.76 183.953 50.976C183.953 45.272 185.839 40.626 189.611 37.038C193.383 33.45 198.075 31.656 203.687 31.656C205.343 31.656 206.769 31.794 207.965 32.07L211.553 33.312L213.071 34.002L214.451 34.554C215.095 34.922 215.693 35.106 216.245 35.106C217.441 35.106 218.361 34.784 219.005 34.14C219.281 33.864 219.787 33.036 220.523 31.656H223.007L223.973 53.322H221.489C219.557 48.538 217.395 44.812 215.003 42.144C211.783 38.648 208.287 36.9 204.515 36.9C202.951 36.9 201.387 37.452 199.823 38.556C198.443 39.752 197.753 41.132 197.753 42.696C197.753 45.548 200.329 48.906 205.481 52.77L213.761 59.118L219.695 63.396C224.755 67.904 227.285 72.412 227.285 76.92ZM279.266 83.544L273.332 79.404C272.136 81.888 270.894 83.866 269.606 85.338C268.502 86.718 267.398 87.408 266.294 87.408C265.006 87.408 264.224 87.086 263.948 86.442C263.672 85.706 263.534 84.648 263.534 83.268L263.672 81.336C263.764 81.244 263.81 80.784 263.81 79.956V77.472V42.696H278.852V31.242H263.81V8.19599H257.738C254.518 14.176 250.838 19.42 246.698 23.928C245.042 25.86 242.834 28.022 240.074 30.414C237.59 32.438 234.83 34.508 231.794 36.624V42.696H240.074V82.716C240.074 86.764 241.684 90.536 244.904 94.032C248.492 97.896 253 99.828 258.428 99.828C268.364 99.828 275.31 94.4 279.266 83.544ZM276.368 84.51C274.896 88.374 272.55 91.502 269.33 93.894C266.202 96.194 262.568 97.344 258.428 97.344C253.736 97.344 249.78 95.734 246.56 92.514C243.8 89.57 242.42 86.35 242.42 82.854V40.35H234.14V37.866C236.808 36.026 239.292 34.094 241.592 32.07L245.18 28.758L248.492 25.446C252.724 20.938 256.266 15.97 259.118 10.542H261.326V33.588L276.368 33.726V40.35H261.326V77.472C261.326 79.772 261.372 81.382 261.464 82.302C261.556 83.222 261.694 84.51 261.878 86.166C262.338 88.558 263.81 89.754 266.294 89.754C267.674 89.754 269.284 88.972 271.124 87.408C272.136 86.58 273.194 85.108 274.298 82.992L276.368 84.51ZM339.573 40.35C339.573 37.13 338.607 34.508 336.675 32.484C334.743 30.368 332.075 29.31 328.671 29.31C325.175 29.31 321.863 30.46 318.735 32.76C315.975 34.784 313.445 37.268 311.145 40.212V31.242H279.819V38.556C283.223 38.556 285.385 39.292 286.305 40.764C287.041 41.776 287.409 43.616 287.409 46.284V48.354V82.026C287.409 85.706 287.133 88.052 286.581 89.064C285.661 90.812 283.407 91.686 279.819 91.686V99H319.563V91.686C315.423 91.686 312.893 90.812 311.973 89.064C311.421 88.052 311.145 85.706 311.145 82.026V68.916C311.145 67.536 311.237 65.65 311.421 63.258C311.605 61.142 311.789 59.532 311.973 58.428C312.157 57.416 312.433 56.082 312.801 54.426C313.077 53.598 313.491 52.54 314.043 51.252C315.331 48.584 316.895 47.25 318.735 47.25C319.747 47.25 320.851 47.848 322.047 49.044C324.715 51.344 327.245 52.494 329.637 52.494C332.949 52.494 335.479 51.206 337.227 48.63C338.791 46.238 339.573 43.478 339.573 40.35ZM337.089 40.35C337.089 42.65 336.445 44.858 335.157 46.974C333.961 48.998 332.121 50.01 329.637 50.01C327.153 50.01 324.945 49.136 323.013 47.388C320.989 45.64 319.563 44.766 318.735 44.766C316.435 44.766 314.365 46.238 312.525 49.182C309.949 53.414 308.661 59.992 308.661 68.916V82.026L308.937 87.546C309.213 89.018 309.489 90.122 309.765 90.858C310.869 92.974 313.307 94.032 317.079 94.032V96.516H282.165V94.032C285.661 94.032 287.915 92.974 288.927 90.858C289.479 89.478 289.755 86.534 289.755 82.026V48.354C289.755 42.65 289.157 39.2 287.961 38.004C286.673 36.716 284.741 36.072 282.165 36.072V33.588H308.661V48.078L311.145 44.352C311.881 43.34 313.077 41.822 314.733 39.798L315.009 39.384C316.113 38.004 317.309 36.762 318.597 35.658C321.817 32.99 325.175 31.656 328.671 31.656C331.155 31.656 333.225 32.438 334.881 34.002C336.353 35.75 337.089 37.866 337.089 40.35ZM409.171 88.236L403.237 83.82C401.765 86.304 400.799 87.546 400.339 87.546C399.787 87.546 399.511 87.27 399.511 86.718C399.511 86.074 399.649 85.016 399.925 83.544V52.908C399.925 45.088 397.855 39.2 393.715 35.244C389.483 31.288 383.089 29.31 374.533 29.31C367.725 29.31 361.239 31.012 355.075 34.416C347.899 38.372 344.311 43.524 344.311 49.872C344.311 53.184 345.599 55.852 348.175 57.876C350.751 59.992 353.511 61.05 356.455 61.05C357.927 61.05 359.445 60.82 361.009 60.36C361.469 60.176 362.159 59.808 363.079 59.256C363.263 59.072 363.493 58.934 363.769 58.842C364.321 58.566 364.689 58.336 364.873 58.152C366.989 56.312 368.047 53.736 368.047 50.424C368.047 49.688 367.909 48.998 367.633 48.354L366.529 46.284C364.597 43.616 363.631 42.098 363.631 41.73C363.631 40.626 364.183 39.936 365.287 39.66C366.575 39.476 368.139 39.384 369.979 39.384C371.911 39.384 373.383 39.844 374.395 40.764C375.591 41.684 376.189 43.248 376.189 45.456V55.116C363.217 61.28 354.431 66.432 349.831 70.572C345.323 74.62 343.069 79.588 343.069 85.476C343.069 90.168 344.495 93.894 347.347 96.654C350.107 99.506 353.649 100.932 357.973 100.932C360.825 100.932 364.091 100.104 367.771 98.448C371.359 96.976 374.441 95.09 377.017 92.79C378.121 95.642 379.823 97.666 382.123 98.862C384.515 100.242 387.413 100.932 390.817 100.932C394.313 100.932 397.625 99.874 400.753 97.758C403.697 95.642 406.503 92.468 409.171 88.236ZM405.859 88.926C404.203 91.778 402.133 94.124 399.649 95.964C397.073 97.62 394.129 98.448 390.817 98.448C387.229 98.448 384.331 97.62 382.123 95.964C379.731 94.124 378.535 91.594 378.535 88.374C375.131 91.318 372.003 93.618 369.151 95.274C365.103 97.39 361.377 98.448 357.973 98.448C354.385 98.448 351.395 97.252 349.003 94.86C346.611 92.284 345.415 89.156 345.415 85.476C345.415 79.956 347.761 75.218 352.453 71.262C354.569 69.422 357.789 67.352 362.113 65.052C363.585 64.224 365.931 62.936 369.151 61.188C371.083 60.268 373.935 58.888 377.707 57.048L378.535 56.634V45.456C378.535 42.42 377.523 40.166 375.499 38.694C373.935 37.498 372.095 36.9 369.979 36.9C368.415 36.9 366.575 37.314 364.459 38.142C362.251 38.97 361.147 40.166 361.147 41.73C361.331 42.65 361.837 43.57 362.665 44.49C364.597 46.79 365.563 48.768 365.563 50.424C365.563 52.908 364.689 54.886 362.941 56.358C361.193 57.83 359.031 58.566 356.455 58.566C353.879 58.566 351.625 57.738 349.693 56.082C347.669 54.61 346.657 52.54 346.657 49.872C346.657 43.984 350.015 39.338 356.731 35.934C361.883 33.082 367.817 31.656 374.533 31.656C382.445 31.656 388.241 33.496 391.921 37.176C395.601 40.672 397.441 45.916 397.441 52.908V83.544C397.441 85.66 397.625 87.27 397.993 88.374C398.453 89.386 399.235 89.892 400.339 89.892C401.443 89.892 402.317 89.478 402.961 88.65L403.927 87.408L405.859 88.926ZM378.535 83.406V62.292C374.855 64.316 371.635 66.708 368.875 69.468C365.379 73.24 363.631 76.69 363.631 79.818C363.631 81.934 364.321 83.682 365.701 85.062C367.081 86.442 368.829 87.132 370.945 87.132C372.601 87.132 374.303 86.58 376.051 85.476L378.535 83.406ZM376.189 82.164C374.993 83.36 374.119 84.05 373.567 84.234C373.199 84.602 372.325 84.786 370.945 84.786C367.725 84.786 366.115 83.13 366.115 79.818C366.115 78.162 366.759 76.276 368.047 74.16C369.611 71.676 372.325 69.146 376.189 66.57V82.164ZM469.201 81.198L463.681 76.782C462.025 78.622 460.415 80.324 458.851 81.888C456.275 84.188 453.607 85.338 450.847 85.338C444.775 85.338 440.221 81.658 437.185 74.298C434.977 69.054 433.873 62.706 433.873 55.254C433.873 49.458 434.425 45.272 435.529 42.696C436.449 40.12 438.059 38.832 440.359 38.832C441.555 38.832 442.429 39.476 442.981 40.764C443.349 41.592 443.579 42.742 443.671 44.214C443.671 48.446 444.683 51.85 446.707 54.426C448.823 57.094 451.859 58.428 455.815 58.428C458.943 58.428 461.565 57.37 463.681 55.254C465.705 53.23 466.717 50.7 466.717 47.664C466.717 41.776 464.049 37.13 458.713 33.726C454.113 30.782 448.777 29.31 442.705 29.31C432.953 29.31 425.087 32.898 419.107 40.074C413.587 46.79 410.827 55.116 410.827 65.052C410.827 69.928 411.517 74.574 412.897 78.99C414.277 83.406 416.347 87.362 419.107 90.858C421.683 94.17 424.811 96.7 428.491 98.448L429.457 98.724C430.377 99.184 431.067 99.46 431.527 99.552C432.355 99.828 433.321 100.104 434.425 100.38C436.265 100.748 438.473 100.932 441.049 100.932C446.753 100.932 452.181 99.184 457.333 95.688C462.301 92.284 466.257 87.454 469.201 81.198ZM466.027 81.888C463.635 86.764 460.185 90.72 455.677 93.756C451.169 96.884 446.293 98.448 441.049 98.448C432.309 98.448 425.501 95.274 420.625 88.926C415.657 82.578 413.173 74.62 413.173 65.052C413.173 55.76 415.749 47.986 420.901 41.73C426.237 35.014 433.505 31.656 442.705 31.656C448.317 31.656 453.101 32.944 457.057 35.52C461.841 38.372 464.233 42.42 464.233 47.664C464.233 50.056 463.451 52.034 461.887 53.598C460.231 55.162 458.207 55.944 455.815 55.944C452.319 55.944 449.789 54.748 448.225 52.356C447.121 50.424 446.431 48.032 446.155 45.18C445.603 41.868 445.005 39.66 444.361 38.556C443.441 37.084 442.107 36.348 440.359 36.348C436.955 36.348 434.471 38.832 432.907 43.8C431.895 47.112 431.389 50.93 431.389 55.254C431.389 58.842 431.757 62.568 432.493 66.432C433.229 69.836 434.195 73.01 435.391 75.954C438.979 83.774 444.131 87.684 450.847 87.684C453.423 87.684 455.907 86.902 458.299 85.338C460.323 83.958 462.209 82.256 463.957 80.232L466.027 81.888ZM516.857 83.544L510.923 79.404C509.727 81.888 508.485 83.866 507.197 85.338C506.093 86.718 504.989 87.408 503.885 87.408C502.597 87.408 501.815 87.086 501.539 86.442C501.263 85.706 501.125 84.648 501.125 83.268L501.263 81.336C501.355 81.244 501.401 80.784 501.401 79.956V77.472V42.696H516.443V31.242H501.401V8.19599H495.329C492.109 14.176 488.429 19.42 484.289 23.928C482.633 25.86 480.425 28.022 477.665 30.414C475.181 32.438 472.421 34.508 469.385 36.624V42.696H477.665V82.716C477.665 86.764 479.275 90.536 482.495 94.032C486.083 97.896 490.591 99.828 496.019 99.828C505.955 99.828 512.901 94.4 516.857 83.544ZM513.959 84.51C512.487 88.374 510.141 91.502 506.921 93.894C503.793 96.194 500.159 97.344 496.019 97.344C491.327 97.344 487.371 95.734 484.151 92.514C481.391 89.57 480.011 86.35 480.011 82.854V40.35H471.731V37.866C474.399 36.026 476.883 34.094 479.183 32.07L482.771 28.758L486.083 25.446C490.315 20.938 493.857 15.97 496.709 10.542H498.917V33.588L513.959 33.726V40.35H498.917V77.472C498.917 79.772 498.963 81.382 499.055 82.302C499.147 83.222 499.285 84.51 499.469 86.166C499.929 88.558 501.401 89.754 503.885 89.754C505.265 89.754 506.875 88.972 508.715 87.408C509.727 86.58 510.785 85.108 511.889 82.992L513.959 84.51ZM546.391 87.27C546.391 83.498 545.057 80.278 542.389 77.61C539.813 75.034 536.593 73.746 532.729 73.746C528.865 73.746 525.645 75.034 523.069 77.61C520.493 80.186 519.205 83.406 519.205 87.27C519.205 91.042 520.539 94.262 523.207 96.93C525.875 99.598 529.049 100.932 532.729 100.932C536.409 100.932 539.629 99.552 542.389 96.792C545.057 93.94 546.391 90.766 546.391 87.27ZM543.907 87.27C543.907 90.398 542.803 93.066 540.595 95.274C538.203 97.39 535.581 98.448 532.729 98.448C529.601 98.448 526.979 97.344 524.863 95.136C522.655 93.02 521.551 90.398 521.551 87.27C521.551 84.142 522.655 81.474 524.863 79.266C527.163 77.15 529.785 76.092 532.729 76.092C535.857 76.092 538.525 77.15 540.733 79.266C542.849 81.474 543.907 84.142 543.907 87.27Z" fill="white"/>
</svg>
