<svg width="583" height="371" viewBox="0 0 583 371" fill="none" xmlns="http://www.w3.org/2000/svg">
<path d="M107.088 97V89.686C101.016 89.686 97.198 88.766 95.634 86.926C94.622 85.638 94.116 82.418 94.116 77.266V20.41C94.116 15.258 94.622 12.038 95.634 10.75C97.106 9.002 100.924 8.12799 107.088 8.12799V0.813996H54.372V8.12799C60.444 8.12799 64.262 9.04799 65.826 10.888C66.838 12.176 67.344 15.35 67.344 20.41V42.352H40.158V20.41C40.158 15.258 40.664 12.038 41.676 10.75C43.148 9.002 46.966 8.12799 53.13 8.12799V0.813996H0.414V8.12799C6.486 8.12799 10.304 9.04799 11.868 10.888C12.88 12.176 13.386 15.35 13.386 20.41V77.266C13.386 82.418 12.834 85.684 11.73 87.064C10.258 88.812 6.486 89.686 0.414 89.686V97H53.13V89.686C47.058 89.686 43.24 88.766 41.676 86.926C40.664 85.638 40.158 82.418 40.158 77.266V53.116H67.344V77.266C67.344 82.51 66.792 85.776 65.688 87.064C64.216 88.812 60.444 89.686 54.372 89.686V97H107.088ZM104.604 94.516H56.718V92.032C62.79 92.032 66.608 90.974 68.172 88.858C69.184 87.294 69.69 83.43 69.69 77.266V50.632H37.674V77.266C37.674 83.43 38.226 87.294 39.33 88.858C40.894 90.974 44.666 92.032 50.646 92.032V94.516H2.76V92.032C8.832 92.032 12.65 90.974 14.214 88.858C15.226 87.294 15.732 83.43 15.732 77.266V20.41C15.732 14.154 15.18 10.29 14.076 8.81799C12.512 6.70199 8.74 5.64399 2.76 5.64399V3.16H50.646V5.64399C44.574 5.64399 40.756 6.70199 39.192 8.81799C38.18 10.382 37.674 14.246 37.674 20.41V44.698H69.69V20.41C69.69 14.154 69.138 10.29 68.034 8.81799C66.47 6.70199 62.698 5.64399 56.718 5.64399V3.16H104.604V5.64399C98.532 5.64399 94.714 6.70199 93.15 8.81799C92.138 10.566 91.632 14.43 91.632 20.41V77.266C91.632 83.43 92.184 87.294 93.288 88.858C94.852 90.974 98.624 92.032 104.604 92.032V94.516ZM168.266 76.438L162.194 72.298C159.434 76.53 157.364 79.29 155.984 80.578C153.776 82.694 151.338 83.752 148.67 83.752C143.886 83.752 140.022 81.452 137.078 76.852C134.502 72.896 133.214 68.434 133.214 63.466H167.438C167.438 53.622 165.23 45.25 160.814 38.35C155.846 30.99 149.544 27.31 141.908 27.31C132.156 27.31 124.29 30.898 118.31 38.074C112.79 44.79 110.03 53.116 110.03 63.052C110.03 73.264 112.376 81.636 117.068 88.168C122.22 95.344 129.626 98.932 139.286 98.932C145.818 98.932 151.614 96.908 156.674 92.86C160.63 89.456 164.494 83.982 168.266 76.438ZM165.092 77.266C161.872 83.522 158.56 88.122 155.156 91.066C150.74 94.654 145.45 96.448 139.286 96.448C134.778 96.448 130.822 95.574 127.418 93.826C124.014 91.986 121.116 89.502 118.724 86.374C114.492 80.486 112.376 72.712 112.376 63.052C112.376 53.76 114.952 45.986 120.104 39.73C125.44 33.014 132.708 29.656 141.908 29.656C149.36 29.656 155.156 33.014 159.296 39.73C163.16 45.526 165.092 52.61 165.092 60.982H130.592L130.868 65.26L131.696 69.262C132.34 71.102 132.892 72.574 133.352 73.678C133.812 74.874 134.364 76.116 135.008 77.404C138.596 83.2 143.15 86.098 148.67 86.098C151.706 86.098 154.512 85.04 157.088 82.924C158.836 81.452 160.768 79.06 162.884 75.748L165.092 77.266ZM148.532 56.29C148.532 52.15 148.348 48.792 147.98 46.216C146.876 38.304 144.208 34.348 139.976 34.348C136.296 34.348 133.628 36.74 131.972 41.524C130.776 44.56 130.178 49.482 130.178 56.29H148.532ZM146.186 53.944H132.662C132.662 48.792 133.076 44.928 133.904 42.352C135.1 38.672 137.124 36.832 139.976 36.832C142.552 36.832 144.346 38.442 145.358 41.662C145.91 43.686 146.186 46.906 146.186 51.322V53.944ZM207.781 97V89.686C204.009 89.686 201.709 88.812 200.881 87.064C200.513 86.604 200.329 84.258 200.329 80.026V0.813996H169.003V8.12799C172.407 8.12799 174.569 8.86399 175.489 10.336C176.225 11.348 176.593 13.188 176.593 15.856V17.926V80.026C176.593 83.43 176.317 85.776 175.765 87.064C174.845 88.812 172.591 89.686 169.003 89.686V97H207.781ZM205.297 94.516H171.349V92.032C174.845 92.032 177.099 90.974 178.111 88.858C178.663 87.57 178.939 84.626 178.939 80.026V17.926C178.939 12.314 178.341 8.864 177.145 7.576C175.857 6.28799 173.925 5.64399 171.349 5.64399V3.16H197.845V80.026L198.121 85.684C198.305 87.064 198.535 88.122 198.811 88.858C199.915 90.974 202.077 92.032 205.297 92.032V94.516ZM246.189 97V89.686C242.417 89.686 240.117 88.812 239.289 87.064C238.921 86.604 238.737 84.258 238.737 80.026V0.813996H207.411V8.12799C210.815 8.12799 212.977 8.86399 213.897 10.336C214.633 11.348 215.001 13.188 215.001 15.856V17.926V80.026C215.001 83.43 214.725 85.776 214.173 87.064C213.253 88.812 210.999 89.686 207.411 89.686V97H246.189ZM243.705 94.516H209.757V92.032C213.253 92.032 215.507 90.974 216.519 88.858C217.071 87.57 217.347 84.626 217.347 80.026V17.926C217.347 12.314 216.749 8.864 215.553 7.576C214.265 6.28799 212.333 5.64399 209.757 5.64399V3.16H236.253V80.026L236.529 85.684C236.713 87.064 236.943 88.122 237.219 88.858C238.323 90.974 240.485 92.032 243.705 92.032V94.516ZM312.059 63.052C312.059 53.024 309.253 44.652 303.641 37.936C297.385 30.852 289.519 27.31 280.043 27.31C270.291 27.31 262.425 30.898 256.445 38.074C250.925 44.79 248.165 53.116 248.165 63.052C248.165 73.172 250.925 81.544 256.445 88.168C262.701 95.344 270.567 98.932 280.043 98.932C289.887 98.932 297.753 95.344 303.641 88.168C309.253 81.452 312.059 73.08 312.059 63.052ZM309.575 63.052C309.575 65.72 309.299 68.664 308.747 71.884L307.505 76.162L306.125 79.612C304.837 82.28 303.411 84.534 301.847 86.374C299.179 89.778 296.005 92.308 292.325 93.964C288.645 95.62 284.551 96.448 280.043 96.448C270.751 96.448 263.437 93.09 258.101 86.374C253.041 80.21 250.511 72.436 250.511 63.052C250.511 53.76 253.087 45.986 258.239 39.73C263.575 33.014 270.843 29.656 280.043 29.656C289.335 29.656 296.649 33.014 301.985 39.73C307.045 45.894 309.575 53.668 309.575 63.052ZM289.841 63.052C289.841 52.104 289.289 44.79 288.185 41.11C286.805 36.602 284.091 34.348 280.043 34.348C275.995 34.348 273.327 36.418 272.039 40.558C271.947 40.834 271.809 41.248 271.625 41.8C271.533 41.984 271.487 42.122 271.487 42.214C271.487 42.306 271.441 42.628 271.349 43.18C271.349 43.456 271.303 43.778 271.211 44.146L270.797 46.63V49.114C270.429 52.15 270.245 56.796 270.245 63.052C270.245 64.064 270.291 65.996 270.383 68.848L270.521 71.194C270.613 72.758 270.705 74.276 270.797 75.748V76.852C271.073 80.716 271.533 83.614 272.177 85.546C273.557 89.686 276.179 91.756 280.043 91.756C284.183 91.756 286.851 89.686 288.047 85.546C288.599 83.89 288.921 82.556 289.013 81.544C289.289 80.256 289.427 78.738 289.427 76.99C289.427 74.966 289.473 72.896 289.565 70.78C289.565 70.136 289.611 69.492 289.703 68.848C289.795 66.18 289.841 64.248 289.841 63.052ZM287.495 63.052C287.495 80.624 285.011 89.41 280.043 89.41C277.743 89.41 275.995 88.536 274.799 86.788C273.511 85.04 272.867 82.556 272.867 79.336C272.683 78.048 272.591 72.62 272.591 63.052V56.704C272.591 49.344 273.097 44.146 274.109 41.11C274.937 38.258 276.915 36.832 280.043 36.832C282.343 36.832 284.091 37.706 285.287 39.454C286.575 41.294 287.219 43.778 287.219 46.906C287.403 47.642 287.495 48.24 287.495 48.7V51.184V52.012V53.116V54.22V55.876V57.67V60.016V63.052ZM347.111 90.652C347.111 85.868 345.639 81.498 342.695 77.542C339.843 73.678 335.933 71.746 330.965 71.746C327.101 71.746 323.789 73.034 321.029 75.61C318.177 78.186 316.751 81.406 316.751 85.27C316.751 88.49 317.947 91.434 320.339 94.102C322.731 96.77 325.675 98.104 329.171 98.104C330.183 98.104 331.011 97.966 331.655 97.69L334.139 96.586C334.139 100.45 332.759 103.946 329.999 107.074C327.331 110.018 323.743 112.456 319.235 114.388V122.116C328.159 119.724 335.013 115.814 339.797 110.386C344.673 104.774 347.111 98.196 347.111 90.652ZM344.627 90.652C344.627 97.644 342.465 103.67 338.141 108.73C334.001 113.698 328.481 117.102 321.581 118.942V116.044C325.537 114.572 329.033 112.042 332.069 108.454C335.013 104.774 336.485 100.772 336.485 96.448C336.485 94.792 335.979 93.964 334.967 93.964L332.483 94.792C331.103 95.344 329.999 95.62 329.171 95.62C326.503 95.62 324.157 94.562 322.133 92.446C320.109 90.422 319.097 88.03 319.097 85.27C319.097 82.142 320.293 79.474 322.685 77.266C325.077 75.15 327.837 74.092 330.965 74.092C335.105 74.092 338.509 75.84 341.177 79.336C343.477 82.464 344.627 86.236 344.627 90.652ZM89.424 166.346V136.814H2.76V166.346H9.522C11.454 158.342 13.754 153.006 16.422 150.338C18.906 148.038 22.632 146.888 27.6 146.888H32.706V213.266C32.706 218.51 32.154 221.776 31.05 223.064C29.578 224.812 25.806 225.686 19.734 225.686V233H72.45V225.686C66.378 225.686 62.56 224.766 60.996 222.926C59.984 221.638 59.478 218.418 59.478 213.266V146.888H64.446C69.414 146.888 73.14 148.084 75.624 150.476C78.384 153.144 80.684 158.434 82.524 166.346H89.424ZM86.94 163.862H84.456C82.524 155.858 80.04 150.568 77.004 147.992C74.06 145.6 69.874 144.404 64.446 144.404H56.994V213.266C56.994 219.43 57.546 223.294 58.65 224.858C60.214 226.974 63.986 228.032 69.966 228.032V230.516H22.08V228.032C28.152 228.032 31.97 226.974 33.534 224.858C34.546 223.294 35.052 219.43 35.052 213.266V144.404H27.6C22.172 144.404 17.986 145.646 15.042 148.13C11.914 150.982 9.43 156.226 7.59 163.862H5.106V139.16H86.94V163.862ZM167.669 233V225.686C164.725 225.686 162.747 224.904 161.735 223.34C161.091 222.42 160.769 220.718 160.769 218.234V216.026V190.772C160.769 182.032 159.389 175.408 156.629 170.9C153.501 165.84 148.303 163.31 141.035 163.31C137.907 163.31 135.147 163.862 132.755 164.966L128.891 167.036C127.695 167.864 126.499 168.784 125.303 169.796V136.814H93.9769V144.128C97.3809 144.128 99.5429 144.864 100.463 146.336C101.199 147.348 101.567 149.188 101.567 151.856V153.926V216.026V218.096C101.567 220.488 101.153 222.374 100.325 223.754C99.3129 225.042 97.4269 225.686 94.6669 225.686V233H130.685V225.686C128.201 225.686 126.591 224.628 125.855 222.512C125.487 221.868 125.303 219.706 125.303 216.026V183.596C126.499 181.572 127.649 180.146 128.753 179.318C130.409 177.938 131.927 177.248 133.307 177.248C134.687 177.248 135.745 177.754 136.481 178.766C136.757 179.318 136.987 180.054 137.171 180.974V182.492V183.734C137.079 184.01 137.033 184.516 137.033 185.252V187.046V190.358V216.026C137.033 218.786 136.757 220.948 136.205 222.512C135.377 224.628 133.721 225.686 131.237 225.686V233H167.669ZM165.185 230.516H133.169V228.032C136.021 228.032 137.861 226.79 138.689 224.306C139.149 222.65 139.379 219.89 139.379 216.026V190.358C139.379 184.838 139.103 181.066 138.551 179.042C137.723 176.19 135.975 174.764 133.307 174.764C131.375 174.764 129.351 175.684 127.235 177.524C125.579 178.904 124.107 180.744 122.819 183.044V216.026C122.819 220.994 123.325 224.26 124.337 225.824C125.257 227.296 126.821 228.032 129.029 228.032V230.516H97.0129V228.032C100.141 228.032 102.165 226.79 103.085 224.306C103.637 222.65 103.913 219.89 103.913 216.026V153.926C103.913 148.222 103.315 144.772 102.119 143.576C100.831 142.288 98.8989 141.644 96.3229 141.644V139.16H122.819V175.592C125.395 172.464 128.109 170.118 130.961 168.554C134.181 166.622 137.539 165.656 141.035 165.656C147.751 165.656 152.397 168.002 154.973 172.694C157.181 176.374 158.285 182.4 158.285 190.772V216.026C158.285 220.994 158.837 224.26 159.941 225.824C160.861 227.296 162.609 228.032 165.185 228.032V230.516ZM201.157 147.44C201.157 143.852 199.915 140.816 197.431 138.332C194.763 135.94 191.727 134.744 188.323 134.744C184.827 134.744 181.837 135.986 179.353 138.47C176.869 140.954 175.627 143.944 175.627 147.44C175.627 151.12 176.869 154.156 179.353 156.548C181.837 159.032 184.827 160.274 188.323 160.274C191.911 160.274 194.947 159.032 197.431 156.548C199.915 154.064 201.157 151.028 201.157 147.44ZM198.673 147.44C198.673 150.292 197.661 152.73 195.637 154.754C193.613 156.778 191.175 157.79 188.323 157.79C185.563 157.79 183.125 156.732 181.009 154.616C178.985 152.592 177.973 150.2 177.973 147.44C177.973 144.68 179.031 142.242 181.147 140.126C183.171 138.102 185.563 137.09 188.323 137.09C191.175 137.09 193.613 138.102 195.637 140.126C197.661 142.15 198.673 144.588 198.673 147.44ZM207.781 233V225.686C204.009 225.686 201.709 224.812 200.881 223.064C200.513 222.604 200.329 220.258 200.329 216.026V165.242H169.003V172.556C172.407 172.556 174.569 173.292 175.489 174.764C176.225 175.776 176.593 177.616 176.593 180.284V182.354V216.026C176.593 219.43 176.317 221.776 175.765 223.064C174.845 224.812 172.591 225.686 169.003 225.686V233H207.781ZM205.297 230.516H171.349V228.032C174.845 228.032 177.099 226.974 178.111 224.858C178.663 223.57 178.939 220.626 178.939 216.026V182.354C178.939 176.742 178.341 173.292 177.145 172.004C175.857 170.716 173.925 170.072 171.349 170.072V167.588H197.845V216.026L198.121 221.684C198.305 223.064 198.535 224.122 198.811 224.858C199.915 226.974 202.077 228.032 205.297 228.032V230.516ZM258.609 210.92C258.609 205.952 256.033 201.03 250.881 196.154C249.685 195.142 244.947 191.692 236.667 185.804C231.607 182.124 229.077 179.088 229.077 176.696C229.077 175.684 229.491 174.902 230.319 174.35C231.055 173.706 232.067 173.384 233.355 173.384C236.943 173.384 240.025 175.04 242.601 178.352C244.533 180.652 246.603 184.47 248.811 189.806H255.297L254.055 163.31H247.983L247.293 164.414L246.741 165.518C246.189 166.346 245.637 166.76 245.085 166.76C244.441 166.668 243.935 166.484 243.567 166.208L241.083 164.966L237.357 163.724C235.885 163.448 234.275 163.31 232.527 163.31C226.271 163.31 220.981 165.334 216.657 169.382C212.517 173.338 210.447 178.536 210.447 184.976C210.447 190.312 212.977 195.326 218.037 200.018L224.799 204.986L232.113 210.368C236.897 213.956 239.289 217.314 239.289 220.442C239.289 221.914 238.783 223.018 237.771 223.754C236.759 224.49 235.655 224.858 234.459 224.858C230.687 224.858 227.329 223.11 224.385 219.614C221.441 216.21 219.325 212.07 218.037 207.194H211.137L212.517 234.932H219.141C219.693 232.54 220.245 231.344 220.797 231.344L223.005 231.758L224.247 232.31L225.765 232.862C228.985 233.874 231.101 234.426 232.113 234.518C233.401 234.794 234.597 234.932 235.701 234.932C242.141 234.932 247.569 232.586 251.985 227.894C256.401 223.294 258.609 217.636 258.609 210.92ZM256.125 210.92C256.125 216.992 254.147 222.098 250.191 226.238C246.235 230.378 241.405 232.448 235.701 232.448C234.229 232.448 232.849 232.31 231.561 232.034L227.145 230.792L223.143 229.412L221.763 228.998C221.671 228.906 221.349 228.86 220.797 228.86C219.969 228.86 219.187 229.228 218.451 229.964C217.807 230.608 217.393 231.436 217.209 232.448H214.725L213.621 209.54H216.105C217.669 214.324 219.877 218.28 222.729 221.408C226.501 225.272 230.411 227.204 234.459 227.204C236.667 227.204 238.369 226.606 239.565 225.41C240.945 224.122 241.635 222.466 241.635 220.442C241.635 216.302 239.105 212.3 234.045 208.436L220.245 198.638C215.277 194.314 212.793 189.76 212.793 184.976C212.793 179.272 214.679 174.626 218.451 171.038C222.223 167.45 226.915 165.656 232.527 165.656C234.183 165.656 235.609 165.794 236.805 166.07L240.393 167.312L241.911 168.002L243.291 168.554C243.935 168.922 244.533 169.106 245.085 169.106C246.281 169.106 247.201 168.784 247.845 168.14C248.121 167.864 248.627 167.036 249.363 165.656H251.847L252.813 187.322H250.329C248.397 182.538 246.235 178.812 243.843 176.144C240.623 172.648 237.127 170.9 233.355 170.9C231.791 170.9 230.227 171.452 228.663 172.556C227.283 173.752 226.593 175.132 226.593 176.696C226.593 179.548 229.169 182.906 234.321 186.77L242.601 193.118L248.535 197.396C253.595 201.904 256.125 206.412 256.125 210.92ZM339.157 147.44C339.157 143.852 337.915 140.816 335.431 138.332C332.763 135.94 329.727 134.744 326.323 134.744C322.827 134.744 319.837 135.986 317.353 138.47C314.869 140.954 313.627 143.944 313.627 147.44C313.627 151.12 314.869 154.156 317.353 156.548C319.837 159.032 322.827 160.274 326.323 160.274C329.911 160.274 332.947 159.032 335.431 156.548C337.915 154.064 339.157 151.028 339.157 147.44ZM336.673 147.44C336.673 150.292 335.661 152.73 333.637 154.754C331.613 156.778 329.175 157.79 326.323 157.79C323.563 157.79 321.125 156.732 319.009 154.616C316.985 152.592 315.973 150.2 315.973 147.44C315.973 144.68 317.031 142.242 319.147 140.126C321.171 138.102 323.563 137.09 326.323 137.09C329.175 137.09 331.613 138.102 333.637 140.126C335.661 142.15 336.673 144.588 336.673 147.44ZM345.781 233V225.686C342.009 225.686 339.709 224.812 338.881 223.064C338.513 222.604 338.329 220.258 338.329 216.026V165.242H307.003V172.556C310.407 172.556 312.569 173.292 313.489 174.764C314.225 175.776 314.593 177.616 314.593 180.284V182.354V216.026C314.593 219.43 314.317 221.776 313.765 223.064C312.845 224.812 310.591 225.686 307.003 225.686V233H345.781ZM343.297 230.516H309.349V228.032C312.845 228.032 315.099 226.974 316.111 224.858C316.663 223.57 316.939 220.626 316.939 216.026V182.354C316.939 176.742 316.341 173.292 315.145 172.004C313.857 170.716 311.925 170.072 309.349 170.072V167.588H335.845V216.026L336.121 221.684C336.305 223.064 336.535 224.122 336.811 224.858C337.915 226.974 340.077 228.032 343.297 228.032V230.516ZM396.609 210.92C396.609 205.952 394.033 201.03 388.881 196.154C387.685 195.142 382.947 191.692 374.667 185.804C369.607 182.124 367.077 179.088 367.077 176.696C367.077 175.684 367.491 174.902 368.319 174.35C369.055 173.706 370.067 173.384 371.355 173.384C374.943 173.384 378.025 175.04 380.601 178.352C382.533 180.652 384.603 184.47 386.811 189.806H393.297L392.055 163.31H385.983L385.293 164.414L384.741 165.518C384.189 166.346 383.637 166.76 383.085 166.76C382.441 166.668 381.935 166.484 381.567 166.208L379.083 164.966L375.357 163.724C373.885 163.448 372.275 163.31 370.527 163.31C364.271 163.31 358.981 165.334 354.657 169.382C350.517 173.338 348.447 178.536 348.447 184.976C348.447 190.312 350.977 195.326 356.037 200.018L362.799 204.986L370.113 210.368C374.897 213.956 377.289 217.314 377.289 220.442C377.289 221.914 376.783 223.018 375.771 223.754C374.759 224.49 373.655 224.858 372.459 224.858C368.687 224.858 365.329 223.11 362.385 219.614C359.441 216.21 357.325 212.07 356.037 207.194H349.137L350.517 234.932H357.141C357.693 232.54 358.245 231.344 358.797 231.344L361.005 231.758L362.247 232.31L363.765 232.862C366.985 233.874 369.101 234.426 370.113 234.518C371.401 234.794 372.597 234.932 373.701 234.932C380.141 234.932 385.569 232.586 389.985 227.894C394.401 223.294 396.609 217.636 396.609 210.92ZM394.125 210.92C394.125 216.992 392.147 222.098 388.191 226.238C384.235 230.378 379.405 232.448 373.701 232.448C372.229 232.448 370.849 232.31 369.561 232.034L365.145 230.792L361.143 229.412L359.763 228.998C359.671 228.906 359.349 228.86 358.797 228.86C357.969 228.86 357.187 229.228 356.451 229.964C355.807 230.608 355.393 231.436 355.209 232.448H352.725L351.621 209.54H354.105C355.669 214.324 357.877 218.28 360.729 221.408C364.501 225.272 368.411 227.204 372.459 227.204C374.667 227.204 376.369 226.606 377.565 225.41C378.945 224.122 379.635 222.466 379.635 220.442C379.635 216.302 377.105 212.3 372.045 208.436L358.245 198.638C353.277 194.314 350.793 189.76 350.793 184.976C350.793 179.272 352.679 174.626 356.451 171.038C360.223 167.45 364.915 165.656 370.527 165.656C372.183 165.656 373.609 165.794 374.805 166.07L378.393 167.312L379.911 168.002L381.291 168.554C381.935 168.922 382.533 169.106 383.085 169.106C384.281 169.106 385.201 168.784 385.845 168.14C386.121 167.864 386.627 167.036 387.363 165.656H389.847L390.813 187.322H388.329C386.397 182.538 384.235 178.812 381.843 176.144C378.623 172.648 375.127 170.9 371.355 170.9C369.791 170.9 368.227 171.452 366.663 172.556C365.283 173.752 364.593 175.132 364.593 176.696C364.593 179.548 367.169 182.906 372.321 186.77L380.601 193.118L386.535 197.396C391.595 201.904 394.125 206.412 394.125 210.92ZM89.424 302.346V272.814H2.76V302.346H9.522C11.454 294.342 13.754 289.006 16.422 286.338C18.906 284.038 22.632 282.888 27.6 282.888H32.706V349.266C32.706 354.51 32.154 357.776 31.05 359.064C29.578 360.812 25.806 361.686 19.734 361.686V369H72.45V361.686C66.378 361.686 62.56 360.766 60.996 358.926C59.984 357.638 59.478 354.418 59.478 349.266V282.888H64.446C69.414 282.888 73.14 284.084 75.624 286.476C78.384 289.144 80.684 294.434 82.524 302.346H89.424ZM86.94 299.862H84.456C82.524 291.858 80.04 286.568 77.004 283.992C74.06 281.6 69.874 280.404 64.446 280.404H56.994V349.266C56.994 355.43 57.546 359.294 58.65 360.858C60.214 362.974 63.986 364.032 69.966 364.032V366.516H22.08V364.032C28.152 364.032 31.97 362.974 33.534 360.858C34.546 359.294 35.052 355.43 35.052 349.266V280.404H27.6C22.172 280.404 17.986 281.646 15.042 284.13C11.914 286.982 9.43 292.226 7.59 299.862H5.106V275.16H86.94V299.862ZM162.011 358.236L156.077 353.82C154.605 356.304 153.639 357.546 153.179 357.546C152.627 357.546 152.351 357.27 152.351 356.718C152.351 356.074 152.489 355.016 152.765 353.544V322.908C152.765 315.088 150.695 309.2 146.555 305.244C142.323 301.288 135.929 299.31 127.373 299.31C120.565 299.31 114.079 301.012 107.915 304.416C100.739 308.372 97.1509 313.524 97.1509 319.872C97.1509 323.184 98.4389 325.852 101.015 327.876C103.591 329.992 106.351 331.05 109.295 331.05C110.767 331.05 112.285 330.82 113.849 330.36C114.309 330.176 114.999 329.808 115.919 329.256C116.103 329.072 116.333 328.934 116.609 328.842C117.161 328.566 117.529 328.336 117.713 328.152C119.829 326.312 120.887 323.736 120.887 320.424C120.887 319.688 120.749 318.998 120.473 318.354L119.369 316.284C117.437 313.616 116.471 312.098 116.471 311.73C116.471 310.626 117.023 309.936 118.127 309.66C119.415 309.476 120.979 309.384 122.819 309.384C124.751 309.384 126.223 309.844 127.235 310.764C128.431 311.684 129.029 313.248 129.029 315.456V325.116C116.057 331.28 107.271 336.432 102.671 340.572C98.1629 344.62 95.9089 349.588 95.9089 355.476C95.9089 360.168 97.3349 363.894 100.187 366.654C102.947 369.506 106.489 370.932 110.813 370.932C113.665 370.932 116.931 370.104 120.611 368.448C124.199 366.976 127.281 365.09 129.857 362.79C130.961 365.642 132.663 367.666 134.963 368.862C137.355 370.242 140.253 370.932 143.657 370.932C147.153 370.932 150.465 369.874 153.593 367.758C156.537 365.642 159.343 362.468 162.011 358.236ZM158.699 358.926C157.043 361.778 154.973 364.124 152.489 365.964C149.913 367.62 146.969 368.448 143.657 368.448C140.069 368.448 137.171 367.62 134.963 365.964C132.571 364.124 131.375 361.594 131.375 358.374C127.971 361.318 124.843 363.618 121.991 365.274C117.943 367.39 114.217 368.448 110.813 368.448C107.225 368.448 104.235 367.252 101.843 364.86C99.4509 362.284 98.2549 359.156 98.2549 355.476C98.2549 349.956 100.601 345.218 105.293 341.262C107.409 339.422 110.629 337.352 114.953 335.052C116.425 334.224 118.771 332.936 121.991 331.188C123.923 330.268 126.775 328.888 130.547 327.048L131.375 326.634V315.456C131.375 312.42 130.363 310.166 128.339 308.694C126.775 307.498 124.935 306.9 122.819 306.9C121.255 306.9 119.415 307.314 117.299 308.142C115.091 308.97 113.987 310.166 113.987 311.73C114.171 312.65 114.677 313.57 115.505 314.49C117.437 316.79 118.403 318.768 118.403 320.424C118.403 322.908 117.529 324.886 115.781 326.358C114.033 327.83 111.871 328.566 109.295 328.566C106.719 328.566 104.465 327.738 102.533 326.082C100.509 324.61 99.4969 322.54 99.4969 319.872C99.4969 313.984 102.855 309.338 109.571 305.934C114.723 303.082 120.657 301.656 127.373 301.656C135.285 301.656 141.081 303.496 144.761 307.176C148.441 310.672 150.281 315.916 150.281 322.908V353.544C150.281 355.66 150.465 357.27 150.833 358.374C151.293 359.386 152.075 359.892 153.179 359.892C154.283 359.892 155.157 359.478 155.801 358.65L156.767 357.408L158.699 358.926ZM131.375 353.406V332.292C127.695 334.316 124.475 336.708 121.715 339.468C118.219 343.24 116.471 346.69 116.471 349.818C116.471 351.934 117.161 353.682 118.541 355.062C119.921 356.442 121.669 357.132 123.785 357.132C125.441 357.132 127.143 356.58 128.891 355.476L131.375 353.406ZM129.029 352.164C127.833 353.36 126.959 354.05 126.407 354.234C126.039 354.602 125.165 354.786 123.785 354.786C120.565 354.786 118.955 353.13 118.955 349.818C118.955 348.162 119.599 346.276 120.887 344.16C122.451 341.676 125.165 339.146 129.029 336.57V352.164ZM236.669 369V361.686C233.725 361.686 231.747 360.904 230.735 359.34C230.091 358.42 229.769 356.718 229.769 354.234V352.026V326.772C229.769 318.032 228.389 311.408 225.629 306.9C222.501 301.84 217.303 299.31 210.035 299.31C206.907 299.31 204.147 299.862 201.755 300.966L197.891 303.036C196.695 303.864 195.499 304.784 194.303 305.796V301.242H162.977V308.556C166.381 308.556 168.543 309.292 169.463 310.764C170.199 311.776 170.567 313.616 170.567 316.284V318.354V352.026V354.096C170.567 356.488 170.153 358.374 169.325 359.754C168.313 361.042 166.427 361.686 163.667 361.686V369H199.823V361.548C197.155 361.548 195.453 360.49 194.717 358.374C194.441 357.362 194.303 355.246 194.303 352.026V319.596C195.499 317.572 196.649 316.146 197.753 315.318C199.409 313.938 200.927 313.248 202.307 313.248C203.687 313.248 204.745 313.754 205.481 314.766C205.757 315.318 205.987 316.054 206.171 316.974V318.492V319.734C206.079 320.01 206.033 320.516 206.033 321.252V323.046V326.358V352.026C206.033 355.798 205.527 358.328 204.515 359.616C203.503 360.904 202.123 361.548 200.375 361.548V369H236.669ZM234.185 366.516H202.169V364.032C205.021 364.032 206.861 362.79 207.689 360.306C208.149 358.65 208.379 355.89 208.379 352.026V326.358C208.379 320.838 208.103 317.066 207.551 315.042C206.723 312.19 204.975 310.764 202.307 310.764C200.375 310.764 198.351 311.684 196.235 313.524C194.579 314.904 193.107 316.744 191.819 319.044V352.026C191.819 356.994 192.325 360.26 193.337 361.824C194.257 363.296 195.821 364.032 198.029 364.032V366.516H166.013V364.032C169.141 364.032 171.165 362.79 172.085 360.306C172.637 358.65 172.913 355.89 172.913 352.026V318.354C172.913 312.65 172.315 309.2 171.119 308.004C169.831 306.716 167.899 306.072 165.323 306.072V303.588H191.819V311.592C194.395 308.464 197.109 306.118 199.961 304.554C203.181 302.622 206.539 301.656 210.035 301.656C216.751 301.656 221.397 304.002 223.973 308.694C226.181 312.374 227.285 318.4 227.285 326.772V352.026C227.285 356.994 227.837 360.26 228.941 361.824C229.861 363.296 231.609 364.032 234.185 364.032V366.516ZM351.577 369V361.686C348.633 361.686 346.655 360.904 345.643 359.34C344.999 358.42 344.677 356.718 344.677 354.234V352.026V326.772C344.677 318.032 343.297 311.408 340.537 306.9C337.409 301.84 332.211 299.31 324.943 299.31C321.355 299.31 317.813 300.138 314.317 301.794C311.097 303.358 308.015 305.658 305.071 308.694C301.299 302.438 295.549 299.31 287.821 299.31C284.785 299.31 281.795 299.862 278.851 300.966C275.539 302.346 272.917 303.91 270.985 305.658V301.242H239.659V308.556C243.063 308.556 245.225 309.292 246.145 310.764C246.881 311.776 247.249 313.616 247.249 316.284V318.354V352.026V354.096C247.249 356.488 246.835 358.374 246.007 359.754C244.995 361.042 243.109 361.686 240.349 361.686V369H277.195V361.686C274.343 361.686 272.503 360.628 271.675 358.512C271.215 357.132 270.985 354.97 270.985 352.026V319.596C271.445 318.768 272.457 317.572 274.021 316.008C276.045 313.984 278.161 312.972 280.369 312.972C281.933 312.972 282.991 313.524 283.543 314.628C283.727 315.272 283.865 315.64 283.957 315.732C283.957 316.1 284.003 316.422 284.095 316.698C284.095 317.158 284.141 317.526 284.233 317.802V318.63V319.734C284.141 320.01 284.095 320.516 284.095 321.252V323.046V326.358V352.026C284.095 355.89 283.543 358.466 282.439 359.754C281.151 361.042 279.541 361.686 277.609 361.686V369H314.179V361.686C311.511 361.686 309.671 360.628 308.659 358.512C308.107 357.224 307.831 355.062 307.831 352.026V319.596C308.383 318.768 308.981 318.032 309.625 317.388C309.993 316.928 310.407 316.468 310.867 316.008C312.891 313.984 315.007 312.972 317.215 312.972C318.779 312.972 319.837 313.524 320.389 314.628C320.665 315.18 320.803 315.548 320.803 315.732C320.895 315.916 320.941 316.238 320.941 316.698C320.941 317.158 320.987 317.526 321.079 317.802V318.63V319.734C320.987 320.01 320.941 320.516 320.941 321.252V323.046V326.358V352.026C320.941 355.062 320.665 357.224 320.113 358.512C319.009 360.628 317.215 361.686 314.731 361.686V369H351.577ZM349.093 366.516H316.387V364.032C319.515 364.032 321.539 362.79 322.459 360.306C323.011 358.742 323.287 355.982 323.287 352.026V326.358C323.287 321.114 323.011 317.342 322.459 315.042C321.539 312.006 319.791 310.488 317.215 310.488C314.915 310.488 312.615 311.408 310.315 313.248C308.659 314.904 307.049 316.836 305.485 319.044V352.026C305.485 356.994 305.991 360.26 307.003 361.824C308.107 363.296 309.855 364.032 312.247 364.032V366.516H279.541V364.032C282.669 364.032 284.693 362.79 285.613 360.306C286.165 358.65 286.441 355.89 286.441 352.026V326.358C286.441 320.838 286.165 317.066 285.613 315.042C284.785 312.006 283.037 310.488 280.369 310.488C278.069 310.488 275.769 311.408 273.469 313.248C271.813 314.72 270.157 316.652 268.501 319.044V352.026C268.501 356.994 269.053 360.26 270.157 361.824C271.261 363.296 273.009 364.032 275.401 364.032V366.516H242.695V364.032C245.823 364.032 247.847 362.79 248.767 360.306C249.319 358.65 249.595 355.89 249.595 352.026V318.354C249.595 312.65 248.997 309.2 247.801 308.004C246.513 306.716 244.581 306.072 242.005 306.072V303.588H268.501V311.592C271.721 308.096 274.573 305.704 277.057 304.416C280.277 302.576 283.865 301.656 287.821 301.656C291.869 301.656 295.319 302.622 298.171 304.554C301.023 306.578 303.047 309.43 304.243 313.11C307.095 309.522 310.131 306.808 313.351 304.968C317.123 302.76 320.987 301.656 324.943 301.656C331.659 301.656 336.305 304.002 338.881 308.694C341.089 312.374 342.193 318.4 342.193 326.772V352.026C342.193 356.718 342.745 359.984 343.849 361.824C344.769 363.296 346.517 364.032 349.093 364.032V366.516ZM413.54 348.438L407.468 344.298C404.708 348.53 402.638 351.29 401.258 352.578C399.05 354.694 396.612 355.752 393.944 355.752C389.16 355.752 385.296 353.452 382.352 348.852C379.776 344.896 378.488 340.434 378.488 335.466H412.712C412.712 325.622 410.504 317.25 406.088 310.35C401.12 302.99 394.818 299.31 387.182 299.31C377.43 299.31 369.564 302.898 363.584 310.074C358.064 316.79 355.304 325.116 355.304 335.052C355.304 345.264 357.65 353.636 362.342 360.168C367.494 367.344 374.9 370.932 384.56 370.932C391.092 370.932 396.888 368.908 401.948 364.86C405.904 361.456 409.768 355.982 413.54 348.438ZM410.366 349.266C407.146 355.522 403.834 360.122 400.43 363.066C396.014 366.654 390.724 368.448 384.56 368.448C380.052 368.448 376.096 367.574 372.692 365.826C369.288 363.986 366.39 361.502 363.998 358.374C359.766 352.486 357.65 344.712 357.65 335.052C357.65 325.76 360.226 317.986 365.378 311.73C370.714 305.014 377.982 301.656 387.182 301.656C394.634 301.656 400.43 305.014 404.57 311.73C408.434 317.526 410.366 324.61 410.366 332.982H375.866L376.142 337.26L376.97 341.262C377.614 343.102 378.166 344.574 378.626 345.678C379.086 346.874 379.638 348.116 380.282 349.404C383.87 355.2 388.424 358.098 393.944 358.098C396.98 358.098 399.786 357.04 402.362 354.924C404.11 353.452 406.042 351.06 408.158 347.748L410.366 349.266ZM393.806 328.29C393.806 324.15 393.622 320.792 393.254 318.216C392.15 310.304 389.482 306.348 385.25 306.348C381.57 306.348 378.902 308.74 377.246 313.524C376.05 316.56 375.452 321.482 375.452 328.29H393.806ZM391.46 325.944H377.936C377.936 320.792 378.35 316.928 379.178 314.352C380.374 310.672 382.398 308.832 385.25 308.832C387.826 308.832 389.62 310.442 390.632 313.662C391.184 315.686 391.46 318.906 391.46 323.322V325.944ZM474.858 348.438L468.786 344.298C466.026 348.53 463.956 351.29 462.576 352.578C460.368 354.694 457.93 355.752 455.262 355.752C450.478 355.752 446.614 353.452 443.67 348.852C441.094 344.896 439.806 340.434 439.806 335.466H474.03C474.03 325.622 471.822 317.25 467.406 310.35C462.438 302.99 456.136 299.31 448.5 299.31C438.748 299.31 430.882 302.898 424.902 310.074C419.382 316.79 416.622 325.116 416.622 335.052C416.622 345.264 418.968 353.636 423.66 360.168C428.812 367.344 436.218 370.932 445.878 370.932C452.41 370.932 458.206 368.908 463.266 364.86C467.222 361.456 471.086 355.982 474.858 348.438ZM471.684 349.266C468.464 355.522 465.152 360.122 461.748 363.066C457.332 366.654 452.042 368.448 445.878 368.448C441.37 368.448 437.414 367.574 434.01 365.826C430.606 363.986 427.708 361.502 425.316 358.374C421.084 352.486 418.968 344.712 418.968 335.052C418.968 325.76 421.544 317.986 426.696 311.73C432.032 305.014 439.3 301.656 448.5 301.656C455.952 301.656 461.748 305.014 465.888 311.73C469.752 317.526 471.684 324.61 471.684 332.982H437.184L437.46 337.26L438.288 341.262C438.932 343.102 439.484 344.574 439.944 345.678C440.404 346.874 440.956 348.116 441.6 349.404C445.188 355.2 449.742 358.098 455.262 358.098C458.298 358.098 461.104 357.04 463.68 354.924C465.428 353.452 467.36 351.06 469.476 347.748L471.684 349.266ZM455.124 328.29C455.124 324.15 454.94 320.792 454.572 318.216C453.468 310.304 450.8 306.348 446.568 306.348C442.888 306.348 440.22 308.74 438.564 313.524C437.368 316.56 436.77 321.482 436.77 328.29H455.124ZM452.778 325.944H439.254C439.254 320.792 439.668 316.928 440.496 314.352C441.692 310.672 443.716 308.832 446.568 308.832C449.144 308.832 450.938 310.442 451.95 313.662C452.502 315.686 452.778 318.906 452.778 323.322V325.944ZM550.942 369V361.686C547.998 361.686 546.02 360.904 545.008 359.34C544.364 358.42 544.042 356.718 544.042 354.234V352.026V326.772C544.042 318.032 542.662 311.408 539.902 306.9C536.774 301.84 531.576 299.31 524.308 299.31C521.18 299.31 518.42 299.862 516.028 300.966L512.164 303.036C510.968 303.864 509.772 304.784 508.576 305.796V301.242H477.25V308.556C480.654 308.556 482.816 309.292 483.736 310.764C484.472 311.776 484.84 313.616 484.84 316.284V318.354V352.026V354.096C484.84 356.488 484.426 358.374 483.598 359.754C482.586 361.042 480.7 361.686 477.94 361.686V369H514.096V361.548C511.428 361.548 509.726 360.49 508.99 358.374C508.714 357.362 508.576 355.246 508.576 352.026V319.596C509.772 317.572 510.922 316.146 512.026 315.318C513.682 313.938 515.2 313.248 516.58 313.248C517.96 313.248 519.018 313.754 519.754 314.766C520.03 315.318 520.26 316.054 520.444 316.974V318.492V319.734C520.352 320.01 520.306 320.516 520.306 321.252V323.046V326.358V352.026C520.306 355.798 519.8 358.328 518.788 359.616C517.776 360.904 516.396 361.548 514.648 361.548V369H550.942ZM548.458 366.516H516.442V364.032C519.294 364.032 521.134 362.79 521.962 360.306C522.422 358.65 522.652 355.89 522.652 352.026V326.358C522.652 320.838 522.376 317.066 521.824 315.042C520.996 312.19 519.248 310.764 516.58 310.764C514.648 310.764 512.624 311.684 510.508 313.524C508.852 314.904 507.38 316.744 506.092 319.044V352.026C506.092 356.994 506.598 360.26 507.61 361.824C508.53 363.296 510.094 364.032 512.302 364.032V366.516H480.286V364.032C483.414 364.032 485.438 362.79 486.358 360.306C486.91 358.65 487.186 355.89 487.186 352.026V318.354C487.186 312.65 486.588 309.2 485.392 308.004C484.104 306.716 482.172 306.072 479.596 306.072V303.588H506.092V311.592C508.668 308.464 511.382 306.118 514.234 304.554C517.454 302.622 520.812 301.656 524.308 301.656C531.024 301.656 535.67 304.002 538.246 308.694C540.454 312.374 541.558 318.4 541.558 326.772V352.026C541.558 356.994 542.11 360.26 543.214 361.824C544.134 363.296 545.882 364.032 548.458 364.032V366.516ZM582.912 357.27C582.912 353.498 581.578 350.278 578.91 347.61C576.334 345.034 573.114 343.746 569.25 343.746C565.386 343.746 562.166 345.034 559.59 347.61C557.014 350.186 555.726 353.406 555.726 357.27C555.726 361.042 557.06 364.262 559.728 366.93C562.396 369.598 565.57 370.932 569.25 370.932C572.93 370.932 576.15 369.552 578.91 366.792C581.578 363.94 582.912 360.766 582.912 357.27ZM580.428 357.27C580.428 360.398 579.324 363.066 577.116 365.274C574.724 367.39 572.102 368.448 569.25 368.448C566.122 368.448 563.5 367.344 561.384 365.136C559.176 363.02 558.072 360.398 558.072 357.27C558.072 354.142 559.176 351.474 561.384 349.266C563.684 347.15 566.306 346.092 569.25 346.092C572.378 346.092 575.046 347.15 577.254 349.266C579.37 351.474 580.428 354.142 580.428 357.27Z" fill="#DADADA"/>
</svg>
