<svg width="1028" height="235" viewBox="0 0 1028 235" fill="none" xmlns="http://www.w3.org/2000/svg">
<path d="M107.088 97V89.686C101.016 89.686 97.198 88.766 95.634 86.926C94.622 85.638 94.116 82.418 94.116 77.266V20.41C94.116 15.258 94.622 12.038 95.634 10.75C97.106 9.002 100.924 8.12799 107.088 8.12799V0.813996H54.372V8.12799C60.444 8.12799 64.262 9.04799 65.826 10.888C66.838 12.176 67.344 15.35 67.344 20.41V42.352H40.158V20.41C40.158 15.258 40.664 12.038 41.676 10.75C43.148 9.002 46.966 8.12799 53.13 8.12799V0.813996H0.414V8.12799C6.486 8.12799 10.304 9.04799 11.868 10.888C12.88 12.176 13.386 15.35 13.386 20.41V77.266C13.386 82.418 12.834 85.684 11.73 87.064C10.258 88.812 6.486 89.686 0.414 89.686V97H53.13V89.686C47.058 89.686 43.24 88.766 41.676 86.926C40.664 85.638 40.158 82.418 40.158 77.266V53.116H67.344V77.266C67.344 82.51 66.792 85.776 65.688 87.064C64.216 88.812 60.444 89.686 54.372 89.686V97H107.088ZM104.604 94.516H56.718V92.032C62.79 92.032 66.608 90.974 68.172 88.858C69.184 87.294 69.69 83.43 69.69 77.266V50.632H37.674V77.266C37.674 83.43 38.226 87.294 39.33 88.858C40.894 90.974 44.666 92.032 50.646 92.032V94.516H2.76V92.032C8.832 92.032 12.65 90.974 14.214 88.858C15.226 87.294 15.732 83.43 15.732 77.266V20.41C15.732 14.154 15.18 10.29 14.076 8.81799C12.512 6.70199 8.74 5.64399 2.76 5.64399V3.16H50.646V5.64399C44.574 5.64399 40.756 6.70199 39.192 8.81799C38.18 10.382 37.674 14.246 37.674 20.41V44.698H69.69V20.41C69.69 14.154 69.138 10.29 68.034 8.81799C66.47 6.70199 62.698 5.64399 56.718 5.64399V3.16H104.604V5.64399C98.532 5.64399 94.714 6.70199 93.15 8.81799C92.138 10.566 91.632 14.43 91.632 20.41V77.266C91.632 83.43 92.184 87.294 93.288 88.858C94.852 90.974 98.624 92.032 104.604 92.032V94.516ZM168.266 76.438L162.194 72.298C159.434 76.53 157.364 79.29 155.984 80.578C153.776 82.694 151.338 83.752 148.67 83.752C143.886 83.752 140.022 81.452 137.078 76.852C134.502 72.896 133.214 68.434 133.214 63.466H167.438C167.438 53.622 165.23 45.25 160.814 38.35C155.846 30.99 149.544 27.31 141.908 27.31C132.156 27.31 124.29 30.898 118.31 38.074C112.79 44.79 110.03 53.116 110.03 63.052C110.03 73.264 112.376 81.636 117.068 88.168C122.22 95.344 129.626 98.932 139.286 98.932C145.818 98.932 151.614 96.908 156.674 92.86C160.63 89.456 164.494 83.982 168.266 76.438ZM165.092 77.266C161.872 83.522 158.56 88.122 155.156 91.066C150.74 94.654 145.45 96.448 139.286 96.448C134.778 96.448 130.822 95.574 127.418 93.826C124.014 91.986 121.116 89.502 118.724 86.374C114.492 80.486 112.376 72.712 112.376 63.052C112.376 53.76 114.952 45.986 120.104 39.73C125.44 33.014 132.708 29.656 141.908 29.656C149.36 29.656 155.156 33.014 159.296 39.73C163.16 45.526 165.092 52.61 165.092 60.982H130.592L130.868 65.26L131.696 69.262C132.34 71.102 132.892 72.574 133.352 73.678C133.812 74.874 134.364 76.116 135.008 77.404C138.596 83.2 143.15 86.098 148.67 86.098C151.706 86.098 154.512 85.04 157.088 82.924C158.836 81.452 160.768 79.06 162.884 75.748L165.092 77.266ZM148.532 56.29C148.532 52.15 148.348 48.792 147.98 46.216C146.876 38.304 144.208 34.348 139.976 34.348C136.296 34.348 133.628 36.74 131.972 41.524C130.776 44.56 130.178 49.482 130.178 56.29H148.532ZM146.186 53.944H132.662C132.662 48.792 133.076 44.928 133.904 42.352C135.1 38.672 137.124 36.832 139.976 36.832C142.552 36.832 144.346 38.442 145.358 41.662C145.91 43.686 146.186 46.906 146.186 51.322V53.944ZM207.781 97V89.686C204.009 89.686 201.709 88.812 200.881 87.064C200.513 86.604 200.329 84.258 200.329 80.026V0.813996H169.003V8.12799C172.407 8.12799 174.569 8.86399 175.489 10.336C176.225 11.348 176.593 13.188 176.593 15.856V17.926V80.026C176.593 83.43 176.317 85.776 175.765 87.064C174.845 88.812 172.591 89.686 169.003 89.686V97H207.781ZM205.297 94.516H171.349V92.032C174.845 92.032 177.099 90.974 178.111 88.858C178.663 87.57 178.939 84.626 178.939 80.026V17.926C178.939 12.314 178.341 8.864 177.145 7.576C175.857 6.28799 173.925 5.64399 171.349 5.64399V3.16H197.845V80.026L198.121 85.684C198.305 87.064 198.535 88.122 198.811 88.858C199.915 90.974 202.077 92.032 205.297 92.032V94.516ZM246.189 97V89.686C242.417 89.686 240.117 88.812 239.289 87.064C238.921 86.604 238.737 84.258 238.737 80.026V0.813996H207.411V8.12799C210.815 8.12799 212.977 8.86399 213.897 10.336C214.633 11.348 215.001 13.188 215.001 15.856V17.926V80.026C215.001 83.43 214.725 85.776 214.173 87.064C213.253 88.812 210.999 89.686 207.411 89.686V97H246.189ZM243.705 94.516H209.757V92.032C213.253 92.032 215.507 90.974 216.519 88.858C217.071 87.57 217.347 84.626 217.347 80.026V17.926C217.347 12.314 216.749 8.864 215.553 7.576C214.265 6.28799 212.333 5.64399 209.757 5.64399V3.16H236.253V80.026L236.529 85.684C236.713 87.064 236.943 88.122 237.219 88.858C238.323 90.974 240.485 92.032 243.705 92.032V94.516ZM312.059 63.052C312.059 53.024 309.253 44.652 303.641 37.936C297.385 30.852 289.519 27.31 280.043 27.31C270.291 27.31 262.425 30.898 256.445 38.074C250.925 44.79 248.165 53.116 248.165 63.052C248.165 73.172 250.925 81.544 256.445 88.168C262.701 95.344 270.567 98.932 280.043 98.932C289.887 98.932 297.753 95.344 303.641 88.168C309.253 81.452 312.059 73.08 312.059 63.052ZM309.575 63.052C309.575 65.72 309.299 68.664 308.747 71.884L307.505 76.162L306.125 79.612C304.837 82.28 303.411 84.534 301.847 86.374C299.179 89.778 296.005 92.308 292.325 93.964C288.645 95.62 284.551 96.448 280.043 96.448C270.751 96.448 263.437 93.09 258.101 86.374C253.041 80.21 250.511 72.436 250.511 63.052C250.511 53.76 253.087 45.986 258.239 39.73C263.575 33.014 270.843 29.656 280.043 29.656C289.335 29.656 296.649 33.014 301.985 39.73C307.045 45.894 309.575 53.668 309.575 63.052ZM289.841 63.052C289.841 52.104 289.289 44.79 288.185 41.11C286.805 36.602 284.091 34.348 280.043 34.348C275.995 34.348 273.327 36.418 272.039 40.558C271.947 40.834 271.809 41.248 271.625 41.8C271.533 41.984 271.487 42.122 271.487 42.214C271.487 42.306 271.441 42.628 271.349 43.18C271.349 43.456 271.303 43.778 271.211 44.146L270.797 46.63V49.114C270.429 52.15 270.245 56.796 270.245 63.052C270.245 64.064 270.291 65.996 270.383 68.848L270.521 71.194C270.613 72.758 270.705 74.276 270.797 75.748V76.852C271.073 80.716 271.533 83.614 272.177 85.546C273.557 89.686 276.179 91.756 280.043 91.756C284.183 91.756 286.851 89.686 288.047 85.546C288.599 83.89 288.921 82.556 289.013 81.544C289.289 80.256 289.427 78.738 289.427 76.99C289.427 74.966 289.473 72.896 289.565 70.78C289.565 70.136 289.611 69.492 289.703 68.848C289.795 66.18 289.841 64.248 289.841 63.052ZM287.495 63.052C287.495 80.624 285.011 89.41 280.043 89.41C277.743 89.41 275.995 88.536 274.799 86.788C273.511 85.04 272.867 82.556 272.867 79.336C272.683 78.048 272.591 72.62 272.591 63.052V56.704C272.591 49.344 273.097 44.146 274.109 41.11C274.937 38.258 276.915 36.832 280.043 36.832C282.343 36.832 284.091 37.706 285.287 39.454C286.575 41.294 287.219 43.778 287.219 46.906C287.403 47.642 287.495 48.24 287.495 48.7V51.184V52.012V53.116V54.22V55.876V57.67V60.016V63.052ZM347.111 90.652C347.111 85.868 345.639 81.498 342.695 77.542C339.843 73.678 335.933 71.746 330.965 71.746C327.101 71.746 323.789 73.034 321.029 75.61C318.177 78.186 316.751 81.406 316.751 85.27C316.751 88.49 317.947 91.434 320.339 94.102C322.731 96.77 325.675 98.104 329.171 98.104C330.183 98.104 331.011 97.966 331.655 97.69L334.139 96.586C334.139 100.45 332.759 103.946 329.999 107.074C327.331 110.018 323.743 112.456 319.235 114.388V122.116C328.159 119.724 335.013 115.814 339.797 110.386C344.673 104.774 347.111 98.196 347.111 90.652ZM344.627 90.652C344.627 97.644 342.465 103.67 338.141 108.73C334.001 113.698 328.481 117.102 321.581 118.942V116.044C325.537 114.572 329.033 112.042 332.069 108.454C335.013 104.774 336.485 100.772 336.485 96.448C336.485 94.792 335.979 93.964 334.967 93.964L332.483 94.792C331.103 95.344 329.999 95.62 329.171 95.62C326.503 95.62 324.157 94.562 322.133 92.446C320.109 90.422 319.097 88.03 319.097 85.27C319.097 82.142 320.293 79.474 322.685 77.266C325.077 75.15 327.837 74.092 330.965 74.092C335.105 74.092 338.509 75.84 341.177 79.336C343.477 82.464 344.627 86.236 344.627 90.652ZM89.424 166.346V136.814H2.76V166.346H9.522C11.454 158.342 13.754 153.006 16.422 150.338C18.906 148.038 22.632 146.888 27.6 146.888H32.706V213.266C32.706 218.51 32.154 221.776 31.05 223.064C29.578 224.812 25.806 225.686 19.734 225.686V233H72.45V225.686C66.378 225.686 62.56 224.766 60.996 222.926C59.984 221.638 59.478 218.418 59.478 213.266V146.888H64.446C69.414 146.888 73.14 148.084 75.624 150.476C78.384 153.144 80.684 158.434 82.524 166.346H89.424ZM86.94 163.862H84.456C82.524 155.858 80.04 150.568 77.004 147.992C74.06 145.6 69.874 144.404 64.446 144.404H56.994V213.266C56.994 219.43 57.546 223.294 58.65 224.858C60.214 226.974 63.986 228.032 69.966 228.032V230.516H22.08V228.032C28.152 228.032 31.97 226.974 33.534 224.858C34.546 223.294 35.052 219.43 35.052 213.266V144.404H27.6C22.172 144.404 17.986 145.646 15.042 148.13C11.914 150.982 9.43 156.226 7.59 163.862H5.106V139.16H86.94V163.862ZM167.669 233V225.686C164.725 225.686 162.747 224.904 161.735 223.34C161.091 222.42 160.769 220.718 160.769 218.234V216.026V190.772C160.769 182.032 159.389 175.408 156.629 170.9C153.501 165.84 148.303 163.31 141.035 163.31C137.907 163.31 135.147 163.862 132.755 164.966L128.891 167.036C127.695 167.864 126.499 168.784 125.303 169.796V136.814H93.9769V144.128C97.3809 144.128 99.5429 144.864 100.463 146.336C101.199 147.348 101.567 149.188 101.567 151.856V153.926V216.026V218.096C101.567 220.488 101.153 222.374 100.325 223.754C99.3129 225.042 97.4269 225.686 94.6669 225.686V233H130.685V225.686C128.201 225.686 126.591 224.628 125.855 222.512C125.487 221.868 125.303 219.706 125.303 216.026V183.596C126.499 181.572 127.649 180.146 128.753 179.318C130.409 177.938 131.927 177.248 133.307 177.248C134.687 177.248 135.745 177.754 136.481 178.766C136.757 179.318 136.987 180.054 137.171 180.974V182.492V183.734C137.079 184.01 137.033 184.516 137.033 185.252V187.046V190.358V216.026C137.033 218.786 136.757 220.948 136.205 222.512C135.377 224.628 133.721 225.686 131.237 225.686V233H167.669ZM165.185 230.516H133.169V228.032C136.021 228.032 137.861 226.79 138.689 224.306C139.149 222.65 139.379 219.89 139.379 216.026V190.358C139.379 184.838 139.103 181.066 138.551 179.042C137.723 176.19 135.975 174.764 133.307 174.764C131.375 174.764 129.351 175.684 127.235 177.524C125.579 178.904 124.107 180.744 122.819 183.044V216.026C122.819 220.994 123.325 224.26 124.337 225.824C125.257 227.296 126.821 228.032 129.029 228.032V230.516H97.0129V228.032C100.141 228.032 102.165 226.79 103.085 224.306C103.637 222.65 103.913 219.89 103.913 216.026V153.926C103.913 148.222 103.315 144.772 102.119 143.576C100.831 142.288 98.8989 141.644 96.3229 141.644V139.16H122.819V175.592C125.395 172.464 128.109 170.118 130.961 168.554C134.181 166.622 137.539 165.656 141.035 165.656C147.751 165.656 152.397 168.002 154.973 172.694C157.181 176.374 158.285 182.4 158.285 190.772V216.026C158.285 220.994 158.837 224.26 159.941 225.824C160.861 227.296 162.609 228.032 165.185 228.032V230.516ZM201.157 147.44C201.157 143.852 199.915 140.816 197.431 138.332C194.763 135.94 191.727 134.744 188.323 134.744C184.827 134.744 181.837 135.986 179.353 138.47C176.869 140.954 175.627 143.944 175.627 147.44C175.627 151.12 176.869 154.156 179.353 156.548C181.837 159.032 184.827 160.274 188.323 160.274C191.911 160.274 194.947 159.032 197.431 156.548C199.915 154.064 201.157 151.028 201.157 147.44ZM198.673 147.44C198.673 150.292 197.661 152.73 195.637 154.754C193.613 156.778 191.175 157.79 188.323 157.79C185.563 157.79 183.125 156.732 181.009 154.616C178.985 152.592 177.973 150.2 177.973 147.44C177.973 144.68 179.031 142.242 181.147 140.126C183.171 138.102 185.563 137.09 188.323 137.09C191.175 137.09 193.613 138.102 195.637 140.126C197.661 142.15 198.673 144.588 198.673 147.44ZM207.781 233V225.686C204.009 225.686 201.709 224.812 200.881 223.064C200.513 222.604 200.329 220.258 200.329 216.026V165.242H169.003V172.556C172.407 172.556 174.569 173.292 175.489 174.764C176.225 175.776 176.593 177.616 176.593 180.284V182.354V216.026C176.593 219.43 176.317 221.776 175.765 223.064C174.845 224.812 172.591 225.686 169.003 225.686V233H207.781ZM205.297 230.516H171.349V228.032C174.845 228.032 177.099 226.974 178.111 224.858C178.663 223.57 178.939 220.626 178.939 216.026V182.354C178.939 176.742 178.341 173.292 177.145 172.004C175.857 170.716 173.925 170.072 171.349 170.072V167.588H197.845V216.026L198.121 221.684C198.305 223.064 198.535 224.122 198.811 224.858C199.915 226.974 202.077 228.032 205.297 228.032V230.516ZM258.609 210.92C258.609 205.952 256.033 201.03 250.881 196.154C249.685 195.142 244.947 191.692 236.667 185.804C231.607 182.124 229.077 179.088 229.077 176.696C229.077 175.684 229.491 174.902 230.319 174.35C231.055 173.706 232.067 173.384 233.355 173.384C236.943 173.384 240.025 175.04 242.601 178.352C244.533 180.652 246.603 184.47 248.811 189.806H255.297L254.055 163.31H247.983L247.293 164.414L246.741 165.518C246.189 166.346 245.637 166.76 245.085 166.76C244.441 166.668 243.935 166.484 243.567 166.208L241.083 164.966L237.357 163.724C235.885 163.448 234.275 163.31 232.527 163.31C226.271 163.31 220.981 165.334 216.657 169.382C212.517 173.338 210.447 178.536 210.447 184.976C210.447 190.312 212.977 195.326 218.037 200.018L224.799 204.986L232.113 210.368C236.897 213.956 239.289 217.314 239.289 220.442C239.289 221.914 238.783 223.018 237.771 223.754C236.759 224.49 235.655 224.858 234.459 224.858C230.687 224.858 227.329 223.11 224.385 219.614C221.441 216.21 219.325 212.07 218.037 207.194H211.137L212.517 234.932H219.141C219.693 232.54 220.245 231.344 220.797 231.344L223.005 231.758L224.247 232.31L225.765 232.862C228.985 233.874 231.101 234.426 232.113 234.518C233.401 234.794 234.597 234.932 235.701 234.932C242.141 234.932 247.569 232.586 251.985 227.894C256.401 223.294 258.609 217.636 258.609 210.92ZM256.125 210.92C256.125 216.992 254.147 222.098 250.191 226.238C246.235 230.378 241.405 232.448 235.701 232.448C234.229 232.448 232.849 232.31 231.561 232.034L227.145 230.792L223.143 229.412L221.763 228.998C221.671 228.906 221.349 228.86 220.797 228.86C219.969 228.86 219.187 229.228 218.451 229.964C217.807 230.608 217.393 231.436 217.209 232.448H214.725L213.621 209.54H216.105C217.669 214.324 219.877 218.28 222.729 221.408C226.501 225.272 230.411 227.204 234.459 227.204C236.667 227.204 238.369 226.606 239.565 225.41C240.945 224.122 241.635 222.466 241.635 220.442C241.635 216.302 239.105 212.3 234.045 208.436L220.245 198.638C215.277 194.314 212.793 189.76 212.793 184.976C212.793 179.272 214.679 174.626 218.451 171.038C222.223 167.45 226.915 165.656 232.527 165.656C234.183 165.656 235.609 165.794 236.805 166.07L240.393 167.312L241.911 168.002L243.291 168.554C243.935 168.922 244.533 169.106 245.085 169.106C246.281 169.106 247.201 168.784 247.845 168.14C248.121 167.864 248.627 167.036 249.363 165.656H251.847L252.813 187.322H250.329C248.397 182.538 246.235 178.812 243.843 176.144C240.623 172.648 237.127 170.9 233.355 170.9C231.791 170.9 230.227 171.452 228.663 172.556C227.283 173.752 226.593 175.132 226.593 176.696C226.593 179.548 229.169 182.906 234.321 186.77L242.601 193.118L248.535 197.396C253.595 201.904 256.125 206.412 256.125 210.92ZM339.157 147.44C339.157 143.852 337.915 140.816 335.431 138.332C332.763 135.94 329.727 134.744 326.323 134.744C322.827 134.744 319.837 135.986 317.353 138.47C314.869 140.954 313.627 143.944 313.627 147.44C313.627 151.12 314.869 154.156 317.353 156.548C319.837 159.032 322.827 160.274 326.323 160.274C329.911 160.274 332.947 159.032 335.431 156.548C337.915 154.064 339.157 151.028 339.157 147.44ZM336.673 147.44C336.673 150.292 335.661 152.73 333.637 154.754C331.613 156.778 329.175 157.79 326.323 157.79C323.563 157.79 321.125 156.732 319.009 154.616C316.985 152.592 315.973 150.2 315.973 147.44C315.973 144.68 317.031 142.242 319.147 140.126C321.171 138.102 323.563 137.09 326.323 137.09C329.175 137.09 331.613 138.102 333.637 140.126C335.661 142.15 336.673 144.588 336.673 147.44ZM345.781 233V225.686C342.009 225.686 339.709 224.812 338.881 223.064C338.513 222.604 338.329 220.258 338.329 216.026V165.242H307.003V172.556C310.407 172.556 312.569 173.292 313.489 174.764C314.225 175.776 314.593 177.616 314.593 180.284V182.354V216.026C314.593 219.43 314.317 221.776 313.765 223.064C312.845 224.812 310.591 225.686 307.003 225.686V233H345.781ZM343.297 230.516H309.349V228.032C312.845 228.032 315.099 226.974 316.111 224.858C316.663 223.57 316.939 220.626 316.939 216.026V182.354C316.939 176.742 316.341 173.292 315.145 172.004C313.857 170.716 311.925 170.072 309.349 170.072V167.588H335.845V216.026L336.121 221.684C336.305 223.064 336.535 224.122 336.811 224.858C337.915 226.974 340.077 228.032 343.297 228.032V230.516ZM396.609 210.92C396.609 205.952 394.033 201.03 388.881 196.154C387.685 195.142 382.947 191.692 374.667 185.804C369.607 182.124 367.077 179.088 367.077 176.696C367.077 175.684 367.491 174.902 368.319 174.35C369.055 173.706 370.067 173.384 371.355 173.384C374.943 173.384 378.025 175.04 380.601 178.352C382.533 180.652 384.603 184.47 386.811 189.806H393.297L392.055 163.31H385.983L385.293 164.414L384.741 165.518C384.189 166.346 383.637 166.76 383.085 166.76C382.441 166.668 381.935 166.484 381.567 166.208L379.083 164.966L375.357 163.724C373.885 163.448 372.275 163.31 370.527 163.31C364.271 163.31 358.981 165.334 354.657 169.382C350.517 173.338 348.447 178.536 348.447 184.976C348.447 190.312 350.977 195.326 356.037 200.018L362.799 204.986L370.113 210.368C374.897 213.956 377.289 217.314 377.289 220.442C377.289 221.914 376.783 223.018 375.771 223.754C374.759 224.49 373.655 224.858 372.459 224.858C368.687 224.858 365.329 223.11 362.385 219.614C359.441 216.21 357.325 212.07 356.037 207.194H349.137L350.517 234.932H357.141C357.693 232.54 358.245 231.344 358.797 231.344L361.005 231.758L362.247 232.31L363.765 232.862C366.985 233.874 369.101 234.426 370.113 234.518C371.401 234.794 372.597 234.932 373.701 234.932C380.141 234.932 385.569 232.586 389.985 227.894C394.401 223.294 396.609 217.636 396.609 210.92ZM394.125 210.92C394.125 216.992 392.147 222.098 388.191 226.238C384.235 230.378 379.405 232.448 373.701 232.448C372.229 232.448 370.849 232.31 369.561 232.034L365.145 230.792L361.143 229.412L359.763 228.998C359.671 228.906 359.349 228.86 358.797 228.86C357.969 228.86 357.187 229.228 356.451 229.964C355.807 230.608 355.393 231.436 355.209 232.448H352.725L351.621 209.54H354.105C355.669 214.324 357.877 218.28 360.729 221.408C364.501 225.272 368.411 227.204 372.459 227.204C374.667 227.204 376.369 226.606 377.565 225.41C378.945 224.122 379.635 222.466 379.635 220.442C379.635 216.302 377.105 212.3 372.045 208.436L358.245 198.638C353.277 194.314 350.793 189.76 350.793 184.976C350.793 179.272 352.679 174.626 356.451 171.038C360.223 167.45 364.915 165.656 370.527 165.656C372.183 165.656 373.609 165.794 374.805 166.07L378.393 167.312L379.911 168.002L381.291 168.554C381.935 168.922 382.533 169.106 383.085 169.106C384.281 169.106 385.201 168.784 385.845 168.14C386.121 167.864 386.627 167.036 387.363 165.656H389.847L390.813 187.322H388.329C386.397 182.538 384.235 178.812 381.843 176.144C378.623 172.648 375.127 170.9 371.355 170.9C369.791 170.9 368.227 171.452 366.663 172.556C365.283 173.752 364.593 175.132 364.593 176.696C364.593 179.548 367.169 182.906 372.321 186.77L380.601 193.118L386.535 197.396C391.595 201.904 394.125 206.412 394.125 210.92ZM534.151 166.346V136.814H447.487V166.346H454.249C456.181 158.342 458.481 153.006 461.149 150.338C463.633 148.038 467.359 146.888 472.327 146.888H477.433V213.266C477.433 218.51 476.881 221.776 475.777 223.064C474.305 224.812 470.533 225.686 464.461 225.686V233H517.177V225.686C511.105 225.686 507.287 224.766 505.723 222.926C504.711 221.638 504.205 218.418 504.205 213.266V146.888H509.173C514.141 146.888 517.867 148.084 520.351 150.476C523.111 153.144 525.411 158.434 527.251 166.346H534.151ZM531.667 163.862H529.183C527.251 155.858 524.767 150.568 521.731 147.992C518.787 145.6 514.601 144.404 509.173 144.404H501.721V213.266C501.721 219.43 502.273 223.294 503.377 224.858C504.941 226.974 508.713 228.032 514.693 228.032V230.516H466.807V228.032C472.879 228.032 476.697 226.974 478.261 224.858C479.273 223.294 479.779 219.43 479.779 213.266V144.404H472.327C466.899 144.404 462.713 145.646 459.769 148.13C456.641 150.982 454.157 156.226 452.317 163.862H449.833V139.16H531.667V163.862ZM606.737 222.236L600.803 217.82C599.331 220.304 598.365 221.546 597.905 221.546C597.353 221.546 597.077 221.27 597.077 220.718C597.077 220.074 597.215 219.016 597.491 217.544V186.908C597.491 179.088 595.421 173.2 591.281 169.244C587.049 165.288 580.655 163.31 572.099 163.31C565.291 163.31 558.805 165.012 552.641 168.416C545.465 172.372 541.877 177.524 541.877 183.872C541.877 187.184 543.165 189.852 545.741 191.876C548.317 193.992 551.077 195.05 554.021 195.05C555.493 195.05 557.011 194.82 558.575 194.36C559.035 194.176 559.725 193.808 560.645 193.256C560.829 193.072 561.059 192.934 561.335 192.842C561.887 192.566 562.255 192.336 562.439 192.152C564.555 190.312 565.613 187.736 565.613 184.424C565.613 183.688 565.475 182.998 565.199 182.354L564.095 180.284C562.163 177.616 561.197 176.098 561.197 175.73C561.197 174.626 561.749 173.936 562.853 173.66C564.141 173.476 565.705 173.384 567.545 173.384C569.477 173.384 570.949 173.844 571.961 174.764C573.157 175.684 573.755 177.248 573.755 179.456V189.116C560.783 195.28 551.997 200.432 547.397 204.572C542.889 208.62 540.635 213.588 540.635 219.476C540.635 224.168 542.061 227.894 544.913 230.654C547.673 233.506 551.215 234.932 555.539 234.932C558.391 234.932 561.657 234.104 565.337 232.448C568.925 230.976 572.007 229.09 574.583 226.79C575.687 229.642 577.389 231.666 579.689 232.862C582.081 234.242 584.979 234.932 588.383 234.932C591.879 234.932 595.191 233.874 598.319 231.758C601.263 229.642 604.069 226.468 606.737 222.236ZM603.425 222.926C601.769 225.778 599.699 228.124 597.215 229.964C594.639 231.62 591.695 232.448 588.383 232.448C584.795 232.448 581.897 231.62 579.689 229.964C577.297 228.124 576.101 225.594 576.101 222.374C572.697 225.318 569.569 227.618 566.717 229.274C562.669 231.39 558.943 232.448 555.539 232.448C551.951 232.448 548.961 231.252 546.569 228.86C544.177 226.284 542.981 223.156 542.981 219.476C542.981 213.956 545.327 209.218 550.019 205.262C552.135 203.422 555.355 201.352 559.679 199.052C561.151 198.224 563.497 196.936 566.717 195.188C568.649 194.268 571.501 192.888 575.273 191.048L576.101 190.634V179.456C576.101 176.42 575.089 174.166 573.065 172.694C571.501 171.498 569.661 170.9 567.545 170.9C565.981 170.9 564.141 171.314 562.025 172.142C559.817 172.97 558.713 174.166 558.713 175.73C558.897 176.65 559.403 177.57 560.231 178.49C562.163 180.79 563.129 182.768 563.129 184.424C563.129 186.908 562.255 188.886 560.507 190.358C558.759 191.83 556.597 192.566 554.021 192.566C551.445 192.566 549.191 191.738 547.259 190.082C545.235 188.61 544.223 186.54 544.223 183.872C544.223 177.984 547.581 173.338 554.297 169.934C559.449 167.082 565.383 165.656 572.099 165.656C580.011 165.656 585.807 167.496 589.487 171.176C593.167 174.672 595.007 179.916 595.007 186.908V217.544C595.007 219.66 595.191 221.27 595.559 222.374C596.019 223.386 596.801 223.892 597.905 223.892C599.009 223.892 599.883 223.478 600.527 222.65L601.493 221.408L603.425 222.926ZM576.101 217.406V196.292C572.421 198.316 569.201 200.708 566.441 203.468C562.945 207.24 561.197 210.69 561.197 213.818C561.197 215.934 561.887 217.682 563.267 219.062C564.647 220.442 566.395 221.132 568.511 221.132C570.167 221.132 571.869 220.58 573.617 219.476L576.101 217.406ZM573.755 216.164C572.559 217.36 571.685 218.05 571.133 218.234C570.765 218.602 569.891 218.786 568.511 218.786C565.291 218.786 563.681 217.13 563.681 213.818C563.681 212.162 564.325 210.276 565.613 208.16C567.177 205.676 569.891 203.146 573.755 200.57V216.164ZM681.395 233V225.686C678.451 225.686 676.473 224.904 675.461 223.34C674.817 222.42 674.495 220.718 674.495 218.234V216.026V190.772C674.495 182.032 673.115 175.408 670.355 170.9C667.227 165.84 662.029 163.31 654.761 163.31C651.633 163.31 648.873 163.862 646.481 164.966L642.617 167.036C641.421 167.864 640.225 168.784 639.029 169.796V165.242H607.703V172.556C611.107 172.556 613.269 173.292 614.189 174.764C614.925 175.776 615.293 177.616 615.293 180.284V182.354V216.026V218.096C615.293 220.488 614.879 222.374 614.051 223.754C613.039 225.042 611.153 225.686 608.393 225.686V233H644.549V225.548C641.881 225.548 640.179 224.49 639.443 222.374C639.167 221.362 639.029 219.246 639.029 216.026V183.596C640.225 181.572 641.375 180.146 642.479 179.318C644.135 177.938 645.653 177.248 647.033 177.248C648.413 177.248 649.471 177.754 650.207 178.766C650.483 179.318 650.713 180.054 650.897 180.974V182.492V183.734C650.805 184.01 650.759 184.516 650.759 185.252V187.046V190.358V216.026C650.759 219.798 650.253 222.328 649.241 223.616C648.229 224.904 646.849 225.548 645.101 225.548V233H681.395ZM678.911 230.516H646.895V228.032C649.747 228.032 651.587 226.79 652.415 224.306C652.875 222.65 653.105 219.89 653.105 216.026V190.358C653.105 184.838 652.829 181.066 652.277 179.042C651.449 176.19 649.701 174.764 647.033 174.764C645.101 174.764 643.077 175.684 640.961 177.524C639.305 178.904 637.833 180.744 636.545 183.044V216.026C636.545 220.994 637.051 224.26 638.063 225.824C638.983 227.296 640.547 228.032 642.755 228.032V230.516H610.739V228.032C613.867 228.032 615.891 226.79 616.811 224.306C617.363 222.65 617.639 219.89 617.639 216.026V182.354C617.639 176.65 617.041 173.2 615.845 172.004C614.557 170.716 612.625 170.072 610.049 170.072V167.588H636.545V175.592C639.121 172.464 641.835 170.118 644.687 168.554C647.907 166.622 651.265 165.656 654.761 165.656C661.477 165.656 666.123 168.002 668.699 172.694C670.907 176.374 672.011 182.4 672.011 190.772V216.026C672.011 220.994 672.563 224.26 673.667 225.824C674.587 227.296 676.335 228.032 678.911 228.032V230.516ZM796.303 233V225.686C793.359 225.686 791.381 224.904 790.369 223.34C789.725 222.42 789.403 220.718 789.403 218.234V216.026V190.772C789.403 182.032 788.023 175.408 785.263 170.9C782.135 165.84 776.937 163.31 769.669 163.31C766.081 163.31 762.539 164.138 759.043 165.794C755.823 167.358 752.741 169.658 749.797 172.694C746.025 166.438 740.275 163.31 732.547 163.31C729.511 163.31 726.521 163.862 723.577 164.966C720.265 166.346 717.643 167.91 715.711 169.658V165.242H684.385V172.556C687.789 172.556 689.951 173.292 690.871 174.764C691.607 175.776 691.975 177.616 691.975 180.284V182.354V216.026V218.096C691.975 220.488 691.561 222.374 690.733 223.754C689.721 225.042 687.835 225.686 685.075 225.686V233H721.921V225.686C719.069 225.686 717.229 224.628 716.401 222.512C715.941 221.132 715.711 218.97 715.711 216.026V183.596C716.171 182.768 717.183 181.572 718.747 180.008C720.771 177.984 722.887 176.972 725.095 176.972C726.659 176.972 727.717 177.524 728.269 178.628C728.453 179.272 728.591 179.64 728.683 179.732C728.683 180.1 728.729 180.422 728.821 180.698C728.821 181.158 728.867 181.526 728.959 181.802V182.63V183.734C728.867 184.01 728.821 184.516 728.821 185.252V187.046V190.358V216.026C728.821 219.89 728.269 222.466 727.165 223.754C725.877 225.042 724.267 225.686 722.335 225.686V233H758.905V225.686C756.237 225.686 754.397 224.628 753.385 222.512C752.833 221.224 752.557 219.062 752.557 216.026V183.596C753.109 182.768 753.707 182.032 754.351 181.388C754.719 180.928 755.133 180.468 755.593 180.008C757.617 177.984 759.733 176.972 761.941 176.972C763.505 176.972 764.563 177.524 765.115 178.628C765.391 179.18 765.529 179.548 765.529 179.732C765.621 179.916 765.667 180.238 765.667 180.698C765.667 181.158 765.713 181.526 765.805 181.802V182.63V183.734C765.713 184.01 765.667 184.516 765.667 185.252V187.046V190.358V216.026C765.667 219.062 765.391 221.224 764.839 222.512C763.735 224.628 761.941 225.686 759.457 225.686V233H796.303ZM793.819 230.516H761.113V228.032C764.241 228.032 766.265 226.79 767.185 224.306C767.737 222.742 768.013 219.982 768.013 216.026V190.358C768.013 185.114 767.737 181.342 767.185 179.042C766.265 176.006 764.517 174.488 761.941 174.488C759.641 174.488 757.341 175.408 755.041 177.248C753.385 178.904 751.775 180.836 750.211 183.044V216.026C750.211 220.994 750.717 224.26 751.729 225.824C752.833 227.296 754.581 228.032 756.973 228.032V230.516H724.267V228.032C727.395 228.032 729.419 226.79 730.339 224.306C730.891 222.65 731.167 219.89 731.167 216.026V190.358C731.167 184.838 730.891 181.066 730.339 179.042C729.511 176.006 727.763 174.488 725.095 174.488C722.795 174.488 720.495 175.408 718.195 177.248C716.539 178.72 714.883 180.652 713.227 183.044V216.026C713.227 220.994 713.779 224.26 714.883 225.824C715.987 227.296 717.735 228.032 720.127 228.032V230.516H687.421V228.032C690.549 228.032 692.573 226.79 693.493 224.306C694.045 222.65 694.321 219.89 694.321 216.026V182.354C694.321 176.65 693.723 173.2 692.527 172.004C691.239 170.716 689.307 170.072 686.731 170.072V167.588H713.227V175.592C716.447 172.096 719.299 169.704 721.783 168.416C725.003 166.576 728.591 165.656 732.547 165.656C736.595 165.656 740.045 166.622 742.897 168.554C745.749 170.578 747.773 173.43 748.969 177.11C751.821 173.522 754.857 170.808 758.077 168.968C761.849 166.76 765.713 165.656 769.669 165.656C776.385 165.656 781.031 168.002 783.607 172.694C785.815 176.374 786.919 182.4 786.919 190.772V216.026C786.919 220.718 787.471 223.984 788.575 225.824C789.495 227.296 791.243 228.032 793.819 228.032V230.516ZM858.266 212.438L852.194 208.298C849.434 212.53 847.364 215.29 845.984 216.578C843.776 218.694 841.338 219.752 838.67 219.752C833.886 219.752 830.022 217.452 827.078 212.852C824.502 208.896 823.214 204.434 823.214 199.466H857.438C857.438 189.622 855.23 181.25 850.814 174.35C845.846 166.99 839.544 163.31 831.908 163.31C822.156 163.31 814.29 166.898 808.31 174.074C802.79 180.79 800.03 189.116 800.03 199.052C800.03 209.264 802.376 217.636 807.068 224.168C812.22 231.344 819.626 234.932 829.286 234.932C835.818 234.932 841.614 232.908 846.674 228.86C850.63 225.456 854.494 219.982 858.266 212.438ZM855.092 213.266C851.872 219.522 848.56 224.122 845.156 227.066C840.74 230.654 835.45 232.448 829.286 232.448C824.778 232.448 820.822 231.574 817.418 229.826C814.014 227.986 811.116 225.502 808.724 222.374C804.492 216.486 802.376 208.712 802.376 199.052C802.376 189.76 804.952 181.986 810.104 175.73C815.44 169.014 822.708 165.656 831.908 165.656C839.36 165.656 845.156 169.014 849.296 175.73C853.16 181.526 855.092 188.61 855.092 196.982H820.592L820.868 201.26L821.696 205.262C822.34 207.102 822.892 208.574 823.352 209.678C823.812 210.874 824.364 212.116 825.008 213.404C828.596 219.2 833.15 222.098 838.67 222.098C841.706 222.098 844.512 221.04 847.088 218.924C848.836 217.452 850.768 215.06 852.884 211.748L855.092 213.266ZM838.532 192.29C838.532 188.15 838.348 184.792 837.98 182.216C836.876 174.304 834.208 170.348 829.976 170.348C826.296 170.348 823.628 172.74 821.972 177.524C820.776 180.56 820.178 185.482 820.178 192.29H838.532ZM836.186 189.944H822.662C822.662 184.792 823.076 180.928 823.904 178.352C825.1 174.672 827.124 172.832 829.976 172.832C832.552 172.832 834.346 174.442 835.358 177.662C835.91 179.686 836.186 182.906 836.186 187.322V189.944ZM919.585 212.438L913.513 208.298C910.753 212.53 908.683 215.29 907.303 216.578C905.095 218.694 902.657 219.752 899.989 219.752C895.205 219.752 891.341 217.452 888.397 212.852C885.821 208.896 884.533 204.434 884.533 199.466H918.757C918.757 189.622 916.549 181.25 912.133 174.35C907.165 166.99 900.863 163.31 893.227 163.31C883.475 163.31 875.609 166.898 869.629 174.074C864.109 180.79 861.349 189.116 861.349 199.052C861.349 209.264 863.695 217.636 868.387 224.168C873.539 231.344 880.945 234.932 890.605 234.932C897.137 234.932 902.933 232.908 907.993 228.86C911.949 225.456 915.813 219.982 919.585 212.438ZM916.411 213.266C913.191 219.522 909.879 224.122 906.475 227.066C902.059 230.654 896.769 232.448 890.605 232.448C886.097 232.448 882.141 231.574 878.737 229.826C875.333 227.986 872.435 225.502 870.043 222.374C865.811 216.486 863.695 208.712 863.695 199.052C863.695 189.76 866.271 181.986 871.423 175.73C876.759 169.014 884.027 165.656 893.227 165.656C900.679 165.656 906.475 169.014 910.615 175.73C914.479 181.526 916.411 188.61 916.411 196.982H881.911L882.187 201.26L883.015 205.262C883.659 207.102 884.211 208.574 884.671 209.678C885.131 210.874 885.683 212.116 886.327 213.404C889.915 219.2 894.469 222.098 899.989 222.098C903.025 222.098 905.831 221.04 908.407 218.924C910.155 217.452 912.087 215.06 914.203 211.748L916.411 213.266ZM899.851 192.29C899.851 188.15 899.667 184.792 899.299 182.216C898.195 174.304 895.527 170.348 891.295 170.348C887.615 170.348 884.947 172.74 883.291 177.524C882.095 180.56 881.497 185.482 881.497 192.29H899.851ZM897.505 189.944H883.981C883.981 184.792 884.395 180.928 885.223 178.352C886.419 174.672 888.443 172.832 891.295 172.832C893.871 172.832 895.665 174.442 896.677 177.662C897.229 179.686 897.505 182.906 897.505 187.322V189.944ZM995.669 233V225.686C992.725 225.686 990.747 224.904 989.735 223.34C989.091 222.42 988.769 220.718 988.769 218.234V216.026V190.772C988.769 182.032 987.389 175.408 984.629 170.9C981.501 165.84 976.303 163.31 969.035 163.31C965.907 163.31 963.147 163.862 960.755 164.966L956.891 167.036C955.695 167.864 954.499 168.784 953.303 169.796V165.242H921.977V172.556C925.381 172.556 927.543 173.292 928.463 174.764C929.199 175.776 929.567 177.616 929.567 180.284V182.354V216.026V218.096C929.567 220.488 929.153 222.374 928.325 223.754C927.313 225.042 925.427 225.686 922.667 225.686V233H958.823V225.548C956.155 225.548 954.453 224.49 953.717 222.374C953.441 221.362 953.303 219.246 953.303 216.026V183.596C954.499 181.572 955.649 180.146 956.753 179.318C958.409 177.938 959.927 177.248 961.307 177.248C962.687 177.248 963.745 177.754 964.481 178.766C964.757 179.318 964.987 180.054 965.171 180.974V182.492V183.734C965.079 184.01 965.033 184.516 965.033 185.252V187.046V190.358V216.026C965.033 219.798 964.527 222.328 963.515 223.616C962.503 224.904 961.123 225.548 959.375 225.548V233H995.669ZM993.185 230.516H961.169V228.032C964.021 228.032 965.861 226.79 966.689 224.306C967.149 222.65 967.379 219.89 967.379 216.026V190.358C967.379 184.838 967.103 181.066 966.551 179.042C965.723 176.19 963.975 174.764 961.307 174.764C959.375 174.764 957.351 175.684 955.235 177.524C953.579 178.904 952.107 180.744 950.819 183.044V216.026C950.819 220.994 951.325 224.26 952.337 225.824C953.257 227.296 954.821 228.032 957.029 228.032V230.516H925.013V228.032C928.141 228.032 930.165 226.79 931.085 224.306C931.637 222.65 931.913 219.89 931.913 216.026V182.354C931.913 176.65 931.315 173.2 930.119 172.004C928.831 170.716 926.899 170.072 924.323 170.072V167.588H950.819V175.592C953.395 172.464 956.109 170.118 958.961 168.554C962.181 166.622 965.539 165.656 969.035 165.656C975.751 165.656 980.397 168.002 982.973 172.694C985.181 176.374 986.285 182.4 986.285 190.772V216.026C986.285 220.994 986.837 224.26 987.941 225.824C988.861 227.296 990.609 228.032 993.185 228.032V230.516ZM1027.64 221.27C1027.64 217.498 1026.3 214.278 1023.64 211.61C1021.06 209.034 1017.84 207.746 1013.98 207.746C1010.11 207.746 1006.89 209.034 1004.32 211.61C1001.74 214.186 1000.45 217.406 1000.45 221.27C1000.45 225.042 1001.79 228.262 1004.45 230.93C1007.12 233.598 1010.3 234.932 1013.98 234.932C1017.66 234.932 1020.88 233.552 1023.64 230.792C1026.3 227.94 1027.64 224.766 1027.64 221.27ZM1025.15 221.27C1025.15 224.398 1024.05 227.066 1021.84 229.274C1019.45 231.39 1016.83 232.448 1013.98 232.448C1010.85 232.448 1008.23 231.344 1006.11 229.136C1003.9 227.02 1002.8 224.398 1002.8 221.27C1002.8 218.142 1003.9 215.474 1006.11 213.266C1008.41 211.15 1011.03 210.092 1013.98 210.092C1017.1 210.092 1019.77 211.15 1021.98 213.266C1024.1 215.474 1025.15 218.142 1025.15 221.27Z" fill="#DADADA"/>
</svg>
