<svg width="1100" height="785" viewBox="0 0 1100 785" fill="none" xmlns="http://www.w3.org/2000/svg">
<path d="M969.104 27.1374C968.948 27.2014 968.756 27.3751 968.683 27.5214C968.61 27.6586 968.171 29.1126 967.705 30.7495C967.238 32.3864 966.699 34.1148 966.498 34.5903C965.089 38.0562 962.117 41.0283 958.642 42.4457C958.167 42.6377 956.374 43.1956 954.646 43.6894C951.317 44.6404 951.143 44.7227 951.015 45.2897C950.933 45.6646 951.189 46.1585 951.546 46.3231C951.71 46.3962 953.174 46.8352 954.811 47.3016C956.447 47.7679 958.167 48.3075 958.642 48.4995C962.126 49.9261 965.08 52.8799 966.498 56.3549C966.699 56.8304 967.238 58.5588 967.705 60.1957C968.171 61.8326 968.61 63.2958 968.683 63.4604C968.848 63.817 969.342 64.0731 969.717 63.9908C970.283 63.8627 970.366 63.689 971.317 60.3603C972.268 57.0224 972.652 55.9525 973.347 54.7363C974.801 52.194 977.197 49.981 979.776 48.783C980.745 48.3349 981.55 48.0697 984.741 47.1644C987.723 46.3139 987.924 46.2225 988.052 45.6555C988.116 45.3446 987.915 44.8416 987.649 44.677C987.549 44.613 986.159 44.1923 984.558 43.7351C980.635 42.6103 979.885 42.3268 978.495 41.4763C975.789 39.8029 973.704 37.3795 972.561 34.5812C972.368 34.1057 971.829 32.3864 971.363 30.7495C970.896 29.1126 970.457 27.6586 970.384 27.5214C970.265 27.2745 969.781 26.991 969.515 27.0002C969.451 27.0093 969.268 27.0642 969.104 27.1374Z" fill="white"/>
<path d="M400.104 201.137C399.948 201.201 399.756 201.375 399.683 201.521C399.61 201.659 399.171 203.113 398.705 204.75C398.238 206.386 397.699 208.115 397.498 208.59C396.089 212.056 393.117 215.028 389.642 216.446C389.167 216.638 387.374 217.196 385.646 217.689C382.317 218.64 382.143 218.723 382.015 219.29C381.933 219.665 382.189 220.158 382.546 220.323C382.71 220.396 384.174 220.835 385.811 221.302C387.447 221.768 389.167 222.308 389.642 222.5C393.126 223.926 396.08 226.88 397.498 230.355C397.699 230.83 398.238 232.559 398.705 234.196C399.171 235.833 399.61 237.296 399.683 237.46C399.848 237.817 400.342 238.073 400.717 237.991C401.283 237.863 401.366 237.689 402.317 234.36C403.268 231.022 403.652 229.953 404.347 228.736C405.801 226.194 408.197 223.981 410.776 222.783C411.745 222.335 412.55 222.07 415.741 221.164C418.723 220.314 418.924 220.223 419.052 219.656C419.116 219.345 418.915 218.842 418.649 218.677C418.549 218.613 417.159 218.192 415.558 217.735C411.635 216.61 410.885 216.327 409.495 215.476C406.789 213.803 404.704 211.38 403.561 208.581C403.368 208.106 402.829 206.386 402.363 204.75C401.896 203.113 401.457 201.659 401.384 201.521C401.265 201.275 400.781 200.991 400.515 201C400.451 201.009 400.268 201.064 400.104 201.137Z" fill="white"/>
<path d="M810.104 685.137C809.948 685.201 809.756 685.375 809.683 685.521C809.61 685.659 809.171 687.113 808.705 688.75C808.238 690.386 807.699 692.115 807.498 692.59C806.089 696.056 803.117 699.028 799.642 700.446C799.167 700.638 797.374 701.196 795.646 701.689C792.317 702.64 792.143 702.723 792.015 703.29C791.933 703.665 792.189 704.158 792.546 704.323C792.71 704.396 794.174 704.835 795.811 705.302C797.447 705.768 799.167 706.307 799.642 706.5C803.126 707.926 806.08 710.88 807.498 714.355C807.699 714.83 808.238 716.559 808.705 718.196C809.171 719.833 809.61 721.296 809.683 721.46C809.848 721.817 810.342 722.073 810.717 721.991C811.283 721.863 811.366 721.689 812.317 718.36C813.268 715.022 813.652 713.953 814.347 712.736C815.801 710.194 818.197 707.981 820.776 706.783C821.745 706.335 822.55 706.07 825.741 705.164C828.723 704.314 828.924 704.222 829.052 703.656C829.116 703.345 828.915 702.842 828.649 702.677C828.549 702.613 827.159 702.192 825.558 701.735C821.635 700.61 820.885 700.327 819.495 699.476C816.789 697.803 814.704 695.379 813.561 692.581C813.368 692.106 812.829 690.386 812.363 688.75C811.896 687.113 811.457 685.659 811.384 685.521C811.265 685.275 810.781 684.991 810.515 685C810.451 685.009 810.268 685.064 810.104 685.137Z" fill="white"/>
<path d="M934.777 375.082C934.685 375.12 934.57 375.223 934.527 375.31C934.483 375.392 934.222 376.258 933.944 377.232C933.667 378.207 933.345 379.235 933.226 379.518C932.387 381.582 930.618 383.351 928.549 384.195C928.266 384.309 927.199 384.641 926.17 384.935C924.189 385.501 924.085 385.55 924.009 385.888C923.96 386.111 924.113 386.405 924.325 386.503C924.423 386.546 925.294 386.808 926.268 387.085C927.243 387.363 928.266 387.684 928.549 387.798C930.623 388.648 932.382 390.406 933.226 392.475C933.345 392.758 933.667 393.787 933.944 394.761C934.222 395.736 934.483 396.607 934.527 396.705C934.625 396.917 934.919 397.069 935.142 397.02C935.479 396.944 935.528 396.841 936.094 394.859C936.661 392.872 936.889 392.235 937.303 391.511C938.169 389.998 939.595 388.68 941.13 387.967C941.707 387.701 942.186 387.543 944.086 387.004C945.861 386.497 945.98 386.443 946.057 386.105C946.095 385.92 945.975 385.621 945.817 385.523C945.757 385.485 944.93 385.234 943.977 384.962C941.642 384.293 941.195 384.124 940.368 383.618C938.756 382.621 937.515 381.179 936.835 379.513C936.72 379.23 936.399 378.207 936.122 377.232C935.844 376.258 935.583 375.392 935.539 375.31C935.468 375.163 935.18 374.995 935.022 375C934.984 375.006 934.875 375.038 934.777 375.082Z" fill="white"/>
<path d="M992.338 69.0557C992.275 69.0816 992.197 69.1521 992.168 69.2114C992.138 69.267 991.96 69.8563 991.771 70.5198C991.582 71.1833 991.363 71.8839 991.282 72.0767C990.711 73.4815 989.506 74.6862 988.098 75.2607C987.905 75.3386 987.178 75.5647 986.478 75.7648C985.129 76.1503 985.058 76.1837 985.006 76.4135C984.973 76.5655 985.077 76.7656 985.221 76.8324C985.288 76.862 985.881 77.0399 986.545 77.229C987.208 77.418 987.905 77.6367 988.098 77.7146C989.51 78.2928 990.707 79.4901 991.282 80.8986C991.363 81.0914 991.582 81.7919 991.771 82.4554C991.96 83.1189 992.138 83.712 992.168 83.7787C992.234 83.9233 992.435 84.0271 992.586 83.9937C992.816 83.9418 992.85 83.8714 993.235 82.5222C993.621 81.1692 993.776 80.7355 994.058 80.2425C994.647 79.2121 995.619 78.315 996.664 77.8295C997.057 77.6478 997.383 77.5403 998.677 77.1734C999.885 76.8287 999.967 76.7916 1000.02 76.5618C1000.04 76.4357 999.963 76.2319 999.855 76.1652C999.815 76.1392 999.251 75.9687 998.602 75.7834C997.012 75.3274 996.708 75.2125 996.145 74.8678C995.048 74.1895 994.203 73.2072 993.739 72.0729C993.661 71.8802 993.443 71.1833 993.254 70.5198C993.065 69.8563 992.887 69.267 992.857 69.2114C992.809 69.1113 992.612 68.9964 992.505 69.0001C992.479 69.0038 992.405 69.026 992.338 69.0557Z" fill="white"/>
<path d="M205.025 665.104C204.96 664.948 204.787 664.756 204.64 664.683C204.503 664.61 203.049 664.171 201.412 663.705C199.775 663.238 198.047 662.699 197.572 662.498C194.106 661.089 191.134 658.117 189.716 654.642C189.524 654.167 188.966 652.374 188.472 650.646C187.521 647.317 187.439 647.143 186.872 647.015C186.497 646.933 186.003 647.189 185.839 647.546C185.766 647.71 185.327 649.174 184.86 650.811C184.394 652.447 183.854 654.167 183.662 654.642C182.236 658.126 179.282 661.08 175.807 662.498C175.331 662.699 173.603 663.238 171.966 663.705C170.329 664.171 168.866 664.61 168.702 664.683C168.345 664.848 168.089 665.342 168.171 665.717C168.299 666.283 168.473 666.366 171.802 667.317C175.139 668.268 176.209 668.652 177.426 669.347C179.968 670.801 182.181 673.197 183.379 675.776C183.827 676.745 184.092 677.55 184.997 680.741C185.848 683.723 185.939 683.924 186.506 684.052C186.817 684.116 187.32 683.915 187.485 683.649C187.549 683.549 187.97 682.159 188.427 680.558C189.552 676.635 189.835 675.885 190.686 674.495C192.359 671.789 194.782 669.704 197.581 668.561C198.056 668.368 199.775 667.829 201.412 667.363C203.049 666.896 204.503 666.457 204.64 666.384C204.887 666.265 205.171 665.781 205.162 665.515C205.153 665.451 205.098 665.268 205.025 665.104Z" fill="white"/>
<path d="M163.944 689.428C163.918 689.365 163.848 689.287 163.789 689.257C163.733 689.228 163.144 689.05 162.48 688.861C161.817 688.672 161.116 688.453 160.923 688.371C159.519 687.8 158.314 686.596 157.739 685.187C157.661 684.994 157.435 684.268 157.235 683.567C156.85 682.218 156.816 682.148 156.586 682.096C156.435 682.062 156.234 682.166 156.168 682.311C156.138 682.378 155.96 682.971 155.771 683.634C155.582 684.298 155.363 684.994 155.285 685.187C154.707 686.599 153.51 687.797 152.101 688.371C151.909 688.453 151.208 688.672 150.545 688.861C149.881 689.05 149.288 689.228 149.221 689.257C149.077 689.324 148.973 689.524 149.006 689.676C149.058 689.906 149.129 689.939 150.478 690.325C151.831 690.71 152.264 690.866 152.757 691.148C153.788 691.737 154.685 692.708 155.171 693.753C155.352 694.146 155.46 694.473 155.827 695.766C156.171 696.975 156.208 697.056 156.438 697.108C156.564 697.134 156.768 697.052 156.835 696.945C156.861 696.904 157.031 696.341 157.217 695.692C157.673 694.102 157.787 693.798 158.132 693.234C158.811 692.137 159.793 691.292 160.927 690.829C161.12 690.751 161.817 690.532 162.48 690.343C163.144 690.154 163.733 689.976 163.789 689.947C163.889 689.898 164.004 689.702 164 689.594C163.996 689.569 163.974 689.494 163.944 689.428Z" fill="white"/>
<path d="M1008.89 51.0371C1008.85 51.0544 1008.8 51.1014 1008.78 51.1409C1008.76 51.178 1008.64 51.5709 1008.51 52.0132C1008.39 52.4556 1008.24 52.9226 1008.19 53.0511C1007.81 53.9877 1007 54.7908 1006.07 55.1738C1005.94 55.2257 1005.45 55.3764 1004.99 55.5099C1004.09 55.7669 1004.04 55.7891 1004 55.9423C1003.98 56.0437 1004.05 56.1771 1004.15 56.2216C1004.19 56.2413 1004.59 56.36 1005.03 56.486C1005.47 56.612 1005.94 56.7578 1006.07 56.8097C1007.01 57.1952 1007.8 57.9934 1008.19 58.9324C1008.24 59.0609 1008.39 59.528 1008.51 59.9703C1008.64 60.4126 1008.76 60.808 1008.78 60.8525C1008.82 60.9489 1008.96 61.0181 1009.06 60.9958C1009.21 60.9612 1009.23 60.9143 1009.49 60.0148C1009.75 59.1128 1009.85 58.8237 1010.04 58.495C1010.43 57.808 1011.08 57.21 1011.78 56.8863C1012.04 56.7652 1012.26 56.6936 1013.12 56.4489C1013.92 56.2191 1013.98 56.1944 1014.01 56.0412C1014.03 55.9572 1013.98 55.8213 1013.9 55.7768C1013.88 55.7595 1013.5 55.6458 1013.07 55.5222C1012.01 55.2183 1011.81 55.1417 1011.43 54.9119C1010.7 54.4597 1010.14 53.8048 1009.83 53.0486C1009.77 52.9201 1009.63 52.4556 1009.5 52.0132C1009.38 51.5709 1009.26 51.178 1009.24 51.1409C1009.21 51.0742 1009.07 50.9976 1009 51.0001C1008.99 51.0025 1008.94 51.0174 1008.89 51.0371Z" fill="white"/>
<circle cx="569.5" cy="181.5" r="2.5" fill="#D9D9D9"/>
<circle cx="482.5" cy="249.5" r="2.5" fill="#D9D9D9"/>
<circle cx="635.5" cy="2.5" r="2.5" fill="#D9D9D9"/>
<circle cx="684.5" cy="139.5" r="2.5" fill="#D9D9D9"/>
<circle cx="551.5" cy="81.5" r="2.5" fill="#D9D9D9"/>
<circle cx="742.5" cy="33.5" r="1.5" fill="#D9D9D9"/>
<circle cx="672.5" cy="253.5" r="1.5" fill="#D9D9D9"/>
<circle cx="748.5" cy="158.5" r="2.5" fill="#D9D9D9"/>
<circle cx="457.5" cy="124.5" r="1.5" fill="#D9D9D9"/>
<circle cx="353.5" cy="142.5" r="1.5" fill="#D9D9D9"/>
<circle cx="230.5" cy="233.5" r="1.5" fill="#D9D9D9"/>
<circle cx="799.5" cy="357.5" r="2.5" fill="#D9D9D9"/>
<circle cx="939.5" cy="721.5" r="1.5" fill="#D9D9D9"/>
<circle cx="681.5" cy="699.5" r="1.5" fill="#D9D9D9"/>
<circle cx="877.5" cy="778.5" r="1.5" fill="#D9D9D9"/>
<circle cx="674.5" cy="767.5" r="1.5" fill="#D9D9D9"/>
<circle cx="1093.5" cy="653.5" r="1.5" fill="#D9D9D9"/>
<circle cx="980.5" cy="754.5" r="1.5" fill="#D9D9D9"/>
<circle cx="939.5" cy="616.5" r="1.5" fill="#D9D9D9"/>
<circle cx="1047.5" cy="420.5" r="2.5" fill="#D9D9D9"/>
<circle cx="1071.5" cy="313.5" r="2.5" fill="#D9D9D9"/>
<circle cx="1016.5" cy="217.5" r="2.5" fill="#D9D9D9"/>
<circle cx="1064.5" cy="725.5" r="2.5" fill="#D9D9D9"/>
<circle cx="33.5" cy="740.5" r="2.5" fill="#D9D9D9"/>
<circle cx="487.5" cy="699.5" r="2.5" fill="#D9D9D9"/>
<circle cx="363.5" cy="758.5" r="2.5" fill="#D9D9D9"/>
<circle cx="314.5" cy="612.5" r="2.5" fill="#D9D9D9"/>
<circle cx="2.5" cy="603.5" r="2.5" fill="#D9D9D9"/>
<circle cx="100.5" cy="636.5" r="2.5" fill="#D9D9D9"/>
<circle cx="599.5" cy="729.5" r="1.5" fill="#D9D9D9"/>
<circle cx="547.5" cy="635.5" r="1.5" fill="#D9D9D9"/>
<circle cx="215.5" cy="582.5" r="1.5" fill="#D9D9D9"/>
<circle cx="521.5" cy="764.5" r="1.5" fill="#D9D9D9"/>
<circle cx="336.5" cy="680.5" r="1.5" fill="#D9D9D9"/>
<circle cx="568.5" cy="402.5" r="1.5" fill="#D9D9D9"/>
<circle cx="701.5" cy="408.5" r="2.5" fill="#D9D9D9"/>
<circle cx="391.5" cy="377.5" r="2.5" fill="#D9D9D9"/>
<circle cx="480.5" cy="573.5" r="2.5" fill="#D9D9D9"/>
<circle cx="835.5" cy="641.5" r="2.5" fill="#D9D9D9"/>
<circle cx="632.5" cy="651.5" r="2.5" fill="#D9D9D9"/>
<circle cx="1097.5" cy="494.5" r="2.5" fill="#D9D9D9"/>
<circle cx="1000.5" cy="646.5" r="2.5" fill="#D9D9D9"/>
<circle cx="735.5" cy="573.5" r="2.5" fill="#D9D9D9"/>
<circle cx="747.5" cy="732.5" r="2.5" fill="#D9D9D9"/>
<circle cx="891.5" cy="712.5" r="2.5" fill="#D9D9D9"/>
<circle cx="732.5" cy="662.5" r="2.5" fill="#D9D9D9"/>
<circle cx="1067.5" cy="583.5" r="2.5" fill="#D9D9D9"/>
<circle cx="819.5" cy="782.5" r="2.5" fill="#D9D9D9"/>
<circle cx="349.5" cy="249.5" r="2.5" fill="#D9D9D9"/>
<circle cx="278.5" cy="106.5" r="2.5" fill="#D9D9D9"/>
<circle cx="458.5" cy="327.5" r="2.5" fill="#D9D9D9"/>
<circle cx="416.5" cy="646.5" r="2.5" fill="#D9D9D9"/>
<circle cx="150.5" cy="754.5" r="1.5" fill="#D9D9D9"/>
<circle cx="402.5" cy="781.5" r="1.5" fill="#D9D9D9"/>
<circle cx="273.5" cy="717.5" r="2.5" fill="#D9D9D9"/>
<circle cx="768.5" cy="252.5" r="2.5" fill="#D9D9D9"/>
<circle cx="571.5" cy="317.5" r="2.5" fill="#D9D9D9"/>
<circle cx="896.5" cy="176.5" r="2.5" fill="#D9D9D9"/>
<circle cx="936.5" cy="311.5" r="1.5" fill="#D9D9D9"/>
<circle cx="635.5" cy="2.5" r="2.5" fill="#D9D9D9"/>
</svg>
