<svg width="396" height="894" viewBox="0 0 396 894" fill="none" xmlns="http://www.w3.org/2000/svg">
<path d="M162.476 233.111C162.57 233.15 162.686 233.255 162.73 233.343C162.775 233.425 163.04 234.302 163.322 235.289C163.604 236.276 163.931 237.318 164.053 237.605C164.904 239.695 166.702 241.487 168.804 242.341C169.092 242.457 170.176 242.793 171.222 243.091C173.235 243.664 173.34 243.714 173.418 244.056C173.468 244.282 173.313 244.58 173.097 244.679C172.997 244.723 172.112 244.988 171.122 245.269C170.132 245.55 169.092 245.875 168.804 245.991C166.697 246.851 164.91 248.632 164.053 250.728C163.931 251.014 163.604 252.056 163.322 253.043C163.04 254.03 162.775 254.913 162.73 255.012C162.631 255.227 162.332 255.381 162.105 255.332C161.762 255.254 161.713 255.15 161.137 253.143C160.562 251.13 160.33 250.485 159.909 249.752C159.03 248.219 157.58 246.884 156.02 246.162C155.434 245.892 154.947 245.732 153.017 245.186C151.213 244.673 151.092 244.618 151.014 244.276C150.975 244.089 151.097 243.786 151.257 243.687C151.318 243.648 152.159 243.394 153.127 243.119C155.5 242.44 155.954 242.269 156.795 241.757C158.432 240.748 159.693 239.287 160.385 237.599C160.501 237.313 160.827 236.276 161.11 235.289C161.392 234.302 161.657 233.425 161.702 233.343C161.773 233.194 162.067 233.023 162.227 233.028C162.266 233.034 162.376 233.067 162.476 233.111Z" fill="white"/>
<path d="M341.902 0.0828292C341.996 0.121425 342.112 0.226187 342.156 0.314407C342.2 0.397113 342.466 1.2738 342.748 2.26076C343.03 3.24772 343.357 4.28982 343.478 4.57653C344.33 6.66624 346.128 8.45821 348.23 9.31284C348.518 9.42863 349.602 9.76497 350.648 10.0627C352.661 10.6361 352.766 10.6858 352.844 11.0276C352.893 11.2537 352.739 11.5514 352.523 11.6507C352.423 11.6948 351.538 11.9594 350.548 12.2406C349.558 12.5218 348.518 12.8472 348.23 12.9629C346.123 13.8231 344.336 15.604 343.478 17.6993C343.357 17.986 343.03 19.0281 342.748 20.015C342.466 21.002 342.2 21.8842 342.156 21.9834C342.057 22.1985 341.758 22.3529 341.531 22.3032C341.188 22.226 341.138 22.1213 340.563 20.1143C339.988 18.1018 339.755 17.4566 339.335 16.7233C338.455 15.1905 337.006 13.8562 335.446 13.1339C334.86 12.8637 334.373 12.7038 332.442 12.1579C330.639 11.6452 330.517 11.59 330.44 11.2482C330.401 11.0607 330.523 10.7574 330.683 10.6582C330.744 10.6196 331.585 10.366 332.553 10.0903C334.926 9.41209 335.38 9.24116 336.221 8.72839C337.858 7.71937 339.119 6.25823 339.811 4.57102C339.927 4.2843 340.253 3.24772 340.535 2.26076C340.818 1.2738 341.083 0.397113 341.127 0.314407C341.199 0.165535 341.492 -0.00539079 341.653 0.000122956C341.692 0.0056367 341.802 0.0387192 341.902 0.0828292Z" fill="white"/>
<path d="M327.847 25.3571C327.885 25.3727 327.932 25.4152 327.95 25.451C327.968 25.4845 328.075 25.8398 328.19 26.2399C328.304 26.6399 328.436 27.0623 328.486 27.1785C328.831 28.0256 329.56 28.7519 330.412 29.0983C330.528 29.1453 330.968 29.2816 331.392 29.4023C332.208 29.6347 332.25 29.6548 332.282 29.7934C332.302 29.885 332.239 30.0057 332.152 30.046C332.111 30.0638 331.753 30.1711 331.351 30.2851C330.95 30.3991 330.528 30.5309 330.412 30.5779C329.558 30.9265 328.833 31.6484 328.486 32.4977C328.436 32.6139 328.304 33.0363 328.19 33.4363C328.075 33.8364 327.968 34.194 327.95 34.2342C327.909 34.3214 327.788 34.3839 327.696 34.3638C327.557 34.3325 327.537 34.2901 327.304 33.4766C327.071 32.6608 326.977 32.3993 326.806 32.1021C326.45 31.4808 325.862 30.9399 325.23 30.6472C324.992 30.5376 324.795 30.4728 324.012 30.2516C323.281 30.0437 323.232 30.0214 323.201 29.8828C323.185 29.8068 323.234 29.6839 323.299 29.6437C323.324 29.628 323.665 29.5252 324.057 29.4135C325.019 29.1386 325.203 29.0693 325.544 28.8614C326.208 28.4525 326.719 27.8602 326.999 27.1763C327.046 27.0601 327.178 26.6399 327.293 26.2399C327.407 25.8398 327.515 25.4845 327.533 25.451C327.562 25.3906 327.681 25.3213 327.746 25.3236C327.761 25.3258 327.806 25.3392 327.847 25.3571Z" fill="white"/>
<path d="M26.1356 473.744C26.2297 473.783 26.3458 473.887 26.3901 473.976C26.4344 474.058 26.6999 474.935 26.982 475.922C27.2641 476.909 27.5905 477.951 27.7122 478.238C28.5641 480.328 30.3619 482.119 32.464 482.974C32.7517 483.09 33.8359 483.426 34.8814 483.724C36.895 484.297 37.0001 484.347 37.0776 484.689C37.1273 484.915 36.9725 485.213 36.7567 485.312C36.6571 485.356 35.772 485.621 34.7819 485.902C33.7917 486.183 32.7517 486.508 32.464 486.624C30.3564 487.484 28.5696 489.265 27.7122 491.361C27.5905 491.647 27.2641 492.689 26.982 493.676C26.6999 494.663 26.4344 495.545 26.3901 495.645C26.2905 495.86 25.9918 496.014 25.765 495.965C25.422 495.887 25.3722 495.783 24.7969 493.776C24.2216 491.763 23.9893 491.118 23.5689 490.385C22.6893 488.852 21.24 487.517 19.68 486.795C19.0936 486.525 18.6068 486.365 16.6762 485.819C14.8729 485.306 14.7512 485.251 14.6737 484.909C14.635 484.722 14.7567 484.419 14.9171 484.319C14.978 484.281 15.8188 484.027 16.7869 483.752C19.16 483.073 19.6136 482.902 20.4545 482.39C22.0919 481.381 23.3531 479.92 24.0446 478.232C24.1608 477.946 24.4872 476.909 24.7693 475.922C25.0514 474.935 25.3169 474.058 25.3612 473.976C25.4331 473.827 25.7263 473.656 25.8867 473.661C25.9254 473.667 26.0361 473.7 26.1356 473.744Z" fill="white"/>
<path d="M384.097 448.757C384.191 448.796 384.307 448.901 384.352 448.989C384.396 449.072 384.661 449.948 384.943 450.935C385.226 451.922 385.552 452.964 385.674 453.251C386.526 455.341 388.323 457.133 390.425 457.987C390.713 458.103 391.797 458.44 392.843 458.737C394.856 459.311 394.962 459.36 395.039 459.702C395.089 459.928 394.934 460.226 394.718 460.325C394.619 460.369 393.733 460.634 392.743 460.915C391.753 461.196 390.713 461.522 390.425 461.637C388.318 462.498 386.531 464.279 385.674 466.374C385.552 466.66 385.226 467.703 384.943 468.69C384.661 469.677 384.396 470.559 384.352 470.658C384.252 470.873 383.953 471.027 383.726 470.978C383.383 470.901 383.334 470.796 382.758 468.789C382.183 466.776 381.951 466.131 381.53 465.398C380.651 463.865 379.201 462.531 377.641 461.808C377.055 461.538 376.568 461.378 374.638 460.832C372.834 460.32 372.713 460.265 372.635 459.923C372.596 459.735 372.718 459.432 372.879 459.333C372.939 459.294 373.78 459.04 374.748 458.765C377.121 458.087 377.575 457.916 378.416 457.403C380.053 456.394 381.315 454.933 382.006 453.246C382.122 452.959 382.449 451.922 382.731 450.935C383.013 449.948 383.278 449.072 383.323 448.989C383.395 448.84 383.688 448.669 383.848 448.675C383.887 448.68 383.997 448.713 384.097 448.757Z" fill="white"/>
<ellipse cx="1.51229" cy="1.50735" rx="1.51229" ry="1.50735" transform="matrix(-1 0 0 1 154.031 347.641)" fill="#D9D9D9"/>
<ellipse cx="1.51229" cy="1.50735" rx="1.51229" ry="1.50735" transform="matrix(-1 0 0 1 332.198 316.679)" fill="#D9D9D9"/>
<ellipse cx="1.51229" cy="1.50735" rx="1.51229" ry="1.50735" transform="matrix(-1 0 0 1 139.366 481.809)" fill="#D9D9D9"/>
<ellipse cx="1.51229" cy="1.50735" rx="1.51229" ry="1.50735" transform="matrix(-1 0 0 1 65.4917 268.336)" fill="#D9D9D9"/>
<ellipse cx="1.51229" cy="1.50735" rx="1.51229" ry="1.50735" transform="matrix(-1 0 0 1 184.993 60.294)" fill="#D9D9D9"/>
<ellipse cx="1.51229" cy="1.50735" rx="1.51229" ry="1.50735" transform="matrix(-1 0 0 1 274.62 453.563)" fill="#D9D9D9"/>
<ellipse cx="1.51229" cy="1.50735" rx="1.51229" ry="1.50735" transform="matrix(-1 0 0 1 75.2686 229.769)" fill="#D9D9D9"/>
<ellipse cx="1.51229" cy="1.50735" rx="1.51229" ry="1.50735" transform="matrix(-1 0 0 1 3.0249 350.9)" fill="#D9D9D9"/>
<ellipse cx="1.51229" cy="1.50735" rx="1.51229" ry="1.50735" transform="matrix(-1 0 0 1 53.542 194.462)" fill="#D9D9D9"/>
<ellipse cx="1.51229" cy="1.50735" rx="1.51229" ry="1.50735" transform="matrix(-1 0 0 1 248.546 495.932)" fill="#D9D9D9"/>
<ellipse cx="0.907373" cy="0.90441" rx="0.907373" ry="0.90441" transform="matrix(-1 0 0 1 182.005 444.237)" fill="#D9D9D9"/>
<ellipse cx="0.907373" cy="0.90441" rx="0.907373" ry="0.90441" transform="matrix(-1 0 0 1 215.289 461.711)" fill="#D9D9D9"/>
<ellipse cx="0.907373" cy="0.90441" rx="0.907373" ry="0.90441" transform="matrix(-1 0 0 1 182.154 499.191)" fill="#D9D9D9"/>
<ellipse cx="0.907373" cy="0.90441" rx="0.907373" ry="0.90441" transform="matrix(-1 0 0 1 271.78 337.864)" fill="#D9D9D9"/>
<ellipse cx="0.907373" cy="0.90441" rx="0.907373" ry="0.90441" transform="matrix(-1 0 0 1 136.526 298.754)" fill="#D9D9D9"/>
<ellipse cx="0.907373" cy="0.90441" rx="0.907373" ry="0.90441" transform="matrix(-1 0 0 1 34.4062 318.309)" fill="#D9D9D9"/>
<ellipse cx="0.907373" cy="0.90441" rx="0.907373" ry="0.90441" transform="matrix(-1 0 0 1 310.346 485.068)" fill="#D9D9D9"/>
<ellipse cx="0.907373" cy="0.90441" rx="0.907373" ry="0.90441" transform="matrix(-1 0 0 1 76.2319 460.082)" fill="#D9D9D9"/>
<ellipse cx="0.907373" cy="0.90441" rx="0.907373" ry="0.90441" transform="matrix(-1 0 0 1 23.543 392.726)" fill="#D9D9D9"/>
<ellipse cx="0.907373" cy="0.90441" rx="0.907373" ry="0.90441" transform="matrix(-1 0 0 1 334.247 354.16)" fill="#D9D9D9"/>
<ellipse cx="0.907373" cy="0.90441" rx="0.907373" ry="0.90441" transform="matrix(-1 0 0 1 110.996 233.028)" fill="#D9D9D9"/>
<ellipse cx="0.907373" cy="0.90441" rx="0.907373" ry="0.90441" transform="matrix(-1 0 0 1 91.4409 315.05)" fill="#D9D9D9"/>
<ellipse cx="0.907373" cy="0.90441" rx="0.907373" ry="0.90441" transform="matrix(-1 0 0 1 8.87695 268.336)" fill="#D9D9D9"/>
<ellipse cx="0.907373" cy="0.90441" rx="0.907373" ry="0.90441" transform="matrix(-1 0 0 1 141.415 196.091)" fill="#D9D9D9"/>
<ellipse cx="0.907373" cy="0.90441" rx="0.907373" ry="0.90441" transform="matrix(-1 0 0 1 223.436 319.939)" fill="#D9D9D9"/>
<path d="M286.469 871.083C286.563 871.121 286.679 871.226 286.724 871.314C286.768 871.397 287.033 872.274 287.315 873.261C287.598 874.248 287.924 875.29 288.046 875.577C288.898 877.666 290.695 879.458 292.798 880.313C293.085 880.429 294.169 880.765 295.215 881.063C297.229 881.636 297.334 881.686 297.411 882.028C297.461 882.254 297.306 882.551 297.09 882.651C296.991 882.695 296.106 882.959 295.115 883.241C294.125 883.522 293.085 883.847 292.798 883.963C290.69 884.823 288.903 886.604 288.046 888.699C287.924 888.986 287.598 890.028 287.315 891.015C287.033 892.002 286.768 892.884 286.724 892.983C286.624 893.198 286.325 893.353 286.098 893.303C285.756 893.226 285.706 893.121 285.13 891.114C284.555 889.102 284.323 888.457 283.902 887.723C283.023 886.19 281.573 884.856 280.014 884.134C279.427 883.864 278.94 883.704 277.01 883.158C275.206 882.645 275.085 882.59 275.007 882.248C274.968 882.061 275.09 881.757 275.251 881.658C275.311 881.62 276.152 881.366 277.12 881.09C279.494 880.412 279.947 880.241 280.788 879.728C282.425 878.719 283.687 877.258 284.378 875.571C284.494 875.284 284.821 874.248 285.103 873.261C285.385 872.274 285.65 871.397 285.695 871.314C285.767 871.166 286.06 870.995 286.22 871C286.259 871.006 286.37 871.039 286.469 871.083Z" fill="white"/>
<path d="M384.097 712.003C384.191 712.042 384.307 712.147 384.352 712.235C384.396 712.317 384.661 713.194 384.943 714.181C385.226 715.168 385.552 716.21 385.674 716.497C386.526 718.587 388.323 720.379 390.425 721.233C390.713 721.349 391.797 721.685 392.843 721.983C394.856 722.556 394.962 722.606 395.039 722.948C395.089 723.174 394.934 723.472 394.718 723.571C394.619 723.615 393.733 723.88 392.743 724.161C391.753 724.442 390.713 724.767 390.425 724.883C388.318 725.743 386.531 727.524 385.674 729.62C385.552 729.906 385.226 730.948 384.943 731.935C384.661 732.922 384.396 733.805 384.352 733.904C384.252 734.119 383.953 734.273 383.726 734.224C383.383 734.146 383.334 734.042 382.758 732.035C382.183 730.022 381.951 729.377 381.53 728.644C380.651 727.111 379.201 725.777 377.641 725.054C377.055 724.784 376.568 724.624 374.638 724.078C372.834 723.565 372.713 723.51 372.635 723.169C372.596 722.981 372.718 722.678 372.879 722.579C372.939 722.54 373.78 722.286 374.748 722.011C377.121 721.332 377.575 721.161 378.416 720.649C380.053 719.64 381.315 718.179 382.006 716.491C382.122 716.205 382.449 715.168 382.731 714.181C383.013 713.194 383.278 712.317 383.323 712.235C383.395 712.086 383.688 711.915 383.848 711.92C383.887 711.926 383.997 711.959 384.097 712.003Z" fill="white"/>
<ellipse cx="1.51229" cy="1.50735" rx="1.51229" ry="1.50735" transform="matrix(-1 0 0 1 154.031 610.887)" fill="#D9D9D9"/>
<ellipse cx="1.51229" cy="1.50735" rx="1.51229" ry="1.50735" transform="matrix(-1 0 0 1 332.197 579.925)" fill="#D9D9D9"/>
<ellipse cx="1.51229" cy="1.50735" rx="1.51229" ry="1.50735" transform="matrix(-1 0 0 1 139.365 745.055)" fill="#D9D9D9"/>
<ellipse cx="1.51229" cy="1.50735" rx="1.51229" ry="1.50735" transform="matrix(-1 0 0 1 274.62 716.809)" fill="#D9D9D9"/>
<ellipse cx="1.51229" cy="1.50735" rx="1.51229" ry="1.50735" transform="matrix(-1 0 0 1 3.02441 614.146)" fill="#D9D9D9"/>
<ellipse cx="1.51229" cy="1.50735" rx="1.51229" ry="1.50735" transform="matrix(-1 0 0 1 248.546 759.178)" fill="#D9D9D9"/>
<ellipse cx="0.907373" cy="0.90441" rx="0.907373" ry="0.90441" transform="matrix(-1 0 0 1 182.005 707.482)" fill="#D9D9D9"/>
<ellipse cx="0.907373" cy="0.90441" rx="0.907373" ry="0.90441" transform="matrix(-1 0 0 1 215.288 724.957)" fill="#D9D9D9"/>
<ellipse cx="0.907373" cy="0.90441" rx="0.907373" ry="0.90441" transform="matrix(-1 0 0 1 182.154 762.437)" fill="#D9D9D9"/>
<ellipse cx="0.907373" cy="0.90441" rx="0.907373" ry="0.90441" transform="matrix(-1 0 0 1 271.78 601.11)" fill="#D9D9D9"/>
<ellipse cx="0.907373" cy="0.90441" rx="0.907373" ry="0.90441" transform="matrix(-1 0 0 1 136.525 562)" fill="#D9D9D9"/>
<ellipse cx="0.907373" cy="0.90441" rx="0.907373" ry="0.90441" transform="matrix(-1 0 0 1 34.4058 581.555)" fill="#D9D9D9"/>
<ellipse cx="0.907373" cy="0.90441" rx="0.907373" ry="0.90441" transform="matrix(-1 0 0 1 310.346 748.314)" fill="#D9D9D9"/>
<ellipse cx="0.907373" cy="0.90441" rx="0.907373" ry="0.90441" transform="matrix(-1 0 0 1 76.2314 723.327)" fill="#D9D9D9"/>
<ellipse cx="0.907373" cy="0.90441" rx="0.907373" ry="0.90441" transform="matrix(-1 0 0 1 23.5425 655.972)" fill="#D9D9D9"/>
<ellipse cx="0.907373" cy="0.90441" rx="0.907373" ry="0.90441" transform="matrix(-1 0 0 1 334.246 617.405)" fill="#D9D9D9"/>
<ellipse cx="0.907373" cy="0.90441" rx="0.907373" ry="0.90441" transform="matrix(-1 0 0 1 91.4404 578.296)" fill="#D9D9D9"/>
<ellipse cx="0.907373" cy="0.90441" rx="0.907373" ry="0.90441" transform="matrix(-1 0 0 1 223.436 583.184)" fill="#D9D9D9"/>
<ellipse cx="1.51229" cy="1.50735" rx="1.51229" ry="1.50735" transform="matrix(-1 0 0 1 151.303 834.887)" fill="#D9D9D9"/>
<ellipse cx="1.51229" cy="1.50735" rx="1.51229" ry="1.50735" transform="matrix(-1 0 0 1 329.47 803.925)" fill="#D9D9D9"/>
<ellipse cx="0.907373" cy="0.90441" rx="0.907373" ry="0.90441" transform="matrix(-1 0 0 1 269.052 825.11)" fill="#D9D9D9"/>
<ellipse cx="0.907373" cy="0.90441" rx="0.907373" ry="0.90441" transform="matrix(-1 0 0 1 133.798 786)" fill="#D9D9D9"/>
<ellipse cx="0.907373" cy="0.90441" rx="0.907373" ry="0.90441" transform="matrix(-1 0 0 1 20.8149 879.972)" fill="#D9D9D9"/>
<ellipse cx="0.907373" cy="0.90441" rx="0.907373" ry="0.90441" transform="matrix(-1 0 0 1 331.519 841.405)" fill="#D9D9D9"/>
</svg>
