<svg width="1033" height="894" viewBox="0 0 1033 894" fill="none" xmlns="http://www.w3.org/2000/svg">
<path d="M928.104 27.1374C927.948 27.2014 927.756 27.3751 927.683 27.5215C927.61 27.6586 927.171 29.1127 926.705 30.7496C926.238 32.3865 925.699 34.1148 925.498 34.5904C924.089 38.0562 921.117 41.0283 917.642 42.4457C917.167 42.6378 915.374 43.1956 913.646 43.6894C910.317 44.6405 910.143 44.7228 910.015 45.2897C909.933 45.6647 910.189 46.1585 910.546 46.3231C910.71 46.3963 912.174 46.8352 913.811 47.3016C915.447 47.768 917.167 48.3075 917.642 48.4996C921.126 49.9261 924.08 52.8799 925.498 56.3549C925.699 56.8304 926.238 58.5588 926.705 60.1957C927.171 61.8326 927.61 63.2958 927.683 63.4604C927.848 63.817 928.342 64.0731 928.717 63.9908C929.283 63.8628 929.366 63.689 930.317 60.3603C931.268 57.0225 931.652 55.9525 932.347 54.7363C933.801 52.194 936.197 49.981 938.776 48.783C939.745 48.3349 940.55 48.0697 943.741 47.1644C946.723 46.314 946.924 46.2225 947.052 45.6555C947.116 45.3446 946.915 44.8416 946.649 44.677C946.549 44.613 945.159 44.1924 943.558 43.7351C939.635 42.6103 938.885 42.3268 937.495 41.4764C934.789 39.8029 932.704 37.3795 931.561 34.5812C931.368 34.1057 930.829 32.3865 930.363 30.7496C929.896 29.1127 929.457 27.6586 929.384 27.5215C929.265 27.2746 928.781 26.9911 928.515 27.0002C928.451 27.0094 928.268 27.0642 928.104 27.1374Z" fill="white"/>
<path d="M551.104 184.137C550.948 184.201 550.756 184.375 550.683 184.521C550.61 184.659 550.171 186.113 549.705 187.75C549.238 189.386 548.699 191.115 548.498 191.59C547.089 195.056 544.117 198.028 540.642 199.446C540.167 199.638 538.374 200.196 536.646 200.689C533.317 201.64 533.143 201.723 533.015 202.29C532.933 202.665 533.189 203.158 533.546 203.323C533.71 203.396 535.174 203.835 536.811 204.302C538.447 204.768 540.167 205.308 540.642 205.5C544.126 206.926 547.08 209.88 548.498 213.355C548.699 213.83 549.238 215.559 549.705 217.196C550.171 218.833 550.61 220.296 550.683 220.46C550.848 220.817 551.342 221.073 551.717 220.991C552.283 220.863 552.366 220.689 553.317 217.36C554.268 214.022 554.652 212.953 555.347 211.736C556.801 209.194 559.197 206.981 561.776 205.783C562.745 205.335 563.55 205.07 566.741 204.164C569.723 203.314 569.924 203.223 570.052 202.656C570.116 202.345 569.915 201.842 569.649 201.677C569.549 201.613 568.159 201.192 566.558 200.735C562.635 199.61 561.885 199.327 560.495 198.476C557.789 196.803 555.704 194.38 554.561 191.581C554.368 191.106 553.829 189.386 553.363 187.75C552.896 186.113 552.457 184.659 552.384 184.521C552.265 184.275 551.781 183.991 551.515 184C551.451 184.009 551.268 184.064 551.104 184.137Z" fill="white"/>
<path d="M18.1038 830.137C17.9484 830.201 17.7563 830.375 17.6832 830.521C17.61 830.659 17.171 832.113 16.7047 833.75C16.2383 835.386 15.6987 837.115 15.4976 837.59C14.0893 841.056 11.1172 844.028 7.64221 845.446C7.16668 845.638 5.3743 846.196 3.64594 846.689C0.31725 847.64 0.143499 847.723 0.0154725 848.29C-0.0668304 848.665 0.189223 849.158 0.545869 849.323C0.710475 849.396 2.17364 849.835 3.81055 850.302C5.44746 850.768 7.16668 851.307 7.64221 851.5C11.1264 852.926 14.0801 855.88 15.4976 859.355C15.6987 859.83 16.2383 861.559 16.7047 863.196C17.171 864.833 17.61 866.296 17.6832 866.46C17.8478 866.817 18.3416 867.073 18.7165 866.991C19.2835 866.863 19.3658 866.689 20.3168 863.36C21.2679 860.022 21.652 858.953 22.347 857.736C23.801 855.194 26.1969 852.981 28.7758 851.783C29.7451 851.335 30.5498 851.07 33.7414 850.164C36.7226 849.314 36.9237 849.222 37.0518 848.656C37.1158 848.345 36.9146 847.842 36.6494 847.677C36.5488 847.613 35.1588 847.192 33.5585 846.735C29.6354 845.61 28.8855 845.327 27.4955 844.476C24.7886 842.803 22.7036 840.379 21.5605 837.581C21.3685 837.106 20.829 835.386 20.3626 833.75C19.8962 832.113 19.4572 830.659 19.3841 830.521C19.2652 830.275 18.7805 829.991 18.5153 830C18.4513 830.009 18.2684 830.064 18.1038 830.137Z" fill="white"/>
<path d="M951.338 69.0557C951.275 69.0816 951.197 69.1521 951.168 69.2114C951.138 69.267 950.96 69.8563 950.771 70.5198C950.582 71.1833 950.363 71.8839 950.282 72.0767C949.711 73.4815 948.506 74.6862 947.098 75.2607C946.905 75.3386 946.178 75.5647 945.478 75.7648C944.129 76.1503 944.058 76.1837 944.006 76.4135C943.973 76.5655 944.077 76.7656 944.221 76.8324C944.288 76.862 944.881 77.0399 945.545 77.229C946.208 77.418 946.905 77.6367 947.098 77.7146C948.51 78.2928 949.707 79.4901 950.282 80.8986C950.363 81.0914 950.582 81.7919 950.771 82.4554C950.96 83.1189 951.138 83.712 951.168 83.7787C951.234 83.9233 951.435 84.0271 951.586 83.9937C951.816 83.9418 951.85 83.8714 952.235 82.5222C952.621 81.1692 952.776 80.7355 953.058 80.2425C953.647 79.2121 954.619 78.315 955.664 77.8295C956.057 77.6478 956.383 77.5403 957.677 77.1734C958.885 76.8287 958.967 76.7916 959.018 76.5618C959.044 76.4357 958.963 76.2319 958.855 76.1652C958.815 76.1392 958.251 75.9687 957.602 75.7834C956.012 75.3274 955.708 75.2125 955.145 74.8678C954.048 74.1895 953.203 73.2072 952.739 72.0729C952.661 71.8802 952.443 71.1833 952.254 70.5198C952.065 69.8563 951.887 69.267 951.857 69.2114C951.809 69.1113 951.612 68.9964 951.505 69.0001C951.479 69.0038 951.405 69.026 951.338 69.0557Z" fill="white"/>
<path d="M816.104 749.137C815.948 749.201 815.756 749.375 815.683 749.521C815.61 749.659 815.171 751.113 814.705 752.75C814.238 754.386 813.699 756.115 813.498 756.59C812.089 760.056 809.117 763.028 805.642 764.446C805.167 764.638 803.374 765.196 801.646 765.689C798.317 766.64 798.143 766.723 798.015 767.29C797.933 767.665 798.189 768.158 798.546 768.323C798.71 768.396 800.174 768.835 801.811 769.302C803.447 769.768 805.167 770.307 805.642 770.5C809.126 771.926 812.08 774.88 813.498 778.355C813.699 778.83 814.238 780.559 814.705 782.196C815.171 783.833 815.61 785.296 815.683 785.46C815.848 785.817 816.342 786.073 816.717 785.991C817.283 785.863 817.366 785.689 818.317 782.36C819.268 779.022 819.652 777.953 820.347 776.736C821.801 774.194 824.197 771.981 826.776 770.783C827.745 770.335 828.55 770.07 831.741 769.164C834.723 768.314 834.924 768.222 835.052 767.656C835.116 767.345 834.915 766.842 834.649 766.677C834.549 766.613 833.159 766.192 831.558 765.735C827.635 764.61 826.885 764.327 825.495 763.476C822.789 761.803 820.704 759.379 819.561 756.581C819.368 756.106 818.829 754.386 818.363 752.75C817.896 751.113 817.457 749.659 817.384 749.521C817.265 749.275 816.781 748.991 816.515 749C816.451 749.009 816.268 749.064 816.104 749.137Z" fill="white"/>
<path d="M794.338 783.056C794.275 783.082 794.197 783.152 794.168 783.211C794.138 783.267 793.96 783.856 793.771 784.52C793.582 785.183 793.363 785.884 793.282 786.077C792.711 787.481 791.506 788.686 790.098 789.261C789.905 789.339 789.178 789.565 788.478 789.765C787.129 790.15 787.058 790.184 787.006 790.414C786.973 790.565 787.077 790.766 787.221 790.832C787.288 790.862 787.881 791.04 788.545 791.229C789.208 791.418 789.905 791.637 790.098 791.715C791.51 792.293 792.707 793.49 793.282 794.899C793.363 795.091 793.582 795.792 793.771 796.455C793.96 797.119 794.138 797.712 794.168 797.779C794.234 797.923 794.435 798.027 794.586 797.994C794.816 797.942 794.85 797.871 795.235 796.522C795.621 795.169 795.776 794.736 796.058 794.243C796.647 793.212 797.619 792.315 798.664 791.829C799.057 791.648 799.383 791.54 800.677 791.173C801.885 790.829 801.967 790.792 802.018 790.562C802.044 790.436 801.963 790.232 801.855 790.165C801.815 790.139 801.251 789.969 800.602 789.783C799.012 789.327 798.708 789.213 798.145 788.868C797.048 788.189 796.203 787.207 795.739 786.073C795.661 785.88 795.443 785.183 795.254 784.52C795.065 783.856 794.887 783.267 794.857 783.211C794.809 783.111 794.612 782.996 794.505 783C794.479 783.004 794.405 783.026 794.338 783.056Z" fill="white"/>
<path d="M967.892 51.0371C967.85 51.0544 967.798 51.1014 967.778 51.1409C967.759 51.178 967.64 51.5709 967.514 52.0132C967.388 52.4556 967.242 52.9226 967.188 53.0511C966.807 53.9877 966.004 54.7908 965.065 55.1738C964.937 55.2257 964.452 55.3764 963.985 55.5099C963.086 55.7669 963.039 55.7891 963.004 55.9423C962.982 56.0437 963.051 56.1771 963.148 56.2216C963.192 56.2413 963.587 56.36 964.03 56.486C964.472 56.612 964.937 56.7578 965.065 56.8097C966.007 57.1952 966.805 57.9934 967.188 58.9324C967.242 59.0609 967.388 59.528 967.514 59.9703C967.64 60.4126 967.759 60.808 967.778 60.8525C967.823 60.9489 967.956 61.0181 968.058 60.9958C968.211 60.9612 968.233 60.9143 968.49 60.0148C968.747 59.1128 968.851 58.8237 969.039 58.495C969.432 57.808 970.079 57.21 970.776 56.8863C971.038 56.7652 971.255 56.6936 972.118 56.4489C972.923 56.2191 972.978 56.1944 973.012 56.0412C973.03 55.9572 972.975 55.8213 972.904 55.7768C972.876 55.7595 972.501 55.6458 972.068 55.5222C971.008 55.2183 970.806 55.1417 970.43 54.9119C969.699 54.4597 969.135 53.8048 968.826 53.0486C968.774 52.9201 968.628 52.4556 968.502 52.0132C968.376 51.5709 968.258 51.178 968.238 51.1409C968.206 51.0742 968.075 50.9976 968.003 51.0001C967.986 51.0025 967.937 51.0174 967.892 51.0371Z" fill="white"/>
<circle cx="351.5" cy="53.5" r="2.5" fill="#D9D9D9"/>
<circle cx="441.5" cy="249.5" r="2.5" fill="#D9D9D9"/>
<circle cx="594.5" cy="2.5" r="2.5" fill="#D9D9D9"/>
<circle cx="643.5" cy="139.5" r="2.5" fill="#D9D9D9"/>
<circle cx="510.5" cy="81.5" r="2.5" fill="#D9D9D9"/>
<circle cx="701.5" cy="33.5" r="1.5" fill="#D9D9D9"/>
<circle cx="631.5" cy="253.5" r="1.5" fill="#D9D9D9"/>
<circle cx="707.5" cy="158.5" r="2.5" fill="#D9D9D9"/>
<circle cx="415.5" cy="152.5" r="1.5" fill="#D9D9D9"/>
<circle cx="758.5" cy="357.5" r="2.5" fill="#D9D9D9"/>
<circle cx="960.5" cy="819.5" r="2.5" fill="#D9D9D9"/>
<circle cx="660.5" cy="797.5" r="2.5" fill="#D9D9D9"/>
<circle cx="892.5" cy="860.5" r="1.5" fill="#D9D9D9"/>
<circle cx="898.5" cy="721.5" r="1.5" fill="#D9D9D9"/>
<circle cx="1006.5" cy="420.5" r="2.5" fill="#D9D9D9"/>
<circle cx="888.5" cy="458.5" r="2.5" fill="#D9D9D9"/>
<circle cx="1030.5" cy="313.5" r="2.5" fill="#D9D9D9"/>
<circle cx="975.5" cy="217.5" r="2.5" fill="#D9D9D9"/>
<circle cx="1023.5" cy="725.5" r="2.5" fill="#D9D9D9"/>
<circle cx="37.5" cy="692.5" r="2.5" fill="#D9D9D9"/>
<circle cx="558.5" cy="729.5" r="1.5" fill="#D9D9D9"/>
<circle cx="462.5" cy="823.5" r="1.5" fill="#D9D9D9"/>
<circle cx="596.5" cy="660.5" r="2.5" fill="#D9D9D9"/>
<circle cx="592.5" cy="457.5" r="1.5" fill="#D9D9D9"/>
<circle cx="543.5" cy="509.5" r="1.5" fill="#D9D9D9"/>
<circle cx="527.5" cy="402.5" r="1.5" fill="#D9D9D9"/>
<circle cx="660.5" cy="408.5" r="2.5" fill="#D9D9D9"/>
<circle cx="350.5" cy="377.5" r="2.5" fill="#D9D9D9"/>
<circle cx="284.5" cy="321.5" r="1.5" fill="#D9D9D9"/>
<circle cx="417.5" cy="327.5" r="2.5" fill="#D9D9D9"/>
<circle cx="1025.5" cy="891.5" r="2.5" fill="#D9D9D9"/>
<circle cx="779.5" cy="850.5" r="1.5" fill="#D9D9D9"/>
<circle cx="375.5" cy="646.5" r="2.5" fill="#D9D9D9"/>
<circle cx="109.5" cy="754.5" r="1.5" fill="#D9D9D9"/>
<circle cx="355.5" cy="766.5" r="1.5" fill="#D9D9D9"/>
<circle cx="411.5" cy="890.5" r="1.5" fill="#D9D9D9"/>
<circle cx="180.5" cy="869.5" r="2.5" fill="#D9D9D9"/>
<circle cx="232.5" cy="717.5" r="2.5" fill="#D9D9D9"/>
<circle cx="278.5" cy="850.5" r="1.5" fill="#D9D9D9"/>
<circle cx="781.5" cy="682.5" r="2.5" fill="#D9D9D9"/>
<circle cx="588.5" cy="864.5" r="2.5" fill="#D9D9D9"/>
<circle cx="727.5" cy="252.5" r="2.5" fill="#D9D9D9"/>
<circle cx="530.5" cy="317.5" r="2.5" fill="#D9D9D9"/>
<circle cx="855.5" cy="176.5" r="2.5" fill="#D9D9D9"/>
<circle cx="895.5" cy="311.5" r="1.5" fill="#D9D9D9"/>
<circle cx="594.5" cy="2.5" r="2.5" fill="#D9D9D9"/>
</svg>
